<svg width="23" height="23" viewBox="0 0 23 23" fill="none" xmlns="http://www.w3.org/2000/svg">
<path d="M14.0764 22.0105H7.93399C2.37508 22.0105 0 19.6354 0 14.0765V7.93405C0 2.37514 2.37508 6.10352e-05 7.93399 6.10352e-05H14.0764C19.6353 6.10352e-05 22.0104 2.37514 22.0104 7.93405V14.0765C22.0104 19.6354 19.6353 22.0105 14.0764 22.0105ZM7.93399 1.53567C3.21454 1.53567 1.53561 3.21461 1.53561 7.93405V14.0765C1.53561 18.7959 3.21454 20.4749 7.93399 20.4749H14.0764C18.7959 20.4749 20.4748 18.7959 20.4748 14.0765V7.93405C20.4748 3.21461 18.7959 1.53567 14.0764 1.53567H7.93399Z" fill="#111111"/>
<path d="M6.22496 14.3222C6.06117 14.3222 5.89737 14.271 5.75404 14.1584C5.41621 13.9024 5.35478 13.4213 5.61072 13.0834L8.04722 9.92008C8.34411 9.5413 8.76384 9.2956 9.245 9.23418C9.71592 9.17275 10.1971 9.30584 10.5759 9.60273L12.4493 11.0769C12.521 11.1383 12.5926 11.1383 12.6438 11.1281C12.6848 11.1281 12.7564 11.1076 12.8179 11.0257L15.1827 7.97498C15.4386 7.63714 15.93 7.57572 16.2576 7.84189C16.5955 8.09783 16.6569 8.57898 16.3907 8.91682L14.0259 11.9676C13.729 12.3463 13.3092 12.592 12.8281 12.6432C12.3469 12.7047 11.876 12.5716 11.4972 12.2747L9.62378 10.8005C9.55212 10.7391 9.47022 10.7391 9.42927 10.7493C9.38832 10.7493 9.31666 10.7698 9.25524 10.8517L6.81873 14.015C6.68565 14.2198 6.46042 14.3222 6.22496 14.3222Z" fill="#111111"/>
</svg>
