<svg width="26" height="26" viewBox="0 0 26 26" fill="none" xmlns="http://www.w3.org/2000/svg">
<g clip-path="url(#clip0_5589_842)">
<path d="M16.0469 16.1714V11.0113" stroke="#333333" stroke-width="1.52344" stroke-miterlimit="10" stroke-linecap="round" stroke-linejoin="round"/>
<mask id="mask0_5589_842" style="mask-type:luminance" maskUnits="userSpaceOnUse" x="0" y="0" width="26" height="26">
<path d="M0 1.90735e-06H26V26H0V1.90735e-06Z" fill="white"/>
</mask>
<g mask="url(#mask0_5589_842)">
<path d="M13 16.1207V12.5347C13 11.6933 12.3179 11.0113 11.4766 11.0113C10.6352 11.0113 9.95312 11.6933 9.95312 12.5347V16.1207" stroke="#333333" stroke-width="1.52344" stroke-miterlimit="10" stroke-linecap="round" stroke-linejoin="round"/>
<path d="M9.95312 13.855H13" stroke="#333333" stroke-width="1.52344" stroke-miterlimit="10" stroke-linecap="round" stroke-linejoin="round"/>
<path d="M19.0864 18.9644H6.91406V8.21829H19.0864V18.9644Z" stroke="#333333" stroke-width="1.52344" stroke-miterlimit="10" stroke-linecap="round" stroke-linejoin="round"/>
<path d="M13.0039 8.15067V4.53139C13.0039 2.4493 11.3393 0.76169 9.28621 0.76169C7.23312 0.76169 5.56902 2.4493 5.56902 4.53139C5.56902 4.87071 5.6132 5.19982 5.69648 5.51243C3.6693 5.5433 2.03617 7.21903 2.03617 9.28156C2.03617 10.2317 2.38301 11.1005 2.9548 11.7632C1.66395 12.3539 0.765625 13.6712 0.765625 15.2007C0.765625 16.2884 1.22012 17.2689 1.9468 17.9564C1.88434 18.2298 1.85133 18.5152 1.85133 18.8077C1.85133 20.8898 3.51594 22.5778 5.56902 22.5778C5.62336 22.5778 5.67769 22.5769 5.73152 22.5737C6.19719 24.1166 7.61246 25.2383 9.28621 25.2383C11.3393 25.2383 13.0039 23.5501 13.0039 21.4681V19.0487" stroke="#333333" stroke-width="1.52344" stroke-miterlimit="10" stroke-linecap="round" stroke-linejoin="round"/>
<path d="M13 8.21826V4.53133C13 2.4493 14.6646 0.76169 16.7177 0.76169C18.7708 0.76169 20.4349 2.4493 20.4349 4.53133C20.4349 4.87071 20.3907 5.19982 20.3074 5.51243C22.3346 5.5433 23.9677 7.21903 23.9677 9.28151C23.9677 10.2317 23.6209 11.1005 23.0491 11.7632C24.34 12.3539 25.2383 13.6712 25.2383 15.2007C25.2383 16.2884 24.7838 17.2689 24.0571 17.9564C24.1196 18.2298 24.1526 18.5152 24.1526 18.8077C24.1526 20.8898 22.488 22.5778 20.4349 22.5778C20.3805 22.5778 20.3262 22.5769 20.2724 22.5737C19.8067 24.1166 18.3914 25.2383 16.7177 25.2383C14.6646 25.2383 13 23.5501 13 21.4681V18.9644" stroke="#333333" stroke-width="1.52344" stroke-miterlimit="10" stroke-linecap="round" stroke-linejoin="round"/>
<path d="M23.0465 11.7633C23.0465 11.7633 22.3922 12.4363 21.875 12.716" stroke="#333333" stroke-width="1.52344" stroke-miterlimit="10" stroke-linecap="round" stroke-linejoin="round"/>
<path d="M18.4844 21.8157C18.4844 21.8157 19.3858 22.5507 20.2769 22.5738" stroke="#333333" stroke-width="1.52344" stroke-miterlimit="10" stroke-linecap="round" stroke-linejoin="round"/>
<path d="M24.0629 17.9564C24.0629 17.9564 23.383 18.5211 22.7031 18.6201" stroke="#333333" stroke-width="1.52344" stroke-miterlimit="10" stroke-linecap="round" stroke-linejoin="round"/>
<path d="M2.94531 11.7633C2.94531 11.7633 3.59968 12.4363 4.11684 12.716" stroke="#333333" stroke-width="1.52344" stroke-miterlimit="10" stroke-linecap="round" stroke-linejoin="round"/>
<path d="M7.51123 21.8157C7.51123 21.8157 6.60976 22.5507 5.71875 22.5738" stroke="#333333" stroke-width="1.52344" stroke-miterlimit="10" stroke-linecap="round" stroke-linejoin="round"/>
<path d="M1.9375 17.9564C1.9375 17.9564 2.61741 18.5211 3.29727 18.6201" stroke="#333333" stroke-width="1.52344" stroke-miterlimit="10" stroke-linecap="round" stroke-linejoin="round"/>
<path d="M5.6875 5.51247C5.6875 5.51247 6.69962 5.42314 7.49673 5.80167" stroke="#333333" stroke-width="1.52344" stroke-miterlimit="10" stroke-linecap="round" stroke-linejoin="round"/>
<path d="M20.3092 5.51247C20.3092 5.51247 19.2971 5.42314 18.5 5.80167" stroke="#333333" stroke-width="1.52344" stroke-miterlimit="10" stroke-linecap="round" stroke-linejoin="round"/>
</g>
</g>
<defs>
<clipPath id="clip0_5589_842">
<rect width="26" height="26" fill="white"/>
</clipPath>
</defs>
</svg>
