<svg width="40" height="40" viewBox="0 0 40 40" fill="none" xmlns="http://www.w3.org/2000/svg">
<path d="M25.3656 10.672H14.1961C12.1882 10.672 10.5547 12.3055 10.5547 14.3134V25.0919C10.5547 27.0998 12.1882 28.7333 14.1961 28.7333H25.3656C27.3734 28.7333 29.007 27.0998 29.007 25.0919V14.3134C29.007 12.3055 27.3734 10.672 25.3656 10.672ZM27.627 25.0919C27.627 26.3389 26.6126 27.3533 25.3656 27.3533H14.1961C12.9491 27.3533 11.9347 26.3389 11.9347 25.0919V14.3134C11.9347 13.0664 12.9491 12.052 14.1961 12.052H25.3656C26.6126 12.052 27.627 13.0664 27.627 14.3134V25.0919Z" fill="white"/>
<path d="M14.8785 5.57494V8.19083C14.8785 8.57191 15.1874 8.88083 15.5685 8.88083C15.9497 8.88083 16.2585 8.57191 16.2585 8.19083V5.57494C17.4867 5.26607 18.3987 4.1528 18.3987 2.83021C18.3987 1.26963 17.1291 0 15.5685 0C14.008 0 12.7383 1.26963 12.7383 2.83021C12.7383 4.1528 13.6504 5.26607 14.8785 5.57494ZM15.5685 1.38C16.3682 1.38 17.0187 2.03056 17.0187 2.83021C17.0187 3.62982 16.3682 4.28038 15.5685 4.28038C14.7688 4.28038 14.1183 3.62982 14.1183 2.83021C14.1183 2.03056 14.7688 1.38 15.5685 1.38Z" fill="white"/>
<path d="M22.9879 5.57494V8.19083C22.9879 8.57191 23.2968 8.88083 23.6779 8.88083C24.059 8.88083 24.3679 8.57191 24.3679 8.19083V5.57494C25.596 5.26607 26.5081 4.1528 26.5081 2.83021C26.5081 1.26963 25.2385 0 23.6779 0C22.1173 0 20.8477 1.26963 20.8477 2.83021C20.8477 4.1528 21.7598 5.26607 22.9879 5.57494ZM23.6779 1.38C24.4775 1.38 25.1281 2.03056 25.1281 2.83021C25.1281 3.62982 24.4775 4.28038 23.6779 4.28038C22.8782 4.28038 22.2277 3.62982 22.2277 2.83021C22.2277 2.03056 22.8782 1.38 23.6779 1.38Z" fill="white"/>
<path d="M24.528 33.8304V31.2145C24.528 30.8334 24.2191 30.5245 23.838 30.5245C23.4569 30.5245 23.148 30.8334 23.148 31.2145V33.8304C21.9199 34.1392 21.0078 35.2525 21.0078 36.5751C21.0078 38.1357 22.2774 39.4053 23.838 39.4053C25.3986 39.4053 26.6682 38.1357 26.6682 36.5751C26.6682 35.2525 25.7561 34.1392 24.528 33.8304ZM23.838 38.0253C23.0384 38.0253 22.3878 37.3748 22.3878 36.5751C22.3878 35.7755 23.0384 35.1249 23.838 35.1249C24.6377 35.1249 25.2882 35.7755 25.2882 36.5751C25.2882 37.3748 24.6377 38.0253 23.838 38.0253Z" fill="white"/>
<path d="M16.4186 33.8304V31.2145C16.4186 30.8334 16.1097 30.5245 15.7286 30.5245C15.3475 30.5245 15.0386 30.8334 15.0386 31.2145V33.8304C13.8105 34.1392 12.8984 35.2525 12.8984 36.5751C12.8984 38.1357 14.168 39.4053 15.7286 39.4053C17.2892 39.4053 18.5589 38.1357 18.5589 36.5751C18.5589 35.2525 17.6468 34.1392 16.4186 33.8304ZM15.7286 38.0253C14.929 38.0253 14.2784 37.3748 14.2784 36.5751C14.2784 35.7755 14.929 35.1249 15.7286 35.1249C16.5283 35.1249 17.1789 35.7755 17.1789 36.5751C17.1789 37.3748 16.5283 38.0253 15.7286 38.0253Z" fill="white"/>
<path d="M31.2134 16.2586H33.8293C34.1382 17.4868 35.2515 18.3988 36.5742 18.3988C38.1347 18.3988 39.4043 17.1292 39.4043 15.5686C39.4043 14.0081 38.1347 12.7385 36.5742 12.7385C35.2516 12.7385 34.1382 13.6505 33.8293 14.8786H31.2134C30.8323 14.8786 30.5234 15.1876 30.5234 15.5686C30.5234 15.9497 30.8323 16.2586 31.2134 16.2586ZM36.5742 14.1185C37.3738 14.1185 38.0243 14.769 38.0243 15.5686C38.0243 16.3683 37.3738 17.0188 36.5742 17.0188C35.7744 17.0188 35.1239 16.3683 35.1239 15.5686C35.1239 14.769 35.7744 14.1185 36.5742 14.1185Z" fill="white"/>
<path d="M36.5742 20.8466C35.2515 20.8466 34.1382 21.7586 33.8293 22.9868H31.2134C30.8323 22.9868 30.5234 23.2957 30.5234 23.6768C30.5234 24.0578 30.8323 24.3668 31.2134 24.3668H33.8293C34.1382 25.5949 35.2515 26.507 36.5742 26.507C38.1347 26.507 39.4043 25.2374 39.4043 23.6768C39.4043 22.1162 38.1347 20.8466 36.5742 20.8466ZM36.5742 25.127C35.7744 25.127 35.1239 24.4764 35.1239 23.6768C35.1239 22.8771 35.7744 22.2266 36.5742 22.2266C37.3738 22.2266 38.0243 22.8771 38.0243 23.6768C38.0243 24.4764 37.3738 25.127 36.5742 25.127Z" fill="white"/>
<path d="M8.19088 23.1467H5.57499C5.26611 21.9186 4.15281 21.0065 2.83017 21.0065C1.26958 21.0065 0 22.2761 0 23.8367C0 25.3972 1.26958 26.6669 2.83017 26.6669C4.15276 26.6669 5.2661 25.7548 5.57499 24.5267H8.19088C8.572 24.5267 8.88088 24.2178 8.88088 23.8367C8.88088 23.4556 8.57199 23.1467 8.19088 23.1467ZM2.83017 25.2869C2.03056 25.2869 1.38 24.6363 1.38 23.8367C1.38 23.037 2.03056 22.3865 2.83017 22.3865C3.62987 22.3865 4.28043 23.037 4.28043 23.8367C4.28043 24.6363 3.62987 25.2869 2.83017 25.2869Z" fill="white"/>
<path d="M8.19088 15.0385H5.57499C5.26611 13.8104 4.15281 12.8983 2.83017 12.8983C1.26958 12.8983 0 14.1679 0 15.7285C0 17.2891 1.26958 18.5587 2.83017 18.5587C4.15281 18.5587 5.2661 17.6467 5.57499 16.4185H8.19088C8.572 16.4185 8.88088 16.1096 8.88088 15.7285C8.88088 15.3475 8.57199 15.0385 8.19088 15.0385ZM2.83017 17.1787C2.03056 17.1787 1.38 16.5282 1.38 15.7285C1.38 14.9289 2.03056 14.2783 2.83017 14.2783C3.62987 14.2783 4.28043 14.9289 4.28043 15.7285C4.28043 16.5282 3.62987 17.1787 2.83017 17.1787Z" fill="white"/>
<path d="M19.0194 15.9988C18.8313 15.5738 18.4103 15.2998 17.9455 15.2998C17.4808 15.2998 17.0598 15.5738 16.8716 15.9988L13.8944 22.722C13.6839 23.1973 14.0319 23.732 14.5517 23.732C14.8379 23.732 15.0969 23.5623 15.211 23.2999L15.7771 21.9983C15.8084 21.9263 15.8794 21.8798 15.9579 21.8798H19.9273C20.0058 21.8798 20.0768 21.9263 20.1081 21.9983L20.6735 23.2982C20.788 23.5617 21.0479 23.732 21.3352 23.732C21.8569 23.732 22.2062 23.1954 21.995 22.7183L19.0194 15.9988ZM19.2268 20.639H16.6761C16.5341 20.639 16.4387 20.4935 16.4952 20.3633L17.7706 17.4273C17.8393 17.2692 18.0636 17.2692 18.1323 17.4273L19.4076 20.3633C19.4641 20.4935 19.3687 20.639 19.2268 20.639Z" fill="white"/>
<path d="M24.196 15.2998C23.7836 15.2998 23.4492 15.6342 23.4492 16.0466V22.9853C23.4492 23.3977 23.7836 23.732 24.196 23.732C24.6084 23.732 24.9428 23.3977 24.9428 22.9853V16.0466C24.9428 15.6342 24.6084 15.2998 24.196 15.2998Z" fill="white"/>
</svg>
