<svg width="23" height="29" viewBox="0 0 23 29" fill="none" xmlns="http://www.w3.org/2000/svg">
<path d="M9.00844 23.0906H2.8125C2.295 23.0906 1.875 22.6706 1.875 22.1531V2.8125C1.875 2.295 2.295 1.875 2.8125 1.875H16.875C17.3925 1.875 17.8125 2.295 17.8125 2.8125V14.2687C17.8125 14.7872 18.2316 15.2062 18.75 15.2062C19.2684 15.2062 19.6875 14.7872 19.6875 14.2687V2.8125C19.6875 1.26187 18.4256 0 16.875 0H2.8125C1.26187 0 0 1.26187 0 2.8125V22.1531C0 23.7037 1.26187 24.9656 2.8125 24.9656H9.00844C9.52687 24.9656 9.94594 24.5466 9.94594 24.0281C9.94594 23.5097 9.52687 23.0906 9.00844 23.0906Z" fill="#111111"/>
<path d="M22.1444 21.0525L20.8337 20.58C19.6366 20.1487 18.7028 19.2141 18.2706 18.0178L17.7981 16.7062C17.7981 16.7053 17.7981 16.7044 17.7972 16.7025C17.6434 16.2806 17.2384 15.9975 16.7903 15.9975C16.7884 15.9975 16.7875 15.9975 16.7866 15.9975C16.3366 15.9994 15.9325 16.2853 15.7825 16.7053L15.3091 18.0178C14.8769 19.2141 13.9431 20.1478 12.7469 20.58L11.4316 21.0534C11.0106 21.2072 10.7266 21.6122 10.7266 22.0612C10.7266 22.5103 11.0106 22.9144 11.4353 23.0691L12.7469 23.5416C13.9431 23.9737 14.8769 24.9075 15.3091 26.1047L15.7806 27.4134C15.9325 27.8372 16.3366 28.1231 16.7866 28.125H16.7903C17.2394 28.125 17.6434 27.8419 17.7981 27.4162L18.2706 26.1047C18.7028 24.9084 19.6366 23.9737 20.8337 23.5425L22.1453 23.07C22.5691 22.9172 22.8531 22.5112 22.8531 22.0622C22.8522 21.6112 22.5691 21.2053 22.1444 21.0525ZM16.7894 24.8072C16.195 23.6156 15.2341 22.6547 14.0425 22.0612C15.2341 21.4669 16.195 20.5059 16.7894 19.3144C17.3828 20.5059 18.3437 21.4669 19.5362 22.0612C18.3437 22.6547 17.3828 23.6156 16.7894 24.8072Z" fill="#111111"/>
<path d="M4.86719 5.7225H8.05656C8.575 5.7225 8.99406 5.30344 8.99406 4.785C8.99406 4.26657 8.575 3.8475 8.05656 3.8475H4.86719C4.34875 3.8475 3.92969 4.26657 3.92969 4.785C3.92969 5.30344 4.34875 5.7225 4.86719 5.7225Z" fill="#111111"/>
<path d="M14.8216 7.69501H4.86719C4.34875 7.69501 3.92969 8.11407 3.92969 8.63251C3.92969 9.15094 4.34875 9.57001 4.86719 9.57001H14.8216C15.34 9.57001 15.7591 9.15094 15.7591 8.63251C15.7591 8.11407 15.34 7.69501 14.8216 7.69501Z" fill="#111111"/>
<path d="M15.7591 12.4809C15.7591 11.9625 15.34 11.5434 14.8216 11.5434H4.86719C4.34875 11.5434 3.92969 11.9625 3.92969 12.4809C3.92969 12.9994 4.34875 13.4184 4.86719 13.4184H14.8216C15.34 13.4184 15.7591 12.9984 15.7591 12.4809Z" fill="#111111"/>
<path d="M4.86719 15.3938C4.34875 15.3938 3.92969 15.8128 3.92969 16.3313C3.92969 16.8497 4.34875 17.2688 4.86719 17.2688H13.4266C13.945 17.2688 14.3641 16.8497 14.3641 16.3313C14.3641 15.8128 13.945 15.3938 13.4266 15.3938H4.86719Z" fill="#111111"/>
</svg>
