<svg width="22" height="25" viewBox="0 0 22 25" fill="none" xmlns="http://www.w3.org/2000/svg">
<path d="M18.6263 9.52466C18.1583 9.52466 17.7784 9.13674 17.7784 8.65876C17.7784 5.11461 15.0757 2.08481 11.6247 1.76096C8.16567 1.43582 4.95591 3.90797 4.32507 7.38978C4.2496 7.80454 4.21145 8.23143 4.21145 8.65876C4.21145 9.13674 3.83158 9.52466 3.36354 9.52466C2.89549 9.52466 2.51562 9.13674 2.51562 8.65876C2.51562 8.1258 2.56311 7.59283 2.65723 7.07459C3.44578 2.72212 7.45046 -0.37176 11.7803 0.0360814C16.0949 0.441325 19.4743 4.22879 19.4743 8.65876C19.4743 9.13717 19.0948 9.52466 18.6263 9.52466Z" fill="#333333"/>
<path d="M18.6292 19.9154C18.1611 19.9154 17.7812 19.5274 17.7812 19.0495C17.7812 18.5715 18.1611 18.1836 18.6292 18.1836C19.4635 18.1836 19.979 17.6004 20.183 17.0544C20.386 16.5115 20.3818 15.7287 19.7598 15.1607C19.4109 14.842 19.3804 14.2943 19.6933 13.938C20.0049 13.5817 20.5416 13.551 20.8901 13.8701C21.9313 14.8208 22.2756 16.3136 21.7669 17.6722C21.2573 19.0347 20.0257 19.9154 18.6292 19.9154Z" fill="#333333"/>
<path d="M18.6292 11.509C18.1611 11.509 17.7812 11.1211 17.7812 10.6431V8.65887C17.7812 8.18089 18.1611 7.79297 18.6292 7.79297C19.0972 7.79297 19.4771 8.18089 19.4771 8.65887V10.6431C19.4771 11.1211 19.0976 11.509 18.6292 11.509Z" fill="#333333"/>
<path d="M20.3246 15.3815C20.1232 15.3815 19.9214 15.3088 19.7598 15.1612C18.5024 14.0125 17.7812 12.366 17.7812 10.6433C17.7812 10.1653 18.1611 9.7774 18.6292 9.7774C19.0972 9.7774 19.4771 10.1653 19.4771 10.6433C19.4771 11.8738 19.9922 13.0501 20.8901 13.8705C21.239 14.1892 21.2696 14.7369 20.9567 15.0932C20.7896 15.2841 20.5577 15.3815 20.3246 15.3815Z" fill="#333333"/>
<path d="M3.36354 11.509C2.89549 11.509 2.51562 11.1211 2.51562 10.6431V8.65887C2.51562 8.18089 2.89549 7.79297 3.36354 7.79297C3.83158 7.79297 4.21145 8.18089 4.21145 8.65887V10.6431C4.21145 11.1211 3.83201 11.509 3.36354 11.509Z" fill="#333333"/>
<path d="M1.6763 15.3809C1.44312 15.3809 1.21122 15.2835 1.04418 15.0922C0.731727 14.7358 0.761827 14.1882 1.11074 13.8695C2.00868 13.0491 2.52378 11.8732 2.52378 10.6423C2.52378 10.1643 2.90365 9.77638 3.37169 9.77638C3.83974 9.77638 4.2196 10.1643 4.2196 10.6423C4.2196 12.365 3.49846 14.0115 2.24101 15.1601C2.07948 15.3082 1.87768 15.3809 1.6763 15.3809Z" fill="#333333"/>
<path d="M10.9937 24.245C8.23588 24.245 5.90625 21.8659 5.90625 19.0495C5.90625 18.5716 6.28611 18.1836 6.75416 18.1836C7.22221 18.1836 7.60207 18.5716 7.60207 19.0495C7.60207 20.9268 9.15502 22.5132 10.9937 22.5132C12.8324 22.5132 14.3854 20.9268 14.3854 19.0495C14.3854 18.5716 14.7652 18.1836 15.2333 18.1836C15.7013 18.1836 16.0812 18.5716 16.0812 19.0495C16.0812 21.8659 13.7515 24.245 10.9937 24.245Z" fill="#333333"/>
<path d="M3.36823 19.9157C1.97172 19.9157 0.740978 19.0372 0.232656 17.6778C-0.276938 16.3157 0.0664653 14.8211 1.10728 13.8708C1.45661 13.5522 1.99249 13.5825 2.30452 13.9392C2.61656 14.296 2.58645 14.8428 2.23754 15.1619C1.61602 15.7295 1.61263 16.5149 1.81655 17.0604C2.01963 17.6037 2.53431 18.1848 3.36823 18.1848C3.83627 18.1848 4.21614 18.5727 4.21614 19.0507C4.21614 19.5286 3.8367 19.9157 3.36823 19.9157Z" fill="#333333"/>
<path d="M18.6259 19.9154H3.36354C2.89549 19.9154 2.51562 19.5275 2.51562 19.0495C2.51562 18.5715 2.89549 18.1836 3.36354 18.1836H18.6259C19.094 18.1836 19.4738 18.5715 19.4738 19.0495C19.4738 19.5275 19.0944 19.9154 18.6259 19.9154Z" fill="#333333"/>
</svg>
