<svg width="20" height="20" viewBox="0 0 20 20" fill="none" xmlns="http://www.w3.org/2000/svg">
<g clip-path="url(#clip0_1_15834)">
<path d="M3.01905 20H16.9746C18.4376 20 19.6265 18.8111 19.6265 17.3481V4.13331C19.6265 2.67035 18.4376 1.48145 16.9746 1.48145H15.9228V0.740727C15.9228 0.333315 15.5894 0 15.182 0C14.7746 0 14.4412 0.333315 14.4412 0.740727V1.48145H5.5524V0.740727C5.5524 0.333315 5.21902 0 4.81161 0C4.4042 0 4.07088 0.333315 4.07088 0.740727V1.48145H3.01905C1.55609 1.48145 0.367188 2.67035 0.367188 4.13331V17.3481C0.367188 18.8111 1.55609 20 3.01905 20ZM1.8487 4.13331C1.8487 3.48889 2.37462 2.96297 3.01905 2.96297H4.07088V3.7037C4.07088 4.11111 4.4042 4.44442 4.81161 4.44442C5.21902 4.44442 5.55234 4.11111 5.55234 3.7037V2.96297H14.4412V3.7037C14.4412 4.11111 14.7746 4.44442 15.182 4.44442C15.5894 4.44442 15.9227 4.11111 15.9227 3.7037V2.96297H16.9745C17.619 2.96297 18.1449 3.48889 18.1449 4.13331V6.2963H1.8487V4.13331ZM1.8487 7.77776H18.145V17.3481C18.145 17.9926 17.6191 18.5185 16.9747 18.5185H3.01905C2.37462 18.5185 1.8487 17.9926 1.8487 17.3481V7.77776Z" fill="#F76809"/>
</g>
<defs>
<clipPath id="clip0_1_15834">
<rect width="20" height="20" fill="white"/>
</clipPath>
</defs>
</svg>
