<svg width="28" height="28" viewBox="0 0 28 28" fill="none" xmlns="http://www.w3.org/2000/svg">
<g clip-path="url(#clip0_1_18101)">
<path d="M24.5595 10.5H24.4475C24.2833 10.4985 24.1234 10.4477 23.9886 10.354C23.8537 10.2604 23.7502 10.1283 23.6915 9.975C23.6297 9.82695 23.6133 9.66387 23.6445 9.50649C23.6757 9.34912 23.7529 9.20457 23.8665 9.09125L23.9461 9.01163C24.4261 8.5298 24.6956 7.87741 24.6956 7.19731C24.6956 6.51721 24.4261 5.86482 23.9461 5.383L22.624 4.06175C22.1426 3.58139 21.4902 3.31163 20.8101 3.31163C20.13 3.31163 19.4777 3.58139 18.9963 4.06175L18.9166 4.14137C18.7993 4.25435 18.6516 4.33062 18.4915 4.36083C18.3315 4.39104 18.1661 4.37387 18.0157 4.31144C17.8653 4.249 17.7363 4.14401 17.6447 4.00935C17.5531 3.87469 17.5028 3.71622 17.5 3.55337V3.4405C17.4993 2.7603 17.2288 2.10816 16.7478 1.62719C16.2668 1.14621 15.6147 0.875695 14.9345 0.875H13.0655C12.3853 0.875695 11.7332 1.14621 11.2522 1.62719C10.7712 2.10816 10.5007 2.7603 10.5 3.4405V3.55337C10.4957 3.71505 10.4447 3.87202 10.3531 4.00528C10.2614 4.13855 10.1331 4.24239 9.98368 4.30424C9.83425 4.36609 9.67009 4.38329 9.51108 4.35376C9.35206 4.32424 9.20502 4.24925 9.08775 4.13788L9.0125 4.05825C8.53105 3.57789 7.87872 3.30812 7.19863 3.30812C6.51853 3.30812 5.8662 3.57789 5.38475 4.05825L4.05825 5.3795C3.57827 5.86132 3.30877 6.51371 3.30877 7.19381C3.30877 7.87391 3.57827 8.5263 4.05825 9.00813L4.13788 9.08775C4.25255 9.20507 4.3293 9.35416 4.35817 9.51565C4.38703 9.67715 4.36668 9.84359 4.29975 9.99337C4.23971 10.1426 4.13653 10.2705 4.00342 10.3607C3.87032 10.4509 3.71332 10.4994 3.5525 10.5H3.4405C2.7603 10.5007 2.10816 10.7712 1.62719 11.2522C1.14621 11.7332 0.875695 12.3853 0.875 13.0655V14.9345C0.875695 15.6147 1.14621 16.2668 1.62719 16.7478C2.10816 17.2288 2.7603 17.4993 3.4405 17.5H3.5525C3.71667 17.5015 3.87659 17.5523 4.01144 17.646C4.14628 17.7396 4.2498 17.8717 4.3085 18.025C4.3703 18.173 4.38666 18.3361 4.3555 18.4935C4.32434 18.6509 4.24706 18.7954 4.1335 18.9088L4.05387 18.9884C3.57389 19.4702 3.3044 20.1226 3.3044 20.8027C3.3044 21.4828 3.57389 22.1352 4.05387 22.617L5.37512 23.9374C5.8565 24.4182 6.50905 24.6883 7.18944 24.6883C7.86982 24.6883 8.52238 24.4182 9.00375 23.9374L9.08337 23.8577C9.20076 23.7432 9.34984 23.6665 9.51131 23.6376C9.67278 23.6088 9.8392 23.6291 9.989 23.6959C10.1382 23.7557 10.2661 23.8587 10.3564 23.9916C10.4466 24.1246 10.4951 24.2815 10.4956 24.4422V24.5551C10.4954 24.8927 10.5617 25.2269 10.6908 25.5388C10.8198 25.8507 11.0091 26.1341 11.2478 26.3728C11.4865 26.6115 11.7699 26.8008 12.0818 26.9298C12.3937 27.0589 12.728 27.1252 13.0655 27.125H14.9345C15.6147 27.1243 16.2668 26.8538 16.7478 26.3728C17.2288 25.8918 17.4993 25.2397 17.5 24.5595V24.4466C17.5043 24.285 17.5553 24.128 17.6469 23.9947C17.7386 23.8615 17.8669 23.7576 18.0163 23.6958C18.1658 23.6339 18.3299 23.6167 18.4889 23.6462C18.6479 23.6758 18.795 23.7508 18.9123 23.8621L18.9919 23.9417C19.4733 24.4221 20.1257 24.6919 20.8057 24.6919C21.4858 24.6919 22.1382 24.4221 22.6196 23.9417L23.9417 22.6214C24.4217 22.1396 24.6912 21.4872 24.6912 20.8071C24.6912 20.127 24.4217 19.4746 23.9417 18.9928L23.8621 18.9131C23.7475 18.7958 23.6707 18.6467 23.6418 18.4852C23.613 18.3237 23.6333 18.1573 23.7003 18.0075C23.7602 17.8581 23.8633 17.7301 23.9964 17.6397C24.1295 17.5493 24.2866 17.5006 24.4475 17.5H24.5595C25.2397 17.4993 25.8918 17.2288 26.3728 16.7478C26.8538 16.2668 27.1243 15.6147 27.125 14.9345V13.0655C27.1243 12.3853 26.8538 11.7332 26.3728 11.2522C25.8918 10.7712 25.2397 10.5007 24.5595 10.5ZM25.375 14.9345C25.3748 15.1507 25.2888 15.358 25.1359 15.5109C24.983 15.6638 24.7757 15.7498 24.5595 15.75H24.4475C23.9397 15.7543 23.4445 15.908 23.0235 16.1919C22.6024 16.4758 22.2743 16.8773 22.08 17.3465C21.8856 17.8156 21.8336 18.3315 21.9305 18.83C22.0274 19.3284 22.2689 19.7874 22.6249 20.1495L22.7036 20.2291C22.8564 20.3823 22.9422 20.5898 22.9422 20.8062C22.9422 21.0225 22.8564 21.2301 22.7036 21.3832L21.3815 22.7036C21.2286 22.8565 21.0211 22.9425 20.8049 22.9425C20.5886 22.9425 20.3812 22.8565 20.2283 22.7036L20.1495 22.624C19.7872 22.2685 19.3283 22.0273 18.83 21.9307C18.3317 21.834 17.8159 21.8861 17.347 22.0803C16.878 22.2746 16.4766 22.6025 16.1926 23.0233C15.9086 23.4441 15.7547 23.939 15.75 24.4466V24.5595C15.7498 24.7757 15.6638 24.983 15.5109 25.1359C15.358 25.2888 15.1507 25.3748 14.9345 25.375H13.0655C12.8493 25.3748 12.642 25.2888 12.4891 25.1359C12.3362 24.983 12.2502 24.7757 12.25 24.5595V24.4466C12.2475 23.938 12.0949 23.4415 11.8113 23.0192C11.5277 22.597 11.1257 22.268 10.6558 22.0734C10.1858 21.8788 9.66892 21.8274 9.16985 21.9255C8.67078 22.0236 8.2118 22.2669 7.8505 22.6249L7.77087 22.7045C7.61771 22.857 7.41038 22.9426 7.19425 22.9426C6.97812 22.9426 6.77079 22.857 6.61763 22.7045L5.29637 21.3841C5.14361 21.2309 5.05783 21.0234 5.05783 20.8071C5.05783 20.5907 5.14361 20.3832 5.29637 20.23L5.376 20.1504C5.7323 19.7882 5.97405 19.3292 6.07109 18.8305C6.16813 18.3318 6.11616 17.8156 5.92167 17.3462C5.72718 16.8769 5.39878 16.4752 4.97745 16.1914C4.55612 15.9075 4.06052 15.754 3.5525 15.75H3.4405C3.22429 15.7498 3.017 15.6638 2.86411 15.5109C2.71122 15.358 2.62523 15.1507 2.625 14.9345V13.0655C2.62523 12.8493 2.71122 12.642 2.86411 12.4891C3.017 12.3362 3.22429 12.2502 3.4405 12.25H3.5525C4.06027 12.2457 4.55554 12.092 4.97655 11.8081C5.39756 11.5242 5.7257 11.1227 5.92005 10.6535C6.1144 10.1844 6.16636 9.66846 6.06946 9.17001C5.97256 8.67155 5.73108 8.21264 5.37512 7.8505L5.29637 7.77087C5.14367 7.61783 5.0579 7.41045 5.0579 7.19425C5.0579 6.97805 5.14367 6.77067 5.29637 6.61763L6.61763 5.2955C6.77056 5.14258 6.97798 5.05667 7.19425 5.05667C7.41052 5.05667 7.61794 5.14258 7.77087 5.2955L7.84962 5.37512C8.21183 5.73091 8.6707 5.97226 9.16909 6.06913C9.66747 6.166 10.1833 6.11409 10.6524 5.91989C11.1215 5.72568 11.5231 5.39775 11.8072 4.97695C12.0913 4.55615 12.2453 4.06106 12.25 3.55337V3.4405C12.2502 3.22429 12.3362 3.017 12.4891 2.86411C12.642 2.71122 12.8493 2.62523 13.0655 2.625H14.9345C15.1507 2.62523 15.358 2.71122 15.5109 2.86411C15.6638 3.017 15.7498 3.22429 15.75 3.4405V3.55337C15.7545 4.06107 15.9083 4.55622 16.1923 4.9771C16.4762 5.39798 16.8778 5.72598 17.3469 5.92022C17.8159 6.11447 18.3318 6.16635 18.8302 6.06942C19.3286 5.97249 19.7874 5.73103 20.1495 5.37512L20.2291 5.2955C20.3821 5.14258 20.5895 5.05667 20.8057 5.05667C21.022 5.05667 21.2294 5.14258 21.3824 5.2955L22.7036 6.61763C22.8563 6.77067 22.9421 6.97805 22.9421 7.19425C22.9421 7.41045 22.8563 7.61783 22.7036 7.77087L22.624 7.8505C22.268 8.2127 22.0265 8.67168 21.9296 9.17022C21.8328 9.66876 21.8848 10.1848 22.0793 10.6539C22.2737 11.1231 22.602 11.5246 23.0231 11.8085C23.4443 12.0923 23.9397 12.2458 24.4475 12.25H24.5595C24.7757 12.2502 24.983 12.3362 25.1359 12.4891C25.2888 12.642 25.3748 12.8493 25.375 13.0655V14.9345Z" fill="white"/>
<path d="M14 7.875C12.7886 7.875 11.6044 8.23422 10.5971 8.90725C9.58988 9.58027 8.80483 10.5369 8.34124 11.6561C7.87765 12.7753 7.75636 14.0068 7.99269 15.1949C8.22903 16.3831 8.81238 17.4744 9.66897 18.331C10.5256 19.1876 11.6169 19.771 12.8051 20.0073C13.9932 20.2436 15.2247 20.1223 16.3439 19.6588C17.4631 19.1952 18.4197 18.4101 19.0928 17.4029C19.7658 16.3956 20.125 15.2114 20.125 14C20.1231 12.3761 19.4772 10.8193 18.329 9.67102C17.1807 8.52276 15.6239 7.87685 14 7.875ZM14 18.375C13.1347 18.375 12.2888 18.1184 11.5694 17.6377C10.8499 17.1569 10.2892 16.4737 9.95803 15.6742C9.6269 14.8748 9.54026 13.9951 9.70907 13.1465C9.87788 12.2978 10.2946 11.5183 10.9064 10.9064C11.5183 10.2946 12.2978 9.87787 13.1465 9.70906C13.9951 9.54025 14.8748 9.62689 15.6742 9.95803C16.4737 10.2892 17.157 10.8499 17.6377 11.5694C18.1184 12.2888 18.375 13.1347 18.375 14C18.3736 15.1599 17.9122 16.2719 17.0921 17.0921C16.2719 17.9122 15.1599 18.3736 14 18.375Z" fill="white"/>
</g>
<defs>
<clipPath id="clip0_1_18101">
<rect width="28" height="28" fill="white"/>
</clipPath>
</defs>
</svg>
