<svg width="35" height="38" viewBox="0 0 35 38" fill="none" xmlns="http://www.w3.org/2000/svg">
<path fill-rule="evenodd" clip-rule="evenodd" d="M26.6047 12.0334C23.8064 12.0334 21.538 9.76497 21.538 6.96671V2.53336H10.138C8.03935 2.53336 6.33802 4.23468 6.33802 6.33337V18.3667C6.33802 19.0663 5.77094 19.6334 5.07136 19.6334C4.37177 19.6334 3.80469 19.0663 3.80469 18.3667V6.33337C3.80469 2.83556 6.64025 2.41703e-05 10.138 2.41703e-05H22.3976C22.4661 2.41703e-05 22.5341 0.00557848 22.601 0.0164592C22.9832 -0.0458229 23.3801 0.0698872 23.671 0.342613L33.8044 9.84261C33.8281 9.86484 33.8507 9.88783 33.8725 9.91152C33.9865 10.036 34.0725 10.1799 34.1285 10.3337C34.1576 10.4139 34.1786 10.4969 34.1911 10.5813C34.2007 10.6462 34.2053 10.712 34.2047 10.7779V31.6667C34.2047 35.1645 31.3691 38.0001 27.8714 38.0001H13.3047C12.6051 38.0001 12.038 37.433 12.038 36.7334C12.038 36.0338 12.6051 35.4667 13.3047 35.4667H27.8714C29.9701 35.4667 31.6714 33.7654 31.6714 31.6667V12.0334H26.6047ZM29.6407 9.50004L24.0714 4.48046V6.96671C24.0714 8.36581 25.2056 9.50004 26.6047 9.50004H29.6407Z" fill="#111111"/>
<path fill-rule="evenodd" clip-rule="evenodd" d="M10.1018 20.6192C9.9707 20.0426 9.45802 19.6334 8.86667 19.6334C8.27533 19.6334 7.76265 20.0426 7.63155 20.6192L6.9307 23.7012C6.60656 25.1268 5.49341 26.24 4.06784 26.5641L0.985809 27.2649C0.409178 27.396 0 27.9087 0 28.5001C0 29.0914 0.409178 29.6041 0.985809 29.7352L4.06784 30.436C5.49341 30.7602 6.60656 31.8733 6.9307 33.2988L7.63155 36.3809C7.76265 36.9575 8.27533 37.3667 8.86667 37.3667C9.45802 37.3667 9.9707 36.9575 10.1018 36.3809L10.8026 33.2988C11.1268 31.8733 12.2399 30.7602 13.6655 30.436L16.7476 29.7352C17.3242 29.6041 17.7333 29.0914 17.7333 28.5001C17.7333 27.9087 17.3242 27.396 16.7476 27.2649L13.6655 26.5641C12.2399 26.24 11.1268 25.1268 10.8026 23.7012L10.1018 20.6192ZM6.10432 28.5001C7.29233 27.8937 8.26038 26.9257 8.86667 25.7377C9.47296 26.9257 10.441 27.8937 11.629 28.5001C10.441 29.1064 9.47296 30.0744 8.86667 31.2624C8.26038 30.0744 7.29233 29.1064 6.10432 28.5001Z" fill="#111111"/>
</svg>
