<svg width="31" height="36" viewBox="0 0 31 36" fill="none" xmlns="http://www.w3.org/2000/svg">
<path d="M11.5278 17.6185C13.5436 17.6256 15.5009 16.9412 17.073 15.6794C18.6451 14.4176 19.7369 12.6548 20.1662 10.6852C20.5955 8.71563 20.3362 6.65838 19.4318 4.85684C18.5273 3.05529 17.0323 1.61844 15.1964 0.786108C13.3604 -0.0462292 11.2945 -0.223701 9.34343 0.283312C7.39239 0.790325 5.67425 1.95115 4.47579 3.57204C3.27732 5.19294 2.67102 7.17584 2.75809 9.1898C2.84516 11.2038 3.62032 13.1269 4.9542 14.6384L0.167487 19.4251C0.115089 19.4757 0.0732931 19.5362 0.0445405 19.6031C0.0157878 19.6701 0.000653721 19.7421 2.07139e-05 19.8149C-0.000612293 19.8878 0.0132689 19.96 0.040854 20.0274C0.0684391 20.0948 0.109176 20.1561 0.160687 20.2076C0.212199 20.2591 0.273453 20.2999 0.340876 20.3274C0.4083 20.355 0.480542 20.3689 0.553387 20.3683C0.626232 20.3676 0.698222 20.3525 0.765156 20.3238C0.83209 20.295 0.892627 20.2532 0.943236 20.2008L5.72995 15.4141C7.32765 16.8337 9.39051 17.618 11.5278 17.6185ZM11.5278 1.15986C13.0469 1.15986 14.5318 1.61032 15.7949 2.45428C17.058 3.29825 18.0425 4.49781 18.6238 5.90127C19.2051 7.30473 19.3572 8.84906 19.0609 10.339C18.7645 11.8289 18.033 13.1974 16.9588 14.2716C15.8847 15.3458 14.5161 16.0773 13.0262 16.3736C11.5363 16.67 9.99195 16.5179 8.58849 15.9366C7.18503 15.3552 5.98547 14.3708 5.14151 13.1077C4.29755 11.8446 3.84708 10.3596 3.84708 8.84054C3.84926 6.80416 4.65917 4.85182 6.09911 3.41188C7.53904 1.97195 9.49139 1.16203 11.5278 1.15986Z" fill="white"/>
<path d="M11.5288 3.35417C11.6743 3.35417 11.8138 3.29637 11.9167 3.19348C12.0196 3.09059 12.0774 2.95105 12.0774 2.80555C12.0774 2.66004 12.0196 2.5205 11.9167 2.41761C11.8138 2.31473 11.6743 2.25693 11.5288 2.25693C9.7833 2.25882 8.10987 2.95303 6.87564 4.18726C5.64142 5.42148 4.9472 7.09491 4.94531 8.84037C4.94531 8.98587 5.00311 9.12542 5.106 9.2283C5.20889 9.33119 5.34843 9.38899 5.49393 9.38899C5.63944 9.38899 5.77898 9.33119 5.88187 9.2283C5.98475 9.12542 6.04255 8.98587 6.04255 8.84037C6.04415 7.38583 6.62267 5.99132 7.65119 4.9628C8.6797 3.93429 10.0742 3.35576 11.5288 3.35417Z" fill="white"/>
<path d="M29.0855 31.8825H27.9883V8.29188C27.9883 8.14637 27.9305 8.00683 27.8276 7.90394C27.7247 7.80106 27.5851 7.74326 27.4396 7.74326H23.0507C22.9052 7.74326 22.7656 7.80106 22.6628 7.90394C22.5599 8.00683 22.5021 8.14637 22.5021 8.29188V31.8825H19.2103V19.8129C19.2103 19.6674 19.1525 19.5279 19.0497 19.425C18.9468 19.3221 18.8072 19.2643 18.6617 19.2643H14.2728C14.1273 19.2643 13.9877 19.3221 13.8848 19.425C13.7819 19.5279 13.7241 19.6674 13.7241 19.8129V31.8825H10.4324V23.6532C10.4324 23.5077 10.3746 23.3682 10.2717 23.2653C10.1689 23.1624 10.0293 23.1046 9.88381 23.1046H5.49485C5.34934 23.1046 5.2098 23.1624 5.10691 23.2653C5.00403 23.3682 4.94623 23.5077 4.94623 23.6532V31.8825H3.84899C3.41248 31.8825 2.99384 32.0559 2.68519 32.3646C2.37653 32.6733 2.20312 33.0919 2.20312 33.5284C2.20312 33.9649 2.37653 34.3835 2.68519 34.6922C2.99384 35.0009 3.41248 35.1743 3.84899 35.1743H29.0855C29.522 35.1743 29.9406 35.0009 30.2493 34.6922C30.558 34.3835 30.7314 33.9649 30.7314 33.5284C30.7314 33.0919 30.558 32.6733 30.2493 32.3646C29.9406 32.0559 29.522 31.8825 29.0855 31.8825ZM23.5993 8.8405H26.891V31.8825H23.5993V8.8405ZM14.8214 20.3615H18.1131V31.8825H14.8214V20.3615ZM6.04347 24.2019H9.33519V31.8825H6.04347V24.2019ZM29.0855 34.077H3.84899C3.70348 34.077 3.56394 34.0192 3.46105 33.9163C3.35817 33.8134 3.30037 33.6739 3.30037 33.5284C3.30037 33.3829 3.35817 33.2434 3.46105 33.1405C3.56394 33.0376 3.70348 32.9798 3.84899 32.9798H29.0855C29.231 32.9798 29.3706 33.0376 29.4734 33.1405C29.5763 33.2434 29.6341 33.3829 29.6341 33.5284C29.6341 33.6739 29.5763 33.8134 29.4734 33.9163C29.3706 34.0192 29.231 34.077 29.0855 34.077Z" fill="white"/>
</svg>
