<svg width="28" height="31" viewBox="0 0 28 31" fill="none" xmlns="http://www.w3.org/2000/svg">
<path d="M25.1591 19.6475V10.8531C26.0936 10.6392 26.7932 9.80139 26.7932 8.80301C26.7932 7.64234 25.8499 6.69786 24.6898 6.69786C24.0822 6.69786 23.5344 6.95742 23.15 7.37107L19.3411 5.171L15.5333 2.97269C15.5936 2.777 15.6264 2.569 15.6264 2.35339C15.6264 1.1933 14.6831 0.25 13.523 0.25C12.3624 0.25 11.4179 1.1933 11.4179 2.35339C11.4179 2.569 11.4507 2.77641 11.5111 2.97269L7.70327 5.171L3.8949 7.37048C3.51055 6.95683 2.96215 6.69786 2.35398 6.69786C1.19389 6.69786 0.250586 7.64234 0.250586 8.80301C0.250586 9.80139 0.950154 10.6392 1.88467 10.8531V19.6475C0.949568 19.8613 0.25 20.6992 0.25 21.6976C0.25 22.8577 1.1933 23.801 2.35339 23.801C2.96156 23.801 3.50997 23.5414 3.89432 23.1283L7.70269 25.3278L11.5105 27.5261C11.4501 27.7218 11.4173 27.9298 11.4173 28.1448C11.4173 29.3055 12.3618 30.25 13.5225 30.25C14.6826 30.25 15.6259 29.3055 15.6259 28.1448C15.6259 27.9292 15.593 27.7218 15.5327 27.5255L19.3411 25.3278L23.15 23.1283C23.5344 23.542 24.0828 23.8015 24.6904 23.8015C25.8505 23.8015 26.7938 22.8582 26.7938 21.6982C26.7938 20.6992 26.0942 19.8613 25.1591 19.6475ZM23.15 20.2674L18.5343 17.6021V15.2655V15.2649V15.2644V12.8979L23.1494 10.2338C23.4318 10.5379 23.8027 10.7582 24.2205 10.8537V19.6481C23.8027 19.743 23.4318 19.9633 23.15 20.2674ZM13.5225 20.1391C11.19 20.1391 9.44751 19.2409 9.44751 18.4376V16.834C9.64027 16.974 9.85998 17.1041 10.1072 17.2219C11.0271 17.6613 12.2399 17.9033 13.5225 17.9033C14.805 17.9033 16.0172 17.6613 16.9371 17.2219C17.1838 17.1041 17.4035 16.974 17.5957 16.8346V18.4376C17.5957 19.2409 15.8538 20.1391 13.5225 20.1391ZM3.8949 20.2668C3.6125 19.9633 3.24104 19.743 2.8227 19.6475V10.8531C3.24104 10.7576 3.61191 10.5373 3.8949 10.2338L8.50948 12.8973V15.2638V15.2644V15.2649V17.6015L3.8949 20.2668ZM13.5225 10.3615C15.8538 10.3615 17.5957 11.2597 17.5957 12.063C17.5957 12.8657 15.8538 13.7627 13.5225 13.7627C11.19 13.7627 9.44751 12.8651 9.44751 12.063C9.44809 11.2597 11.1906 10.3615 13.5225 10.3615ZM9.44809 13.6303C9.64086 13.7703 9.86233 13.9004 10.1102 14.0187C11.0318 14.4587 12.244 14.7013 13.523 14.7013C14.8015 14.7013 16.0126 14.4587 16.9342 14.0187C17.182 13.9004 17.4029 13.7703 17.5962 13.6303V15.2638C17.5962 16.067 15.8544 16.9652 13.523 16.9652C11.1906 16.9652 9.44809 16.067 9.44809 15.2638V13.6303ZM24.6904 7.63648C25.3325 7.63648 25.8557 8.15969 25.8557 8.80301C25.8557 9.44516 25.3331 9.96779 24.6904 9.96779C24.0476 9.96779 23.525 9.44516 23.525 8.80301C23.525 8.15969 24.0476 7.63648 24.6904 7.63648ZM18.8718 5.98365L22.6795 8.18313C22.6192 8.37941 22.5864 8.5874 22.5864 8.80301C22.5864 9.01804 22.6192 9.22545 22.679 9.42114L18.5149 11.8245C18.4095 11.1507 17.8576 10.5472 16.9336 10.1061C16.1256 9.71995 15.095 9.48618 13.9912 9.43462V4.40581C14.4089 4.31031 14.7804 4.08942 15.0622 3.78534L18.8718 5.98365ZM13.5225 1.18862C14.1646 1.18862 14.6878 1.71124 14.6878 2.35339C14.6878 2.99671 14.1652 3.51993 13.5225 3.51993C12.8791 3.51993 12.3559 2.99671 12.3559 2.35339C12.3559 1.71124 12.8791 1.18862 13.5225 1.18862ZM8.172 5.98423L11.981 3.78534C12.2639 4.08942 12.6348 4.31031 13.0537 4.40581V9.43462C11.9499 9.48618 10.9181 9.72054 10.1102 10.1061C9.1862 10.5472 8.63427 11.1513 8.52881 11.8245L4.36597 9.42173C4.42632 9.22604 4.45913 9.01804 4.45913 8.80301C4.45913 8.58682 4.42632 8.37882 4.36538 8.18254L8.172 5.98423ZM1.18862 8.80301C1.18862 8.15969 1.71124 7.63648 2.35398 7.63648C2.9973 7.63648 3.52051 8.15969 3.52051 8.80301C3.52051 9.44516 2.9973 9.96779 2.35398 9.96779C1.71124 9.96779 1.18862 9.44516 1.18862 8.80301ZM2.35339 22.8629C1.71124 22.8629 1.18803 22.3403 1.18803 21.6982C1.18803 21.056 1.71066 20.5334 2.35339 20.5334C2.99671 20.5334 3.51993 21.056 3.51993 21.6982C3.51993 22.3403 2.99671 22.8629 2.35339 22.8629ZM8.172 24.5152L4.36538 22.3169C4.42573 22.1212 4.45854 21.9132 4.45854 21.6976C4.45854 21.482 4.42573 21.2745 4.36538 21.0783L8.52881 18.6737C8.6331 19.3493 9.18327 19.9539 10.1072 20.3957C10.914 20.7812 11.9464 21.0144 13.0532 21.066V26.0948C12.6348 26.1903 12.2639 26.4106 11.981 26.7141L8.172 24.5152ZM13.5225 29.312C12.8791 29.312 12.3559 28.7888 12.3559 28.1454C12.3559 27.5033 12.8791 26.9807 13.5225 26.9807C14.1646 26.9807 14.6878 27.5033 14.6878 28.1454C14.6878 28.7882 14.1652 29.312 13.5225 29.312ZM18.8718 24.5152L15.0622 26.7141C14.7798 26.4106 14.4095 26.1903 13.9918 26.0948V21.066C15.0985 21.0144 16.1303 20.7806 16.9371 20.3957C17.8605 19.9545 18.4101 19.3499 18.5144 18.6743L22.679 21.0794C22.6186 21.2751 22.5858 21.4825 22.5858 21.6976C22.5858 21.9126 22.6186 22.12 22.679 22.3157L18.8718 24.5152ZM24.6904 22.8629C24.0482 22.8629 23.525 22.3403 23.525 21.6982C23.525 21.056 24.0476 20.5334 24.6904 20.5334C25.3331 20.5334 25.8557 21.056 25.8557 21.6982C25.8557 22.3403 25.3325 22.8629 24.6904 22.8629Z" fill="white" stroke="white" stroke-width="0.5"/>
</svg>
