<svg width="27" height="40" viewBox="0 0 27 40" fill="none" xmlns="http://www.w3.org/2000/svg">
<path d="M13.3672 18.8714V9.19922" stroke="#111111" stroke-width="1.6596" stroke-linecap="round" stroke-linejoin="round"/>
<path d="M17.611 14.6244L13.3641 18.8713L9.11719 14.6244" stroke="#111111" stroke-width="1.6596" stroke-linecap="round" stroke-linejoin="round"/>
<path d="M15.8538 3.31917C15.8538 1.94432 14.7393 0.829773 13.3644 0.829773C11.9895 0.829773 10.875 1.94432 10.875 3.31917C10.875 4.69403 11.9895 5.80858 13.3644 5.80858C14.7393 5.80858 15.8538 4.69403 15.8538 3.31917Z" stroke="#111111" stroke-width="1.6596" stroke-linecap="round" stroke-linejoin="round"/>
<path d="M25.7922 21.4749C25.6463 22.7569 21.1795 25.7604 13.2489 25.7604C5.31837 25.7604 0.987796 22.8266 0.841751 21.5448C0.835944 21.5217 0.831396 21.4984 0.828125 21.4749" stroke="#111111" stroke-width="1.6596" stroke-linecap="round" stroke-linejoin="round"/>
<path d="M25.7922 27.7127C25.6463 28.9947 21.1795 31.9984 13.2489 31.9984C5.31837 31.9984 0.987796 29.0646 0.841751 27.7825C0.835929 27.7595 0.83138 27.7362 0.828125 27.7127" stroke="#111111" stroke-width="1.6596" stroke-linecap="round" stroke-linejoin="round"/>
<path d="M5.531 17.4003C2.78382 18.2146 0.828125 19.5364 0.828125 21.4317L0.830349 21.4517L0.828125 21.475V33.9395C0.828148 34.0777 0.851506 34.2149 0.897214 34.3453C1.60789 37.3824 7.66122 38.7735 13.3102 38.7735C18.9591 38.7735 25.0126 37.3824 25.7232 34.3453C25.7689 34.2149 25.7923 34.0777 25.7922 33.9395V21.4749L25.7901 21.4517L25.7922 21.4316C25.7922 19.5423 23.8496 18.2225 21.1163 17.4075" stroke="#111111" stroke-width="1.6596" stroke-linecap="round" stroke-linejoin="round"/>
</svg>
