<svg width="20" height="23" viewBox="0 0 20 23" fill="none" xmlns="http://www.w3.org/2000/svg">
<path d="M5.75 15C5.33579 15 5 15.3358 5 15.75C5 16.1642 5.33579 16.5 5.75 16.5H13.75C14.1642 16.5 14.5 16.1642 14.5 15.75C14.5 15.3358 14.1642 15 13.75 15H5.75Z" fill="#333333"/>
<path fill-rule="evenodd" clip-rule="evenodd" d="M9.58822 1.6278e-05C7.88194 -0.000252241 6.84073 -0.00041604 5.97321 0.281458C4.22269 0.850236 2.85026 2.22267 2.28148 3.97319C2.2552 4.05408 2.23146 4.13585 2.21002 4.21892C1.78779 4.54879 1.41348 4.93626 1.09815 5.37027C0.512324 6.17659 0.250006 7.12097 0.123728 8.28651C-1.45286e-05 9.42865 -8.0335e-06 10.8682 1.32337e-07 12.7048V12.7953C-8.0335e-06 14.6318 -1.45286e-05 16.0714 0.123728 17.2136C0.250006 18.3791 0.512324 19.3235 1.09815 20.1298C1.45281 20.6179 1.88209 21.0472 2.37024 21.4019C3.17656 21.9877 4.12094 22.25 5.28648 22.3763C6.42859 22.5 7.86817 22.5 9.70465 22.5H9.79527C11.6318 22.5 13.0714 22.5 14.2135 22.3763C15.3791 22.25 16.3234 21.9877 17.1298 21.4019C17.6179 21.0472 18.0472 20.6179 18.4018 20.1298C18.9877 19.3235 19.25 18.3791 19.3763 17.2136C19.5 16.0714 19.5 14.6319 19.5 12.7954V12.7048C19.5 10.8683 19.5 9.42863 19.3763 8.28651C19.25 7.12097 18.9877 6.17659 18.4018 5.37027C18.0866 4.93631 17.7123 4.54887 17.2901 4.21903C17.2687 4.13592 17.2449 4.05411 17.2186 3.97319C16.6499 2.22267 15.2774 0.850236 13.5269 0.281458C12.6594 -0.00041604 11.6182 -0.000252241 9.91189 1.6278e-05H9.58822ZM5.34818 3.11722C4.97439 3.15594 4.62305 3.20814 4.29152 3.27994C4.81367 2.54896 5.56122 1.99251 6.43673 1.70804C7.04844 1.50929 7.8304 1.50003 9.75005 1.50003C11.6697 1.50003 12.4517 1.50929 13.0634 1.70804C13.9389 1.99252 14.6865 2.54898 15.2086 3.27997C14.8771 3.20816 14.5257 3.15595 14.1519 3.11723C13.0203 3.00002 11.5987 3.00003 9.79283 3.00003H9.70718C7.90135 3.00003 6.47979 3.00002 5.34818 3.11722ZM3.30694 5.27272C3.8152 4.92163 4.46896 4.71631 5.50271 4.60924C6.54808 4.50097 7.89216 4.50003 9.75 4.50003C11.6079 4.50003 12.952 4.50097 13.9974 4.60925C15.0311 4.71633 15.6849 4.92166 16.1932 5.27279C16.1955 5.27438 16.1978 5.27598 16.2001 5.27758C16.2162 5.28877 16.2322 5.30015 16.2481 5.31171C16.6089 5.57385 16.9262 5.89114 17.1883 6.25195C17.5574 6.75995 17.7725 7.41017 17.885 8.44808C17.999 9.50003 18 10.8585 18 12.75C18 14.6416 17.999 16 17.885 17.052C17.7725 18.0899 17.5574 18.7401 17.1883 19.2481C16.9262 19.6089 16.6089 19.9262 16.2481 20.1884C15.7401 20.5574 15.0899 20.7726 14.052 20.885C13 20.999 11.6416 21 9.75 21C7.85843 21 6.49999 20.999 5.44804 20.885C4.41013 20.7726 3.75992 20.5574 3.25191 20.1884C2.89111 19.9262 2.57382 19.6089 2.31168 19.2481C1.94259 18.7401 1.72745 18.0899 1.615 17.052C1.50103 16 1.5 14.6416 1.5 12.75C1.5 10.8585 1.50103 9.50003 1.615 8.44808C1.72745 7.41017 1.94259 6.75995 2.31168 6.25195C2.57382 5.89114 2.89111 5.57385 3.25191 5.31171C3.27013 5.29847 3.28847 5.28548 3.30694 5.27272Z" fill="#333333"/>
</svg>
