<svg width="38" height="31" viewBox="0 0 38 31" fill="none" xmlns="http://www.w3.org/2000/svg">
<path fill-rule="evenodd" clip-rule="evenodd" d="M1.07692 6.5228V28.6092C1.07692 29.3324 1.66077 29.9186 2.38092 29.9186H31.9945C32.7146 29.9186 33.2985 29.3324 33.2985 28.6092V21.8616C33.2985 21.5632 33.5398 21.3209 33.8369 21.3209C34.1342 21.3209 34.3754 21.5632 34.3754 21.8616V28.6092C34.3754 29.9296 33.3094 31 31.9945 31H2.38092C1.066 31 0 29.9296 0 28.6092V2.39082C0 1.0704 1.066 0 2.38092 0H31.9945C33.3094 0 34.3754 1.0704 34.3754 2.39082V5.98212C34.3754 6.28058 34.1342 6.5228 33.8369 6.5228H1.07692ZM33.2985 5.44144V2.39082C33.2985 1.66762 32.7146 1.08137 31.9945 1.08137H2.38092C1.66077 1.08137 1.07692 1.66762 1.07692 2.39082V5.44144H33.2985ZM30.6817 4.22691C30.1511 4.22691 29.7202 3.79428 29.7202 3.2614C29.7202 2.72852 30.1511 2.2959 30.6817 2.2959C31.2124 2.2959 31.6432 2.72852 31.6432 3.2614C31.6432 3.79428 31.2124 4.22691 30.6817 4.22691ZM22.2785 4.22691C21.7478 4.22691 21.317 3.79428 21.317 3.2614C21.317 2.72852 21.7478 2.2959 22.2785 2.2959C22.8092 2.2959 23.2401 2.72852 23.2401 3.2614C23.2401 3.79428 22.8092 4.22691 22.2785 4.22691ZM26.4802 4.22691C25.9495 4.22691 25.5186 3.79428 25.5186 3.2614C25.5186 2.72852 25.9495 2.2959 26.4802 2.2959C27.0108 2.2959 27.4417 2.72852 27.4417 3.2614C27.4417 3.79428 27.0108 4.22691 26.4802 4.22691ZM30.9518 27.7456H3.95177C3.65439 27.7456 3.41331 27.5035 3.41331 27.2049V23.3958C3.41331 23.0974 3.65462 22.8551 3.95177 22.8551C4.249 22.8551 4.49023 23.0974 4.49023 23.3958V26.6642H6.382V18.4535C6.382 18.2209 6.474 17.9978 6.63777 17.8334C6.80154 17.6689 7.02362 17.5766 7.25523 17.5766H9.60292C9.83446 17.5766 10.0566 17.6689 10.2204 17.8334C10.3842 17.9978 10.4762 18.2209 10.4762 18.4535V26.6642H12.5115V13.1883C12.5115 12.9557 12.6035 12.7327 12.7673 12.5683C12.9311 12.4038 13.1532 12.3115 13.3848 12.3115H15.7325C15.9641 12.3115 16.1862 12.4038 16.3499 12.5683C16.5137 12.7327 16.6057 12.9557 16.6057 13.1883V26.6642H18.6411V15.2533C18.6411 14.7691 19.0321 14.3765 19.5143 14.3765H21.862C22.3443 14.3765 22.7352 14.7691 22.7352 15.2533V26.6642H24.7706V21.0855C24.7706 20.787 25.0119 20.5448 25.3091 20.5448C25.6063 20.5448 25.8475 20.787 25.8475 21.0855V26.6642H27.7878V22.6608C27.7878 22.3624 28.0292 22.1201 28.3263 22.1201C28.6235 22.1201 28.8648 22.3624 28.8648 22.6608V26.6642H30.9518C31.249 26.6642 31.4902 26.9064 31.4902 27.2049C31.4902 27.5032 31.249 27.7456 30.9518 27.7456ZM7.45892 26.6642H9.39923V18.6579H7.45892V26.6642ZM13.5885 26.6642H15.5288V13.3928H13.5885V26.6642ZM19.718 26.6642H21.6583V15.4579H19.718V26.6642ZM36.2305 15.3502C36.2305 18.7706 33.469 21.5443 30.0618 21.5443C26.6554 21.5443 23.8931 18.7706 23.8931 15.3502C23.8931 11.9289 26.6554 9.15601 30.0618 9.15601C30.3592 9.15601 30.6002 9.39808 30.6002 9.69669V14.8095H35.692C35.9894 14.8095 36.2305 15.0515 36.2305 15.3502ZM35.1254 15.8908H30.0618C29.7644 15.8908 29.5233 15.6488 29.5233 15.3502V10.2656C26.9646 10.5357 24.97 12.7088 24.97 15.3502C24.97 18.1734 27.2501 20.4629 30.0618 20.4629C32.6922 20.4629 34.8565 18.4601 35.1254 15.8908ZM31.8313 7.37917C35.2385 7.37917 38 10.152 38 13.5733C38 13.8719 37.7589 14.114 37.4615 14.114H31.8313C31.5339 14.114 31.2928 13.8719 31.2928 13.5733V7.91985C31.2928 7.62124 31.5339 7.37917 31.8313 7.37917ZM32.3698 8.48881V13.0326H36.8949C36.6446 10.6406 34.752 8.74015 32.3698 8.48881Z" fill="#111111"/>
</svg>
