<svg width="41" height="37" viewBox="0 0 41 37" fill="none" xmlns="http://www.w3.org/2000/svg">
<path d="M27.7578 0.75H28.7506C29.2666 0.75 29.6849 1.16828 29.6849 1.68422V6.07633" stroke="#111111" stroke-width="1.5" stroke-miterlimit="10" stroke-linecap="round" stroke-linejoin="round"/>
<path d="M10.625 3.31898V1.68422C10.625 1.16828 11.0433 0.75 11.5592 0.75H25.0781" stroke="#111111" stroke-width="1.5" stroke-miterlimit="10" stroke-linecap="round" stroke-linejoin="round"/>
<path d="M5.90625 26.9219V23.4621H34.4219V26.9219" stroke="#111111" stroke-width="1.5" stroke-miterlimit="10" stroke-linecap="round" stroke-linejoin="round"/>
<path d="M20.1562 20.1983V26.9219" stroke="#111111" stroke-width="1.5" stroke-miterlimit="10" stroke-linecap="round" stroke-linejoin="round"/>
<path d="M31.6406 7.09117V19.0183C31.6406 19.5216 31.2326 19.9298 30.7291 19.9298H9.58336C9.08 19.9298 8.67188 19.5217 8.67188 19.0183V4.43492C8.67188 3.93156 9.07992 3.52344 9.58336 3.52344H14.3811C14.702 3.52344 14.9992 3.69219 15.1637 3.96766L16.2196 5.73625C16.3838 6.01125 16.6805 6.17969 17.0008 6.17969H30.7291C31.2326 6.17969 31.6406 6.58773 31.6406 7.09117Z" stroke="#111111" stroke-width="1.5" stroke-miterlimit="10" stroke-linecap="round" stroke-linejoin="round"/>
<path d="M22.4766 9.44492V16.6644C22.4766 17.1733 22.8891 17.5859 23.398 17.5859H28.3769C28.8858 17.5859 29.2984 17.1733 29.2984 16.6644V9.44492C29.2984 8.93602 28.8858 8.52344 28.3769 8.52344H23.398C22.8891 8.52344 22.4766 8.93602 22.4766 9.44492Z" stroke="#111111" stroke-width="1.5" stroke-miterlimit="10" stroke-linecap="round" stroke-linejoin="round"/>
<path d="M17.4766 11.8047H13.1016C12.4544 11.8047 11.9297 11.28 11.9297 10.6328C11.9297 9.98562 12.4544 9.46094 13.1016 9.46094H17.4766C18.1238 9.46094 18.6484 9.98562 18.6484 10.6328C18.6484 11.28 18.1238 11.8047 17.4766 11.8047Z" stroke="#111111" stroke-width="1.5" stroke-miterlimit="10" stroke-linecap="round" stroke-linejoin="round"/>
<path d="M17.4766 16.5236H13.1016C12.4544 16.5236 11.9297 15.9989 11.9297 15.3517C11.9297 14.7045 12.4544 14.1798 13.1016 14.1798H17.4766C18.1238 14.1798 18.6484 14.7045 18.6484 15.3517C18.6484 15.9989 18.1238 16.5236 17.4766 16.5236Z" stroke="#111111" stroke-width="1.5" stroke-miterlimit="10" stroke-linecap="round" stroke-linejoin="round"/>
<path d="M2.63281 26.9219H7.87773C8.59102 26.9219 9.16922 27.5001 9.16922 28.2134V29.3092" stroke="#111111" stroke-width="1.5" stroke-miterlimit="10" stroke-linecap="round" stroke-linejoin="round"/>
<path d="M3.23695 35.4375H1.65875C1.15688 35.4375 0.75 35.0326 0.75 34.533V27.8263C0.75 27.3268 1.15688 26.9219 1.65875 26.9219H3.29414C3.61406 26.9219 3.91039 27.0893 4.07445 27.3627L5.12734 29.1177C5.29109 29.3905 5.58688 29.5577 5.90625 29.5577H10.1537C10.6556 29.5577 11.0625 29.9626 11.0625 30.4621V34.533C11.0625 35.0325 10.6556 35.4374 10.1537 35.4374H5.90625" stroke="#111111" stroke-width="1.5" stroke-miterlimit="10" stroke-linecap="round" stroke-linejoin="round"/>
<path d="M16.8906 26.9219H22.1355C22.8488 26.9219 23.427 27.5001 23.427 28.2134V29.3092" stroke="#111111" stroke-width="1.5" stroke-miterlimit="10" stroke-linecap="round" stroke-linejoin="round"/>
<path d="M25.3125 30.4622V34.533C25.3125 35.0326 24.9056 35.4375 24.4038 35.4375H15.9088C15.4069 35.4375 15 35.0326 15 34.533V27.8263C15 27.3268 15.4069 26.9219 15.9088 26.9219H17.5441C17.8641 26.9219 18.1604 27.0893 18.3245 27.3627L19.3773 29.1177C19.5411 29.3905 19.8369 29.5577 20.1562 29.5577H24.4038C24.9056 29.5577 25.3125 29.9627 25.3125 30.4622Z" stroke="#111111" stroke-width="1.5" stroke-miterlimit="10" stroke-linecap="round" stroke-linejoin="round"/>
<path d="M31.1484 26.9219H36.3934C37.1066 26.9219 37.6848 27.5001 37.6848 28.2134V29.3092" stroke="#111111" stroke-width="1.5" stroke-miterlimit="10" stroke-linecap="round" stroke-linejoin="round"/>
<path d="M39.5625 30.4622V34.533C39.5625 35.0326 39.1556 35.4375 38.6538 35.4375H30.1587C29.6569 35.4375 29.25 35.0326 29.25 34.533V27.8263C29.25 27.3268 29.6569 26.9219 30.1587 26.9219H31.7941C32.1141 26.9219 32.4104 27.0893 32.5745 27.3627L33.6273 29.1177C33.7911 29.3905 34.0869 29.5577 34.4062 29.5577H38.6538C39.1556 29.5577 39.5625 29.9627 39.5625 30.4622Z" stroke="#111111" stroke-width="1.5" stroke-miterlimit="10" stroke-linecap="round" stroke-linejoin="round"/>
</svg>
