<svg width="20" height="24" viewBox="0 0 20 24" fill="none" xmlns="http://www.w3.org/2000/svg">
<path d="M19.7486 6.94326L12.8914 0.245581C12.7314 0.0893024 12.5143 0 12.2857 0H4.28571C1.92 0 0 1.87535 0 4.18605V19.814C0 22.1247 1.92 24 4.28571 24H15.7143C18.08 24 20 22.1247 20 19.814V7.53488C20 7.31163 19.9086 7.09953 19.7486 6.94326ZM13.1429 2.85767L17.0743 6.69767H13.1429V2.85767ZM15.7143 22.3256H4.28571C2.86857 22.3256 1.71429 21.1981 1.71429 19.814V4.18605C1.71429 2.80186 2.86857 1.67442 4.28571 1.67442H11.4286V7.53488C11.4286 7.99256 11.8171 8.37209 12.2857 8.37209H18.2857V19.814C18.2857 21.1981 17.1314 22.3256 15.7143 22.3256ZM4.57143 7.53488C4.57143 7.07721 4.96 6.69767 5.42857 6.69767H7.71429C8.18286 6.69767 8.57143 7.07721 8.57143 7.53488C8.57143 7.99256 8.18286 8.37209 7.71429 8.37209H5.42857C4.96 8.37209 4.57143 7.99256 4.57143 7.53488ZM15.4286 12C15.4286 12.4577 15.04 12.8372 14.5714 12.8372H5.42857C4.96 12.8372 4.57143 12.4577 4.57143 12C4.57143 11.5423 4.96 11.1628 5.42857 11.1628H14.5714C15.04 11.1628 15.4286 11.5423 15.4286 12ZM15.4286 16.4651C15.4286 16.9228 15.04 17.3023 14.5714 17.3023H5.42857C4.96 17.3023 4.57143 16.9228 4.57143 16.4651C4.57143 16.0074 4.96 15.6279 5.42857 15.6279H14.5714C15.04 15.6279 15.4286 16.0074 15.4286 16.4651Z" fill="#111111"/>
</svg>
