<svg width="23" height="22" viewBox="0 0 23 22" fill="none" xmlns="http://www.w3.org/2000/svg">
<path d="M21.7569 13.2882C21.5414 13.2882 21.3347 13.3738 21.1824 13.5262C21.03 13.6785 20.9444 13.8852 20.9444 14.1007V16.8754C20.9444 17.5294 20.6846 18.1566 20.2221 18.619C19.7597 19.0815 19.1324 19.3413 18.4784 19.3413H4.34094C3.68693 19.3413 3.05971 19.0815 2.59726 18.619C2.1348 18.1566 1.875 17.5294 1.875 16.8754V14.1007C1.875 13.8852 1.7894 13.6785 1.63702 13.5262C1.48465 13.3738 1.27799 13.2882 1.0625 13.2882C0.847012 13.2882 0.640349 13.3738 0.487976 13.5262C0.335602 13.6785 0.25 13.8852 0.25 14.1007V16.8754C0.251076 17.96 0.682429 18.9999 1.4494 19.7669C2.21636 20.5339 3.25628 20.9652 4.34094 20.9663H18.4784C19.5631 20.9652 20.603 20.5339 21.37 19.7669C22.1369 18.9999 22.5683 17.96 22.5694 16.8754V14.1007C22.5694 13.8852 22.4838 13.6785 22.3314 13.5262C22.179 13.3738 21.9724 13.2882 21.7569 13.2882Z" fill="#111111" stroke="#111111" stroke-width="0.5"/>
<path d="M7.34856 9.87812L10.5986 13.1281V1.06249C10.5986 0.847006 10.6842 0.640343 10.8365 0.487969C10.9889 0.335596 11.1956 0.249994 11.4111 0.249994C11.6265 0.249994 11.8332 0.335596 11.9856 0.487969C12.138 0.640343 12.2236 0.847006 12.2236 1.06249V13.1159L15.4736 9.86593C15.549 9.79044 15.6387 9.73056 15.7373 9.68971C15.8359 9.64885 15.9416 9.62782 16.0484 9.62782C16.1552 9.62782 16.2609 9.64885 16.3595 9.68971C16.4581 9.73056 16.5478 9.79044 16.6232 9.86593C16.6987 9.94142 16.7586 10.031 16.7995 10.1297C16.8403 10.2283 16.8614 10.334 16.8614 10.4408C16.8614 10.5475 16.8403 10.6532 16.7995 10.7519C16.7586 10.8505 16.6987 10.9401 16.6232 11.0156L11.9879 15.6509C11.875 15.7605 11.7347 15.8377 11.5817 15.8744C11.4502 15.8986 11.3148 15.8909 11.1869 15.852C11.0589 15.8132 10.9422 15.7442 10.8464 15.6509L6.21106 11.0278C6.08207 10.8726 6.01546 10.6749 6.0242 10.4733C6.03294 10.2717 6.11642 10.0805 6.25836 9.93704C6.40031 9.79358 6.59056 9.70807 6.79209 9.69718C6.99361 9.68629 7.19198 9.75079 7.34856 9.87812Z" fill="#111111" stroke="#111111" stroke-width="0.5"/>
</svg>
