<svg width="22" height="22" viewBox="0 0 22 22" fill="none" xmlns="http://www.w3.org/2000/svg">
<path fill-rule="evenodd" clip-rule="evenodd" d="M20.8492 5.158C18.7233 7.284 13.7332 12.273 12.5162 13.486C12.2532 13.748 11.9402 13.955 11.6042 14.09C10.6282 14.495 8.24725 15.429 7.54725 15.476C7.13025 15.504 6.72125 15.35 6.42525 15.054C6.12925 14.758 5.97525 14.349 6.00325 13.932C6.05025 13.232 6.98425 10.853 7.38225 9.881C7.52125 9.536 7.72825 9.223 7.99125 8.961L16.3212 0.63C16.7242 0.227 17.2722 0 17.8422 0C18.4122 0 18.9602 0.227 19.3632 0.63L20.8492 2.116C21.2522 2.519 21.4792 3.067 21.4792 3.637C21.4792 4.207 21.2522 4.755 20.8492 5.158ZM7.50625 13.973C8.19025 13.887 10.1892 13.053 11.0292 12.704C11.0322 12.703 11.0352 12.702 11.0372 12.701C11.1942 12.638 11.3362 12.544 11.4552 12.425L11.4562 12.424C12.6752 11.211 17.6632 6.223 19.7882 4.097C19.9102 3.975 19.9792 3.81 19.9792 3.637C19.9792 3.464 19.9102 3.299 19.7882 3.177L18.3022 1.691C18.1802 1.569 18.0152 1.5 17.8422 1.5C17.6692 1.5 17.5042 1.569 17.3822 1.691L9.05125 10.022C8.93125 10.141 8.83725 10.284 8.77425 10.441L8.77225 10.445C8.42725 11.287 7.59225 13.288 7.50625 13.973Z" fill="white"/>
<path fill-rule="evenodd" clip-rule="evenodd" d="M18.8649 6.078C19.1569 6.371 19.1569 6.846 18.8649 7.139C18.5719 7.432 18.0969 7.432 17.8039 7.139L14.3369 3.672C14.0439 3.379 14.0439 2.904 14.3369 2.611C14.6299 2.319 15.1049 2.319 15.3979 2.611L18.8649 6.078Z" fill="white"/>
<path fill-rule="evenodd" clip-rule="evenodd" d="M12.7467 12.199C13.0397 12.491 13.0397 12.967 12.7467 13.259C12.4547 13.552 11.9787 13.552 11.6867 13.259L8.21975 9.792C7.92675 9.5 7.92675 9.024 8.21975 8.732C8.51175 8.439 8.98775 8.439 9.27975 8.732L12.7467 12.199Z" fill="white"/>
<path fill-rule="evenodd" clip-rule="evenodd" d="M7.25 1.979C7.664 1.979 8 2.315 8 2.729C8 3.143 7.664 3.479 7.25 3.479H3.75C2.507 3.479 1.5 4.486 1.5 5.729V17.729C1.5 18.326 1.737 18.898 2.159 19.32C2.581 19.742 3.153 19.979 3.75 19.979H16.75C17.347 19.979 17.919 19.742 18.341 19.32C18.763 18.898 19 18.326 19 17.729V14.229C19 13.815 19.336 13.479 19.75 13.479C20.164 13.479 20.5 13.815 20.5 14.229V17.729C20.5 18.724 20.105 19.677 19.402 20.381C18.698 21.084 17.745 21.479 16.75 21.479H3.75C2.755 21.479 1.802 21.084 1.098 20.381C0.395 19.677 0 18.724 0 17.729V5.729C0 3.658 1.679 1.979 3.75 1.979H7.25Z" fill="white"/>
</svg>
