<svg width="23" height="15" viewBox="0 0 23 15" fill="none" xmlns="http://www.w3.org/2000/svg">
<path fill-rule="evenodd" clip-rule="evenodd" d="M20.699 7.88039C18.7623 11.3582 15.0896 13.5186 11.1159 13.5186C7.13972 13.5186 3.46702 11.3582 1.53033 7.88039C1.38117 7.61034 1.38117 7.32487 1.53033 7.05506C3.46702 3.57731 7.13972 1.41712 11.1159 1.41712C15.0896 1.41712 18.7623 3.57731 20.699 7.05506C20.8507 7.32487 20.8507 7.61034 20.699 7.88039ZM21.9361 6.36553C19.7499 2.43895 15.604 0 11.1159 0C6.62531 0 2.47936 2.43895 0.293203 6.36553C-0.0977344 7.06612 -0.0977344 7.86933 0.293203 8.56941C2.47936 12.496 6.62531 14.9355 11.1159 14.9355C15.604 14.9355 19.7499 12.496 21.9361 8.56941C22.327 7.86938 22.327 7.06612 21.9361 6.36553ZM11.1159 10.3747C12.7183 10.3747 14.0222 9.07069 14.0222 7.46761C14.0222 5.86453 12.7183 4.56056 11.1159 4.56056C9.51103 4.56056 8.20706 5.86453 8.20706 7.46761C8.20706 9.07069 9.51108 10.3747 11.1159 10.3747ZM11.1159 3.14344C8.72916 3.14344 6.78994 5.08345 6.78994 7.46766C6.78994 9.85238 8.7292 11.7916 11.1159 11.7916C13.5001 11.7916 15.4394 9.85233 15.4394 7.46766C15.4394 5.08345 13.5001 3.14344 11.1159 3.14344Z" fill="white"/>
</svg>
