<svg width="25" height="26" viewBox="0 0 25 26" fill="none" xmlns="http://www.w3.org/2000/svg">
<path d="M4.56023 25.0914C4.38374 25.0915 4.20942 25.0522 4.04967 24.9763C3.88993 24.9005 3.7487 24.7899 3.63605 24.6526C3.5234 24.5152 3.44211 24.3544 3.39795 24.1816C3.3538 24.0089 3.34789 23.8284 3.38063 23.653L3.88703 20.923C3.90343 20.8189 3.89398 20.7122 3.85952 20.6127C3.82507 20.5132 3.76668 20.4238 3.68963 20.3528C2.56824 19.2706 1.67556 17.9696 1.06556 16.5287C0.455559 15.0877 0.140906 13.5366 0.140625 11.9692C0.184427 8.79281 1.47232 5.76359 3.72188 3.54591C5.97143 1.32822 8.999 0.10311 12.1406 0.139239C15.2823 0.10311 18.3098 1.32822 20.5594 3.54591C22.8089 5.76359 24.0968 8.79281 24.1406 11.9692C24.0968 15.1457 22.8089 18.1749 20.5594 20.3926C18.3098 22.6103 15.2823 23.8354 12.1406 23.7992C10.9462 23.7976 9.75847 23.6183 8.61563 23.2672C8.53789 23.2417 8.45594 23.2321 8.37449 23.2387C8.29305 23.2454 8.21371 23.2683 8.14103 23.306L5.13083 24.944C4.95569 25.0403 4.75958 25.091 4.56023 25.0914ZM12.1406 1.35257C9.3172 1.31625 6.59474 2.41348 4.57019 4.40366C2.54565 6.39384 1.38424 9.11455 1.34063 11.9692C1.34154 13.374 1.62425 14.764 2.17166 16.0551C2.71907 17.3463 3.5198 18.5117 4.52542 19.481C4.74494 19.6917 4.90921 19.9542 5.00348 20.245C5.09774 20.5358 5.11902 20.8457 5.06543 21.1469L4.55963 23.8769L7.56983 22.2389C7.78145 22.1249 8.01336 22.0545 8.25211 22.0318C8.49086 22.009 8.73168 22.0345 8.96063 22.1066C9.99158 22.4235 11.0631 22.585 12.1406 22.5859C14.9641 22.6222 17.6865 21.525 19.7111 19.5348C21.7356 17.5446 22.897 14.8239 22.9406 11.9692C22.897 9.11455 21.7356 6.39384 19.7111 4.40366C17.6865 2.41348 14.9641 1.31625 12.1406 1.35257Z" fill="#333333" stroke="#333333" stroke-width="0.276923"/>
<path d="M12.1391 15.9136C11.9799 15.9136 11.8273 15.8497 11.7148 15.736C11.6023 15.6222 11.5391 15.4679 11.5391 15.307V13.305C11.5387 12.9127 11.6643 12.5308 11.8971 12.2169C12.1298 11.903 12.4571 11.6741 12.8297 11.5644C13.2557 11.435 13.6378 11.1884 13.9333 10.8521C14.2288 10.5158 14.426 10.1031 14.5029 9.66005C14.5798 9.21701 14.5335 8.76106 14.369 8.34312C14.2045 7.92517 13.9283 7.56169 13.5713 7.29324C13.2144 7.0248 12.7906 6.86196 12.3474 6.82291C11.9042 6.78386 11.459 6.87013 11.0615 7.0721C10.664 7.27406 10.3298 7.58377 10.0963 7.96664C9.86276 8.34952 9.73908 8.79048 9.73906 9.24031C9.73906 9.4012 9.67585 9.55551 9.56333 9.66928C9.45081 9.78306 9.29819 9.84697 9.13906 9.84697C8.97993 9.84697 8.82732 9.78306 8.7148 9.66928C8.60228 9.55551 8.53906 9.4012 8.53906 9.24031C8.54002 8.27521 8.91961 7.34992 9.59453 6.6675C10.2695 5.98508 11.1846 5.60127 12.1391 5.60031C13.0037 5.59952 13.8398 5.91343 14.4944 6.48464C15.149 7.05586 15.5784 7.84621 15.7041 8.7112C15.8298 9.57619 15.6433 10.458 15.1789 11.1955C14.7144 11.9329 14.003 12.4767 13.1747 12.7274C13.0501 12.7633 12.9404 12.8389 12.8619 12.943C12.7834 13.0471 12.7403 13.1741 12.7391 13.305V15.307C12.7391 15.4679 12.6758 15.6222 12.5633 15.736C12.4508 15.8497 12.2982 15.9136 12.1391 15.9136Z" fill="#333333" stroke="#333333" stroke-width="0.276923"/>
<path d="M12.1422 18.643C12.6392 18.643 13.0422 18.2355 13.0422 17.733C13.0422 17.2304 12.6392 16.823 12.1422 16.823C11.6451 16.823 11.2422 17.2304 11.2422 17.733C11.2422 18.2355 11.6451 18.643 12.1422 18.643Z" fill="#333333" stroke="#333333" stroke-width="0.276923"/>
</svg>
