<svg width="20" height="18" viewBox="0 0 20 18" fill="none" xmlns="http://www.w3.org/2000/svg">
<path d="M2 18H18C18.5304 18 19.0391 17.795 19.4142 17.43C19.7893 17.0651 20 16.5702 20 16.0541V1.94595C20 1.42985 19.7893 0.93489 19.4142 0.569954C19.0391 0.205019 18.5304 0 18 0H2C1.46957 0 0.960859 0.205019 0.585786 0.569954C0.210714 0.93489 0 1.42985 0 1.94595V16.0541C0 16.5702 0.210714 17.0651 0.585786 17.43C0.960859 17.795 1.46957 18 2 18ZM1 1.94595C1 1.6879 1.10536 1.44042 1.29289 1.25795C1.48043 1.07548 1.73478 0.972973 2 0.972973H18C18.2652 0.972973 18.5196 1.07548 18.7071 1.25795C18.8946 1.44042 19 1.6879 19 1.94595V4.86486H1V1.94595ZM1 5.83784H19V16.0541C19 16.3121 18.8946 16.5596 18.7071 16.7421C18.5196 16.9245 18.2652 17.027 18 17.027H2C1.73478 17.027 1.48043 16.9245 1.29289 16.7421C1.10536 16.5596 1 16.3121 1 16.0541V5.83784Z" fill="#F76809"/>
<path d="M3.5 3.25C4.05228 3.25 4.5 2.80228 4.5 2.25C4.5 1.69772 4.05228 1.25 3.5 1.25C2.94772 1.25 2.5 1.69772 2.5 2.25C2.5 2.80228 2.94772 3.25 3.5 3.25Z" fill="#F76809"/>
<path d="M6.5 3.25C7.05228 3.25 7.5 2.80228 7.5 2.25C7.5 1.69772 7.05228 1.25 6.5 1.25C5.94772 1.25 5.5 1.69772 5.5 2.25C5.5 2.80228 5.94772 3.25 6.5 3.25Z" fill="#F76809"/>
<path d="M9.36364 3H16.6364C16.7328 3 16.8253 2.94732 16.8935 2.85355C16.9617 2.75979 17 2.63261 17 2.5C17 2.36739 16.9617 2.24021 16.8935 2.14645C16.8253 2.05268 16.7328 2 16.6364 2H9.36364C9.26719 2 9.1747 2.05268 9.10651 2.14645C9.03831 2.24021 9 2.36739 9 2.5C9 2.63261 9.03831 2.75979 9.10651 2.85355C9.1747 2.94732 9.26719 3 9.36364 3Z" fill="#F76809"/>
</svg>
