<svg width="24" height="27" viewBox="0 0 24 27" fill="none" xmlns="http://www.w3.org/2000/svg">
<path fill-rule="evenodd" clip-rule="evenodd" d="M22.6884 6.4891L11.9205 0.301133C11.825 0.245818 11.7165 0.216675 11.606 0.216675C11.4955 0.216675 11.3869 0.245818 11.2915 0.301133L0.526629 6.48313C0.433094 6.53586 0.355308 6.61234 0.301217 6.70475C0.247126 6.79716 0.218668 6.90219 0.21875 7.00913V19.3875C0.219095 19.4972 0.248353 19.6048 0.303603 19.6997C0.358853 19.7946 0.438163 19.8734 0.533615 19.9283L11.292 26.1101C11.6446 26.295 11.7427 26.202 11.9205 26.1101L22.6857 19.9287C22.7813 19.8738 22.8607 19.7949 22.9159 19.7C22.9712 19.605 23.0004 19.4972 23.0006 19.3875V7.01803C22.996 6.72886 22.9301 6.62659 22.6884 6.4891ZM11.6063 1.56343L21.1158 7.024L18.4309 8.56343L8.92141 3.10511L11.6063 1.56343ZM17.6839 13.1143L16.3815 13.8445V11.1848L17.6839 10.4367V13.1143ZM11.6062 12.4843L2.09692 7.02371L5.14186 5.27681L14.6498 10.7367L11.6062 12.4843ZM7.66491 3.82516L17.1748 9.28661L15.9061 10.0168L6.39659 4.55441L7.66491 3.82516ZM1.47053 8.10574L10.9781 13.5663V24.4875L1.47053 19.0269V8.10574ZM12.235 24.4875V13.5663L15.1256 11.9062V14.9105C15.1256 15.0766 15.192 15.2359 15.3101 15.3534C15.4282 15.4708 15.5883 15.5368 15.7554 15.5368C15.8611 15.5246 15.9646 15.4975 16.0626 15.4564C16.9049 14.9858 17.7944 14.5196 18.6193 14.0276C18.7165 13.9731 18.7973 13.8939 18.8536 13.7982C18.91 13.7025 18.9397 13.5936 18.9399 13.4826V9.71632L21.7433 8.10662V19.0278L12.235 24.4875Z" fill="#333333" stroke="#333333" stroke-width="0.433333"/>
</svg>
