<svg width="41" height="33" viewBox="0 0 41 33" fill="none" xmlns="http://www.w3.org/2000/svg">
<path d="M40.9617 18.0801C40.8171 16.6808 40.2484 15.3589 39.3319 14.2917C38.4153 13.2244 37.1946 12.4626 35.8331 12.1083C36.1424 10.4706 35.8338 8.77642 34.9671 7.3529C34.1004 5.92938 32.7369 4.8775 31.1401 4.40037C29.5876 3.94045 27.9218 4.05155 26.4442 4.71355C25.8979 3.92308 25.2498 3.20813 24.5166 2.5872C19.9074 -1.3138 12.9838 -0.737647 9.08274 3.87163C8.14688 4.97721 7.43979 6.25756 7.00246 7.63846C6.56512 9.01936 6.40624 10.4733 6.53503 11.9161C4.76054 12.0399 3.17102 12.721 2.00191 13.8715C0.710838 15.1414 0 16.8884 0 18.791C0.00293482 20.3762 0.548565 21.9127 1.54611 23.1447C2.42103 24.2201 3.7133 25.4738 5.95872 25.624C5.98787 25.626 5.99764 25.6267 7.85901 25.6273C7.99301 25.6289 8.12407 25.588 8.23339 25.5105C8.34272 25.433 8.4247 25.3228 8.46759 25.1959C8.50061 25.099 8.51009 24.9957 8.49524 24.8945C8.48039 24.7933 8.44164 24.6971 8.3822 24.6138C8.32275 24.5305 8.24433 24.4626 8.15341 24.4157C8.0625 24.3688 7.96172 24.3442 7.85941 24.3439C7.18373 24.3439 6.17036 24.3432 6.02767 24.3424C4.29641 24.2206 3.29426 23.2598 2.5425 22.3357C1.7304 21.3326 1.28618 20.0816 1.2837 18.791C1.2837 17.2356 1.85841 15.8136 2.90197 14.7871C3.99901 13.7081 5.50076 13.1518 7.24755 13.1812L7.32538 13.1825C7.40938 13.1838 7.49265 13.1668 7.56937 13.1325C7.64609 13.0983 7.7144 13.0477 7.76953 12.9843C7.82465 12.9209 7.86526 12.8463 7.8885 12.7655C7.91175 12.6848 7.91707 12.6 7.90409 12.517L7.892 12.44C7.54534 10.2332 7.97389 7.97451 9.10475 6.04805C10.2356 4.12158 11.9989 2.64638 14.0948 1.87337C16.1906 1.10036 18.4895 1.0773 20.6005 1.80809C22.7114 2.53888 24.504 3.9784 25.6733 5.88178L25.7063 5.93559C25.7845 6.06248 25.9087 6.15421 26.0529 6.19153C26.1972 6.22885 26.3503 6.20887 26.4801 6.13578L26.5351 6.10479C27.174 5.74674 27.8781 5.52035 28.606 5.43898C29.3338 5.35761 30.0705 5.42293 30.7727 5.63106C31.4612 5.83468 32.1024 6.17311 32.659 6.62666C33.2156 7.08022 33.6765 7.63988 34.015 8.2731C34.7007 9.56927 34.8453 11.0842 34.4173 12.4867L34.4162 12.4902C34.3927 12.5691 34.3864 12.6521 34.3976 12.7336C34.4088 12.8151 34.4374 12.8933 34.4813 12.9629C34.5253 13.0325 34.5836 13.0918 34.6524 13.137C34.7212 13.1822 34.7989 13.2121 34.8802 13.2247C35.8632 13.3705 36.7919 13.7679 37.5761 14.3784C38.1607 14.8399 38.6478 15.413 39.0091 16.0643C39.3704 16.7157 39.5986 17.4323 39.6805 18.1726C39.7624 18.913 39.6963 19.6622 39.4862 20.3767C39.276 21.0913 38.9259 21.757 38.4563 22.3351C37.5013 23.5089 36.5452 24.2996 34.9853 24.3423C34.8779 24.3423 33.4615 24.3436 32.9135 24.3439C32.8111 24.3442 32.7103 24.3688 32.6194 24.4158C32.5285 24.4627 32.45 24.5307 32.3906 24.614C32.3312 24.6973 32.2925 24.7936 32.2777 24.8948C32.2629 24.9961 32.2724 25.0994 32.3055 25.1963C32.3484 25.3232 32.4304 25.4333 32.5397 25.5108C32.649 25.5884 32.7801 25.6293 32.9141 25.6277C34.9881 25.6263 35.001 25.626 35.0121 25.6257C37.1925 25.5685 38.4799 24.3396 39.4518 23.1449C40.0259 22.4425 40.4549 21.6331 40.7141 20.7638C40.9733 19.8944 41.0574 18.9822 40.9617 18.0801Z" fill="white"/>
<path d="M30.2438 11.3428H10.754C10.6201 11.3428 10.4875 11.3691 10.3638 11.4204C10.2401 11.4716 10.1277 11.5467 10.033 11.6414C9.93833 11.7361 9.86323 11.8485 9.81199 11.9722C9.76075 12.0959 9.73438 12.2285 9.73438 12.3624V16.4937C9.73437 16.6276 9.76075 16.7602 9.81199 16.8839C9.86323 17.0076 9.93833 17.12 10.033 17.2147C10.1277 17.3093 10.2401 17.3844 10.3638 17.4357C10.4875 17.4869 10.6201 17.5133 10.754 17.5133H30.2439C30.3778 17.5133 30.5104 17.4869 30.6341 17.4357C30.7578 17.3844 30.8702 17.3093 30.9649 17.2147C31.0596 17.12 31.1347 17.0076 31.1859 16.8839C31.2372 16.7602 31.2635 16.6276 31.2635 16.4937V12.3625C31.2635 12.092 31.1561 11.8327 30.9649 11.6414C30.7736 11.4502 30.5143 11.3428 30.2438 11.3428ZM29.9796 16.2296H11.0182V12.6262H29.9803L29.9796 16.2296Z" fill="white"/>
<path d="M13.0403 15.0699H21.0591C21.2247 15.072 21.385 15.0114 21.5079 14.9003C21.6307 14.7892 21.7071 14.6358 21.7215 14.4708C21.7274 14.3831 21.7152 14.2951 21.6856 14.2123C21.6561 14.1295 21.6098 14.0537 21.5498 13.9895C21.4897 13.9253 21.4171 13.8741 21.3364 13.8392C21.2558 13.8042 21.1688 13.7862 21.0809 13.7862H13.0623C12.8967 13.7841 12.7364 13.8446 12.6135 13.9558C12.4907 14.0669 12.4143 14.2203 12.3999 14.3853C12.394 14.473 12.4062 14.561 12.4358 14.6437C12.4653 14.7265 12.5115 14.8023 12.5716 14.8665C12.6316 14.9307 12.7042 14.9819 12.7848 15.0169C12.8655 15.0518 12.9524 15.0699 13.0403 15.0699Z" fill="white"/>
<path d="M24.2163 15.0699H24.5625C24.7281 15.072 24.8884 15.0114 25.0113 14.9003C25.1342 14.7892 25.2105 14.6358 25.225 14.4708C25.2308 14.3831 25.2186 14.2951 25.189 14.2123C25.1595 14.1295 25.1132 14.0537 25.0532 13.9895C24.9931 13.9253 24.9205 13.8741 24.8399 13.8392C24.7592 13.8042 24.6723 13.7862 24.5844 13.7862H24.2381C24.0725 13.7841 23.9122 13.8446 23.7893 13.9558C23.6665 14.0669 23.5901 14.2203 23.5756 14.3853C23.5698 14.473 23.582 14.561 23.6116 14.6438C23.6411 14.7266 23.6874 14.8024 23.7475 14.8666C23.8075 14.9308 23.8801 14.982 23.9608 15.0169C24.0414 15.0519 24.1284 15.0699 24.2163 15.0699Z" fill="white"/>
<path d="M26.6186 15.0699H26.9649C27.1305 15.072 27.2908 15.0114 27.4137 14.9003C27.5365 14.7892 27.6128 14.6358 27.6273 14.4708C27.6332 14.383 27.6209 14.2951 27.5914 14.2123C27.5619 14.1295 27.5156 14.0536 27.4556 13.9895C27.3955 13.9253 27.3229 13.8741 27.2422 13.8392C27.1616 13.8042 27.0746 13.7862 26.9867 13.7862H26.6405C26.4748 13.7841 26.3145 13.8446 26.1917 13.9558C26.0688 14.0669 25.9925 14.2203 25.978 14.3853C25.9721 14.473 25.9844 14.561 26.0139 14.6438C26.0435 14.7266 26.0897 14.8024 26.1498 14.8666C26.2098 14.9308 26.2824 14.9819 26.3631 15.0169C26.4437 15.0519 26.5307 15.0699 26.6186 15.0699Z" fill="white"/>
<path d="M30.2438 18.6338H10.754C10.6201 18.6338 10.4875 18.6602 10.3638 18.7114C10.2401 18.7626 10.1277 18.8377 10.033 18.9324C9.93833 19.0271 9.86323 19.1395 9.81199 19.2632C9.76075 19.3869 9.73438 19.5195 9.73438 19.6534V23.7847C9.73437 23.9186 9.76075 24.0512 9.81199 24.1749C9.86323 24.2986 9.93833 24.411 10.033 24.5057C10.1277 24.6004 10.2401 24.6755 10.3638 24.7267C10.4875 24.7779 10.6201 24.8043 10.754 24.8043H30.2439C30.3778 24.8043 30.5104 24.7779 30.6341 24.7267C30.7578 24.6755 30.8702 24.6004 30.9649 24.5057C31.0596 24.411 31.1347 24.2986 31.1859 24.1749C31.2372 24.0512 31.2635 23.9186 31.2635 23.7847V19.6534C31.2635 19.383 31.1561 19.1236 30.9648 18.9324C30.7736 18.7412 30.5143 18.6338 30.2438 18.6338ZM29.9796 23.5206H11.0182V19.9172H29.9803L29.9796 23.5206Z" fill="white"/>
<path d="M13.0403 22.3609H21.0591C21.2247 22.363 21.385 22.3024 21.5079 22.1913C21.6307 22.0802 21.707 21.9268 21.7215 21.7618C21.7274 21.6741 21.7151 21.5861 21.6856 21.5033C21.656 21.4205 21.6098 21.3447 21.5497 21.2805C21.4897 21.2164 21.4171 21.1652 21.3364 21.1302C21.2558 21.0952 21.1688 21.0772 21.0809 21.0772H13.0623C12.8967 21.0751 12.7364 21.1357 12.6135 21.2468C12.4906 21.3579 12.4143 21.5114 12.3999 21.6764C12.394 21.7641 12.4063 21.8521 12.4358 21.9348C12.4653 22.0176 12.5116 22.0934 12.5716 22.1576C12.6317 22.2217 12.7042 22.2729 12.7849 22.3079C12.8655 22.3429 12.9524 22.3609 13.0403 22.3609Z" fill="white"/>
<path d="M24.2163 22.3609H24.5625C24.7281 22.363 24.8884 22.3024 25.0113 22.1913C25.1342 22.0802 25.2105 21.9268 25.225 21.7618C25.2308 21.6741 25.2186 21.5861 25.189 21.5033C25.1595 21.4205 25.1132 21.3447 25.0532 21.2805C24.9931 21.2164 24.9205 21.1652 24.8399 21.1302C24.7592 21.0952 24.6723 21.0772 24.5844 21.0772H24.2381C24.0725 21.0751 23.9121 21.1357 23.7893 21.2468C23.6664 21.3579 23.5901 21.5114 23.5756 21.6764C23.5698 21.7641 23.582 21.8521 23.6116 21.9349C23.6412 22.0177 23.6874 22.0935 23.7475 22.1577C23.8075 22.2218 23.8802 22.273 23.9608 22.3079C24.0415 22.3429 24.1284 22.3609 24.2163 22.3609Z" fill="white"/>
<path d="M26.6186 22.3609H26.9649C27.1305 22.363 27.2908 22.3024 27.4137 22.1913C27.5365 22.0802 27.6128 21.9268 27.6273 21.7618C27.6332 21.6741 27.6209 21.5861 27.5914 21.5033C27.5618 21.4205 27.5156 21.3447 27.4555 21.2805C27.3955 21.2163 27.3229 21.1652 27.2422 21.1302C27.1616 21.0952 27.0746 21.0772 26.9867 21.0772H26.6404C26.4748 21.0751 26.3145 21.1357 26.1916 21.2468C26.0688 21.3579 25.9924 21.5114 25.978 21.6764C25.9721 21.7641 25.9844 21.8521 26.0139 21.9349C26.0435 22.0176 26.0897 22.0935 26.1498 22.1576C26.2099 22.2218 26.2825 22.273 26.3631 22.3079C26.4437 22.3429 26.5307 22.3609 26.6186 22.3609Z" fill="white"/>
<path d="M30.2439 25.9258H10.754C10.4837 25.9261 10.2245 26.0336 10.0333 26.2247C9.84219 26.4159 9.73467 26.6751 9.73438 26.9454V31.0767C9.73467 31.347 9.84219 31.6062 10.0333 31.7973C10.2245 31.9885 10.4837 32.096 10.754 32.0963H30.2439C30.5142 32.096 30.7734 31.9885 30.9646 31.7973C31.1557 31.6062 31.2632 31.347 31.2635 31.0767V26.9454C31.2632 26.6751 31.1557 26.4159 30.9646 26.2247C30.7734 26.0336 30.5142 25.9261 30.2439 25.9258ZM29.9797 30.8126H11.0182V27.2092H29.9803L29.9797 30.8126Z" fill="white"/>
<path d="M13.041 29.6529H21.0817C21.1666 29.6538 21.2508 29.6379 21.3295 29.6061C21.4082 29.5743 21.4798 29.5271 21.5402 29.4674C21.6006 29.4078 21.6485 29.3367 21.6812 29.2583C21.7139 29.18 21.7307 29.0959 21.7307 29.011C21.7307 28.9261 21.7139 28.8421 21.6812 28.7637C21.6485 28.6854 21.6006 28.6143 21.5402 28.5546C21.4798 28.4949 21.4082 28.4478 21.3295 28.416C21.2508 28.3841 21.1666 28.3682 21.0817 28.3692H13.041C12.872 28.3711 12.7106 28.4395 12.5917 28.5597C12.4729 28.6799 12.4062 28.842 12.4062 29.011C12.4062 29.18 12.4729 29.3422 12.5917 29.4624C12.7106 29.5825 12.872 29.651 13.041 29.6529Z" fill="white"/>
<path d="M24.2155 29.6529H24.5838C24.7528 29.651 24.9142 29.5825 25.0331 29.4624C25.1519 29.3422 25.2185 29.18 25.2185 29.011C25.2185 28.842 25.1519 28.6799 25.0331 28.5597C24.9142 28.4395 24.7528 28.3711 24.5838 28.3692H24.2155C24.1306 28.3682 24.0463 28.3841 23.9676 28.416C23.8889 28.4478 23.8173 28.4949 23.757 28.5546C23.6966 28.6143 23.6487 28.6854 23.616 28.7637C23.5832 28.8421 23.5664 28.9261 23.5664 29.011C23.5664 29.0959 23.5832 29.18 23.616 29.2583C23.6487 29.3367 23.6966 29.4078 23.757 29.4674C23.8173 29.5271 23.8889 29.5743 23.9676 29.6061C24.0463 29.6379 24.1306 29.6538 24.2155 29.6529Z" fill="white"/>
<path d="M26.6191 29.6529H26.9874C27.0723 29.6538 27.1566 29.6379 27.2353 29.6061C27.314 29.5743 27.3856 29.5271 27.446 29.4674C27.5063 29.4078 27.5543 29.3367 27.587 29.2583C27.6197 29.18 27.6365 29.0959 27.6365 29.011C27.6365 28.9261 27.6197 28.8421 27.587 28.7637C27.5543 28.6854 27.5063 28.6143 27.446 28.5546C27.3856 28.4949 27.314 28.4478 27.2353 28.416C27.1566 28.3841 27.0723 28.3682 26.9874 28.3692H26.6191C26.4501 28.3711 26.2887 28.4395 26.1699 28.5597C26.051 28.6799 25.9844 28.842 25.9844 29.011C25.9844 29.18 26.051 29.3422 26.1699 29.4624C26.2887 29.5825 26.4501 29.651 26.6191 29.6529Z" fill="white"/>
</svg>
