<svg width="38" height="31" viewBox="0 0 38 31" fill="none" xmlns="http://www.w3.org/2000/svg">
<path d="M2.4524 0H35.5501C36.2002 0.00129731 36.8232 0.260102 37.2828 0.719754C37.7425 1.1794 38.0013 1.80245 38.0025 2.45248V27.9627C38.0013 28.6127 37.7425 29.2358 37.2828 29.6954C36.8232 30.1551 36.2002 30.4139 35.5501 30.4152H2.4524C1.80237 30.4139 1.17933 30.1551 0.719698 29.6954C0.260061 29.2358 0.00127632 28.6127 0 27.9627V2.45248C0.00127632 1.80245 0.260061 1.1794 0.719698 0.719754C1.17933 0.260102 1.80237 0.00129731 2.4524 0ZM8.75895 2.16705C8.99384 2.16705 9.22346 2.23671 9.41877 2.36721C9.61408 2.49771 9.7663 2.68319 9.85619 2.90021C9.94608 3.11722 9.9696 3.35602 9.92378 3.5864C9.87795 3.81678 9.76484 4.02839 9.59874 4.19449C9.43265 4.36058 9.22103 4.4737 8.99065 4.51952C8.76027 4.56535 8.52147 4.54183 8.30446 4.45194C8.08745 4.36205 7.90196 4.20982 7.77146 4.01452C7.64096 3.81921 7.57131 3.58959 7.57131 3.3547C7.57156 3.03979 7.69677 2.73786 7.91944 2.51518C8.14211 2.29251 8.44405 2.16731 8.75895 2.16705ZM12.0417 3.92968C11.8891 3.92968 11.7427 3.86906 11.6348 3.76115C11.5269 3.65325 11.4663 3.5069 11.4663 3.3543C11.4663 3.2017 11.5269 3.05535 11.6348 2.94745C11.7427 2.83955 11.8891 2.77893 12.0417 2.77893H19.6236C19.7762 2.77893 19.9225 2.83955 20.0304 2.94745C20.1383 3.05535 20.199 3.2017 20.199 3.3543C20.199 3.5069 20.1383 3.65325 20.0304 3.76115C19.9225 3.86906 19.7762 3.92968 19.6236 3.92968H12.0417ZM5.13751 2.16705C5.37233 2.16741 5.60176 2.23737 5.79683 2.36809C5.9919 2.49881 6.14384 2.68442 6.23345 2.90147C6.32306 3.11851 6.34632 3.35725 6.30029 3.58751C6.25426 3.81777 6.141 4.02922 5.97484 4.19513C5.80867 4.36104 5.59705 4.47398 5.36672 4.51965C5.13639 4.56533 4.89768 4.54171 4.68078 4.45176C4.46387 4.36182 4.27849 4.20959 4.14807 4.01433C4.01765 3.81906 3.94804 3.58951 3.94804 3.3547C3.9483 3.03948 4.07375 2.73727 4.29682 2.51454C4.51989 2.29182 4.82229 2.16682 5.13751 2.16705ZM3.01962 6.54732C2.9435 6.54822 2.86796 6.53399 2.79737 6.50548C2.72679 6.47697 2.66256 6.43473 2.60842 6.38122C2.55427 6.3277 2.51129 6.26398 2.48195 6.19373C2.45261 6.12348 2.4375 6.04812 2.4375 5.97199C2.4375 5.89586 2.45261 5.82049 2.48195 5.75024C2.51129 5.68 2.55427 5.61627 2.60842 5.56276C2.66256 5.50924 2.72679 5.46701 2.79737 5.43849C2.86796 5.40998 2.9435 5.39576 3.01962 5.39665H34.9831C35.0592 5.39576 35.1347 5.40998 35.2053 5.43849C35.2759 5.46701 35.3401 5.50924 35.3943 5.56276C35.4484 5.61627 35.4914 5.68 35.5208 5.75024C35.5501 5.82049 35.5652 5.89586 35.5652 5.97199C35.5652 6.04812 35.5501 6.12348 35.5208 6.19373C35.4914 6.26398 35.4484 6.3277 35.3943 6.38122C35.3401 6.43473 35.2759 6.47697 35.2053 6.50548C35.1347 6.53399 35.0592 6.54822 34.9831 6.54732H3.01962ZM35.5501 1.15075H2.4524C2.10768 1.15239 1.77754 1.29007 1.53378 1.53384C1.29003 1.77761 1.15237 2.10776 1.15075 2.45248V27.9627C1.15237 28.3074 1.29003 28.6376 1.53378 28.8813C1.77754 29.1251 2.10768 29.2628 2.4524 29.2644H35.5501C35.8949 29.2628 36.225 29.1251 36.4688 28.8813C36.7125 28.6376 36.8502 28.3074 36.8518 27.9627V2.45248C36.8502 2.10776 36.7125 1.77761 36.4688 1.53384C36.225 1.29007 35.8949 1.15239 35.5501 1.15075Z" fill="#111111"/>
<g clip-path="url(#clip0_5295_22968)">
<mask id="mask0_5295_22968" style="mask-type:luminance" maskUnits="userSpaceOnUse" x="12" y="11" width="15" height="15">
<path d="M12 11.0001H26.6668V25.6669H12V11.0001Z" fill="white"/>
</mask>
<g mask="url(#mask0_5295_22968)">
<path d="M20.7141 12.9846C21.2206 13.1153 21.6991 13.316 22.1384 13.5758C22.1384 13.5758 22.3501 13.3641 22.5878 13.1263C22.7604 12.9535 22.9947 12.8566 23.2388 12.8566C23.4827 12.8566 23.717 12.9535 23.8896 13.1263C24.099 13.3357 24.331 13.5677 24.5404 13.7771C24.7132 13.9497 24.8101 14.184 24.8101 14.4279C24.8101 14.6721 24.7132 14.9063 24.5404 15.0789C24.3027 15.3167 24.091 15.5284 24.091 15.5284C24.3508 15.9677 24.5514 16.4461 24.6822 16.9526H25.3166C25.825 16.9526 26.2371 17.3648 26.2371 17.8731V18.7936C26.2371 19.3019 25.825 19.7141 25.3166 19.7141H24.6822C24.5514 20.2206 24.3508 20.699 24.091 21.1383C24.091 21.1383 24.3027 21.35 24.5404 21.5877C24.7132 21.7604 24.8101 21.9946 24.8101 22.2388C24.8101 22.4827 24.7132 22.717 24.5404 22.8896C24.331 23.099 24.099 23.3309 23.8896 23.5404C23.717 23.7132 23.4827 23.8101 23.2388 23.8101C22.9947 23.8101 22.7604 23.7132 22.5878 23.5404C22.3501 23.3026 22.1384 23.0909 22.1384 23.0909C21.6991 23.3507 21.2206 23.5514 20.7141 23.6821V24.3165C20.7141 24.8249 20.302 25.2371 19.7936 25.2371H18.8731C18.3648 25.2371 17.9527 24.8249 17.9527 24.3165V23.6821C17.4462 23.5514 16.9677 23.3507 16.5284 23.0909C16.5284 23.0909 16.3167 23.3026 16.079 23.5404C15.9064 23.7132 15.6721 23.8101 15.428 23.8101C15.184 23.8101 14.9497 23.7132 14.7772 23.5404C14.5678 23.3309 14.3358 23.099 14.1264 22.8896C13.9536 22.717 13.8567 22.4827 13.8567 22.2388C13.8567 21.9946 13.9536 21.7604 14.1264 21.5877C14.3641 21.35 14.5758 21.1383 14.5758 21.1383C14.316 20.699 14.1154 20.2206 13.9846 19.7141H13.3502C12.8418 19.7141 12.4297 19.3019 12.4297 18.7936V17.8731C12.4297 17.3648 12.8418 16.9526 13.3502 16.9526H13.9846C14.1154 16.4461 14.316 15.9677 14.5758 15.5284C14.5758 15.5284 14.3641 15.3167 14.1264 15.0789C13.9536 14.9063 13.8567 14.6721 13.8567 14.4279C13.8567 14.184 13.9536 13.9497 14.1264 13.7771C14.3358 13.5677 14.5678 13.3357 14.7772 13.1263C14.9497 12.9535 15.184 12.8566 15.428 12.8566C15.6721 12.8566 15.9064 12.9535 16.079 13.1263C16.3167 13.3641 16.5284 13.5758 16.5284 13.5758C16.9677 13.316 17.4462 13.1153 17.9527 12.9846V12.3501C17.9527 11.8418 18.3648 11.4296 18.8731 11.4296H19.7936C20.302 11.4296 20.7141 11.8418 20.7141 12.3501V12.9846Z" stroke="black" stroke-width="0.859383" stroke-miterlimit="10" stroke-linecap="round" stroke-linejoin="round"/>
<path d="M19.3318 15.5719C20.8559 15.5719 22.0933 16.8092 22.0933 18.3334C22.0933 19.8575 20.8559 21.0948 19.3318 21.0948C17.8077 21.0948 16.5703 19.8575 16.5703 18.3334C16.5703 16.8092 17.8077 15.5719 19.3318 15.5719Z" stroke="black" stroke-width="0.859383" stroke-miterlimit="10" stroke-linecap="round" stroke-linejoin="round"/>
</g>
</g>
<defs>
<clipPath id="clip0_5295_22968">
<rect width="14.6668" height="14.6668" fill="white" transform="translate(12 11)"/>
</clipPath>
</defs>
</svg>
