<svg width="41" height="34" viewBox="0 0 41 34" fill="none" xmlns="http://www.w3.org/2000/svg">
<path d="M24.1086 28.2201H1.67597C1.08263 28.2201 0.601562 27.7391 0.601562 27.1457V4.70288H31.3659V13.8197" stroke="#111111" stroke-width="1.2" stroke-miterlimit="10" stroke-linecap="round" stroke-linejoin="round"/>
<path d="M31.3669 24.0052V29.5159C31.2661 29.5159 31.1652 29.4922 31.0724 29.4447L27.1457 27.4429C26.9179 27.3269 26.7734 27.0865 26.7734 26.8236V22.0832C26.7734 21.9506 26.8102 21.8238 26.8758 21.7156L31.3669 24.0052Z" stroke="#111111" stroke-width="1.2" stroke-miterlimit="10" stroke-linecap="round" stroke-linejoin="round"/>
<path d="M35.9682 22.0832V26.8236C35.9682 27.0865 35.824 27.3269 35.596 27.4429L31.6695 29.4448C31.5766 29.4922 31.4758 29.5159 31.375 29.5159V24.0053L35.866 21.7157C35.9316 21.8239 35.9682 21.9506 35.9682 22.0832Z" stroke="#111111" stroke-width="1.2" stroke-miterlimit="10" stroke-linecap="round" stroke-linejoin="round"/>
<path d="M35.8571 21.7156L31.3662 24.0052L26.875 21.7156C26.9372 21.6135 27.0251 21.5279 27.1323 21.4704L31.0589 19.361C31.0599 19.3606 31.0608 19.3599 31.0619 19.3594C31.2538 19.2575 31.4816 19.2579 31.6732 19.361L35.5997 21.4704C35.7071 21.5279 35.7951 21.6135 35.8571 21.7156Z" stroke="#111111" stroke-width="1.2" stroke-miterlimit="10" stroke-linecap="round" stroke-linejoin="round"/>
<path d="M35.2576 31.6229C34.1012 32.2462 32.778 32.6 31.3723 32.6C26.8433 32.6 23.1719 28.9285 23.1719 24.3996C23.1719 19.8707 26.8433 16.1992 31.3723 16.1992C35.9012 16.1992 39.5726 19.8707 39.5726 24.3996C39.5726 26.6089 38.6989 28.6142 37.2782 30.0887" stroke="#111111" stroke-width="1.2" stroke-miterlimit="10" stroke-linecap="round" stroke-linejoin="round"/>
<path d="M30.2915 0.599976H1.67597C1.08263 0.599976 0.601562 1.08097 0.601562 1.67438V4.70287H31.3659V1.67438C31.3659 1.08104 30.8849 0.599976 30.2915 0.599976Z" stroke="#111111" stroke-width="1.2" stroke-miterlimit="10" stroke-linecap="round" stroke-linejoin="round"/>
<path d="M4.60156 9.47836L6.77753 11.6685L10.184 7.995" stroke="#111111" stroke-width="0.9" stroke-miterlimit="10" stroke-linecap="round" stroke-linejoin="round"/>
<path d="M18.4902 9.75525H27.6391C28.0637 9.75525 28.4079 10.0995 28.4079 10.5241V11.6605C28.4079 12.0851 28.0637 12.4294 27.6391 12.4294H15.9251C15.5005 12.4294 15.1562 12.0851 15.1562 11.6605V10.5241C15.1562 10.0995 15.5005 9.75525 15.9251 9.75525" stroke="#111111" stroke-width="1.2" stroke-miterlimit="10" stroke-linecap="round" stroke-linejoin="round"/>
<path d="M8.13094 13.3088H5.42712C4.94957 13.3088 4.5625 12.9218 4.5625 12.4442V9.74047C4.5625 9.26293 4.94957 8.87585 5.42712 8.87585H8.13087C8.60841 8.87585 8.99549 9.26293 8.99549 9.74047V12.4442C8.99556 12.9217 8.60848 13.3088 8.13094 13.3088Z" stroke="#111111" stroke-width="0.9" stroke-miterlimit="10" stroke-linecap="round" stroke-linejoin="round"/>
<path d="M4.60156 17.573L6.77753 19.7631L10.184 16.0896" stroke="#111111" stroke-width="0.9" stroke-miterlimit="10" stroke-linecap="round" stroke-linejoin="round"/>
<path d="M24.1016 20.5239H15.9251C15.5005 20.5239 15.1562 20.1796 15.1562 19.755V18.6186C15.1562 18.194 15.5005 17.8497 15.9251 17.8497H26.1016" stroke="#111111" stroke-width="1.2" stroke-miterlimit="10" stroke-linecap="round" stroke-linejoin="round"/>
<path d="M8.13094 21.4034H5.42712C4.94957 21.4034 4.5625 21.0164 4.5625 20.5388V17.8351C4.5625 17.3575 4.94957 16.9705 5.42712 16.9705H8.13087C8.60841 16.9705 8.99549 17.3576 8.99549 17.8351V20.5388C8.99556 21.0164 8.60848 21.4034 8.13094 21.4034Z" stroke="#111111" stroke-width="0.9" stroke-miterlimit="10" stroke-linecap="round" stroke-linejoin="round"/>
<circle cx="3.07451" cy="2.65142" r="0.527636" fill="#111111"/>
<circle cx="5.16045" cy="2.65142" r="0.527636" fill="#111111"/>
</svg>
