<svg width="33" height="33" viewBox="0 0 33 33" fill="none" xmlns="http://www.w3.org/2000/svg">
<path d="M5.71899 32.0251C8.87244 32.0251 11.438 29.4596 11.438 26.3061C11.438 23.1527 8.87244 20.5872 5.71899 20.5872C2.56554 20.5872 0 23.1527 0 26.3061C0 29.4596 2.56554 32.0251 5.71899 32.0251ZM5.71899 22.8748C7.61083 22.8748 9.15038 24.4143 9.15038 26.3061C9.15038 28.198 7.61083 29.7375 5.71899 29.7375C3.82715 29.7375 2.2876 28.198 2.2876 26.3061C2.2876 24.4143 3.82715 22.8748 5.71899 22.8748Z" fill="#111111"/>
<path d="M32.0207 9.15038V1.1438C32.0207 0.512421 31.5083 0 30.8769 0H22.8704C22.239 0 21.7266 0.512421 21.7266 1.1438V9.15038C21.7266 9.78176 22.239 10.2942 22.8704 10.2942H30.8769C31.5083 10.2942 32.0207 9.78176 32.0207 9.15038ZM29.7331 8.00658H24.0142V2.2876H29.7331V8.00658Z" fill="#111111"/>
<path d="M6.8607 8.00619V14.3951L8.33954 12.9162C8.78674 12.469 9.50958 12.469 9.95678 12.9162C10.404 13.3634 10.404 14.0863 9.95678 14.5335L6.52559 17.9646C6.06924 18.421 5.34183 18.3993 4.90721 17.9646L1.47602 14.5335C1.02883 14.0863 1.02883 13.3634 1.47602 12.9162C1.92322 12.469 2.64606 12.469 3.09326 12.9162L4.57324 14.3951V8.00619C4.57324 5.48312 6.62509 3.43127 9.14816 3.43127H18.298C18.9293 3.43127 19.4417 3.94367 19.4417 4.575C19.4417 5.20634 18.9293 5.71873 18.298 5.71873H9.14816C7.88663 5.71873 6.8607 6.74466 6.8607 8.00619Z" fill="#111111"/>
<path d="M13.7188 26.3058C13.7188 25.6745 14.2311 25.1621 14.8625 25.1621H24.0123C25.2738 25.1621 26.2998 24.1362 26.2998 22.8747V16.4858L24.8209 17.9646C24.3737 18.4118 23.6509 18.4118 23.2037 17.9646C22.7565 17.5174 22.7565 16.7946 23.2037 16.3474L26.6349 12.9162C27.0787 12.4713 27.8095 12.4713 28.2533 12.9162L31.6845 16.3474C32.1316 16.7946 32.1316 17.5174 31.6845 17.9646C31.2373 18.4118 30.5144 18.4118 30.0672 17.9646L28.5872 16.4858V22.8747C28.5872 25.3977 26.5354 27.4496 24.0123 27.4496H14.8625C14.2311 27.4496 13.7188 26.9372 13.7188 26.3058Z" fill="#111111"/>
</svg>
