<svg width="22" height="22" viewBox="0 0 22 22" fill="none" xmlns="http://www.w3.org/2000/svg">
<path fill-rule="evenodd" clip-rule="evenodd" d="M3.35397 5.92333H12.5404C13.0074 5.92333 13.3865 5.54425 13.3865 5.07717C13.3865 4.61037 13.0074 4.23102 12.5404 4.23102H3.35397C2.88716 4.23102 2.50781 4.61037 2.50781 5.07717C2.50781 5.54425 2.88716 5.92333 3.35397 5.92333Z" fill="#2563FB"/>
<path fill-rule="evenodd" clip-rule="evenodd" d="M3.35397 17.7695H10.4695C10.9363 17.7695 11.3157 17.3904 11.3157 16.9233C11.3157 16.4565 10.9363 16.0771 10.4695 16.0771H3.35397C2.88716 16.0771 2.50781 16.4565 2.50781 16.9233C2.50781 17.3904 2.88716 17.7695 3.35397 17.7695Z" fill="#2563FB"/>
<path fill-rule="evenodd" clip-rule="evenodd" d="M3.35397 11.8462H8.69056C9.15763 11.8462 9.53671 11.4671 9.53671 11C9.53671 10.5329 9.15763 10.1539 8.69056 10.1539H3.35397C2.88716 10.1539 2.50781 10.5329 2.50781 11C2.50781 11.4671 2.88716 11.8462 3.35397 11.8462Z" fill="#2563FB"/>
<path fill-rule="evenodd" clip-rule="evenodd" d="M16.2428 7.17346C13.1509 7.17346 10.6406 9.68376 10.6406 12.7757C10.6406 15.8679 13.1509 18.3782 16.2428 18.3782C19.335 18.3782 21.8453 15.8679 21.8453 12.7757C21.8453 9.68376 19.335 7.17346 16.2428 7.17346ZM16.2428 8.86577C18.4009 8.86577 20.153 10.6176 20.153 12.7757C20.153 14.9337 18.4009 16.6859 16.2428 16.6859C14.0848 16.6859 12.3329 14.9337 12.3329 12.7757C12.3329 10.6176 14.0848 8.86577 16.2428 8.86577Z" fill="#2563FB"/>
<path fill-rule="evenodd" clip-rule="evenodd" d="M14.9297 11.1246V13.2853C14.9297 13.5103 15.0193 13.7259 15.1785 13.8848C15.338 14.0435 15.5541 14.1323 15.7788 14.1315L18.157 14.1228C18.6241 14.1209 19.0018 13.7405 19.0002 13.2734C18.9983 12.8063 18.6178 12.4286 18.1508 12.4305L16.622 12.4359V11.1246C16.622 10.6575 16.2429 10.2784 15.7758 10.2784C15.3088 10.2784 14.9297 10.6575 14.9297 11.1246Z" fill="#2563FB"/>
<path fill-rule="evenodd" clip-rule="evenodd" d="M17.7394 18.7833C17.2594 18.9029 16.7571 18.9663 16.2402 18.9663C16.1758 18.9663 16.1113 18.9655 16.0471 18.9633V19.8845C16.0471 19.9968 16.0025 20.1043 15.9231 20.1837C15.8438 20.263 15.7363 20.3077 15.6242 20.3077C12.6227 20.3077 5.11646 20.3077 2.11525 20.3077C1.88158 20.3077 1.69231 20.1184 1.69231 19.8848V2.11525C1.69231 1.88158 1.88158 1.69231 2.11525 1.69231H15.6242C15.7363 1.69231 15.8438 1.73698 15.9231 1.81632C16.0025 1.89566 16.0471 2.00315 16.0471 2.11552V6.58809C16.1113 6.58619 16.1758 6.58511 16.2402 6.58511C16.7571 6.58511 17.2594 6.64874 17.7394 6.76815V2.11552C17.7394 1.55449 17.5166 1.0162 17.1199 0.61952C16.7232 0.222843 16.1852 0 15.6242 0C12.6227 0 5.11646 0 2.11525 0C0.94688 0 0 0.947151 0 2.11525V19.8848C0 21.0529 0.94688 22 2.11525 22H15.6242C16.1852 22 16.7232 21.7772 17.1199 21.3805C17.5166 20.9838 17.7394 20.4455 17.7394 19.8845V18.7833Z" fill="#2563FB"/>
</svg>
