<svg width="42" height="41" viewBox="0 0 42 41" fill="none" xmlns="http://www.w3.org/2000/svg">
<path d="M20.6556 27.1351C20.4924 30.9638 17.2598 33.9321 13.4311 33.769C9.59141 33.6053 6.62309 30.3727 6.78627 26.544C6.82585 25.6171 7.03997 24.742 7.40521 23.9506C3.75084 23.3307 1.04826 20.0873 1.21002 16.2917C1.3572 12.8381 3.83103 10.0364 7.06603 9.34529C6.89523 8.68587 6.81401 7.99711 6.84461 7.27986C7.00778 3.45114 10.2409 0.471842 14.0806 0.635524C17.9092 0.798619 20.866 4.04175 20.7029 7.87047C20.5722 10.9378 20.8008 23.7256 20.6556 27.1351Z" fill="#1D1D1D"/>
<path d="M13.7347 34.4039C13.6246 34.4039 13.5145 34.4015 13.4044 34.397C11.38 34.3106 9.51223 33.4439 8.14457 31.9563C6.77733 30.4688 6.07182 28.5372 6.15775 26.5172C6.18927 25.7847 6.32022 25.0776 6.54775 24.4056C2.9412 23.4333 0.419921 20.0616 0.581567 16.2648C0.7293 12.8063 3.05701 9.85579 6.32349 8.88591C6.22896 8.34449 6.19295 7.79776 6.21627 7.25267C6.3947 3.07973 9.94396 -0.174067 14.1071 0.00722269C16.1258 0.0931613 17.9886 0.96196 19.3522 2.45402C20.7141 3.94362 21.4168 5.87683 21.3308 7.8968C21.2678 9.37453 21.2887 13.103 21.3112 17.0501C21.3345 21.1534 21.3582 25.3964 21.2834 27.1614C21.1974 29.1809 20.3307 31.0454 18.8427 32.4118C17.4366 33.7033 15.6335 34.4039 13.7347 34.4039ZM13.7813 1.25742C10.4203 1.25742 7.61707 3.91702 7.47262 7.30627C7.44561 7.93485 7.51354 8.56753 7.67437 9.1871C7.71734 9.35325 7.69074 9.52963 7.6007 9.67531C7.51067 9.821 7.36499 9.92413 7.1972 9.95973C4.1738 10.6059 1.97009 13.2205 1.83791 16.318C1.69181 19.7428 4.13042 22.7576 7.51026 23.331C7.70342 23.3637 7.86998 23.4844 7.96124 23.6575C8.0525 23.8306 8.05782 24.0365 7.97556 24.2141C7.63876 24.9437 7.4497 25.7364 7.4141 26.5708C7.34207 28.2548 7.93014 29.8656 9.07026 31.1051C10.2104 32.3459 11.7687 33.0686 13.4576 33.1406C15.1437 33.2164 16.7523 32.6246 17.9923 31.4857C19.2331 30.3468 19.9554 28.7922 20.027 27.1082C20.1011 25.373 20.0774 21.1457 20.054 17.0574C20.0315 13.0944 20.0106 9.35161 20.0745 7.8436C20.1465 6.15756 19.5605 4.54478 18.4245 3.30235C17.288 2.05911 15.7358 1.33477 14.0539 1.26356C13.9626 1.25947 13.8718 1.25742 13.7813 1.25742Z" fill="white"/>
<path d="M16.9651 15.9565C16.9561 15.9565 16.9471 15.9565 16.9381 15.956C16.5911 15.9413 16.3218 15.6479 16.3365 15.3013C16.3811 14.259 16.8284 13.2977 17.5969 12.5934C18.3634 11.8907 19.3546 11.529 20.3965 11.5728C20.7431 11.5879 21.0124 11.8809 20.9977 12.2279C20.9825 12.5746 20.6952 12.8434 20.3425 12.8291C19.6431 12.7935 18.9658 13.044 18.4461 13.5203C17.926 13.9971 17.6227 14.6486 17.5929 15.3545C17.5785 15.6925 17.2998 15.9565 16.9651 15.9565Z" fill="white"/>
<path d="M12.6649 25.5813C12.6559 25.5813 12.6469 25.5813 12.6375 25.5809C10.3261 25.4823 8.52634 23.5164 8.62496 21.1989C8.6401 20.8518 8.91388 20.5777 9.28014 20.5977C9.62676 20.6129 9.89603 20.9059 9.8813 21.2529C9.81173 22.8775 11.0726 24.2558 12.6911 24.3246C13.0381 24.3397 13.3074 24.6327 13.2927 24.9798C13.2779 25.3174 12.9996 25.5813 12.6649 25.5813Z" fill="white"/>
<path d="M10.4617 12.7402C10.199 12.7402 9.95425 12.5748 9.86586 12.3121C9.13784 10.1493 10.298 7.80033 12.4514 7.07517C12.7804 6.96714 13.1373 7.14147 13.2477 7.47049C13.3582 7.79951 13.1815 8.15595 12.8524 8.26685C11.3559 8.77062 10.5505 10.4055 11.0575 11.9111C11.168 12.2401 10.9912 12.5965 10.6622 12.7074C10.5959 12.7295 10.528 12.7402 10.4617 12.7402Z" fill="white"/>
<path d="M8.65053 24.6807C8.53472 24.6807 8.4185 24.6783 8.30269 24.6734C6.14604 24.5813 4.15513 23.6556 2.69785 22.067C1.2414 20.4792 0.490049 18.4187 0.581717 16.2649C0.673385 14.1107 1.59743 12.1218 3.18361 10.6637C4.77102 9.20483 6.83436 8.45226 8.9902 8.54393C9.53734 8.56725 10.0812 8.64582 10.6071 8.77719C10.9439 8.86149 11.1485 9.20279 11.0642 9.53959C10.9795 9.87638 10.6386 10.0802 10.3018 9.9967C9.85858 9.88579 9.39943 9.8195 8.93699 9.80027C7.11837 9.71883 5.37423 10.3576 4.0344 11.5894C2.6954 12.82 1.9154 14.4995 1.83806 16.3181C1.7603 18.1371 2.39502 19.8768 3.62394 21.217C4.8545 22.5585 6.53522 23.3397 8.3563 23.417C8.91039 23.442 9.46408 23.3978 10.0055 23.2881C10.3456 23.2186 10.6779 23.4391 10.7462 23.7792C10.8154 24.1197 10.5952 24.4512 10.2551 24.5199C9.72763 24.6267 9.18949 24.6807 8.65053 24.6807Z" fill="white"/>
<path d="M20.8076 27.1349C20.9708 30.9636 24.2035 33.9319 28.0321 33.7687C31.8718 33.605 34.8401 30.3725 34.6769 26.5437C34.6374 25.6169 34.4233 24.7417 34.058 23.9504C37.7124 23.3304 40.4149 20.087 40.2532 16.2914C40.106 12.8379 37.6322 10.0361 34.3972 9.34504C34.5681 8.68562 34.6492 7.99687 34.6186 7.27962C34.4554 3.4509 31.2223 0.471597 27.3827 0.63528C23.554 0.798375 20.5972 4.04151 20.7603 7.87023C20.8911 10.9375 20.6624 23.7254 20.8076 27.1349Z" fill="#1D1D1D"/>
<path d="M27.7326 34.4039C23.709 34.4039 20.3525 31.2197 20.1794 27.1614C20.1045 25.3976 20.1283 21.1579 20.1516 17.0583C20.1741 13.1075 20.1954 9.37576 20.1319 7.8972C19.9547 3.72345 23.195 0.18442 27.3561 0.00722272C31.5298 -0.167519 35.0689 3.07973 35.2469 7.25307C35.2698 7.79776 35.2334 8.3449 35.1393 8.88591C38.4062 9.85579 40.7339 12.8063 40.8812 16.2648C41.0433 20.0616 38.5224 23.4337 34.9154 24.4056C35.143 25.0776 35.2735 25.7847 35.305 26.5168C35.3909 28.5372 34.6854 30.4688 33.3182 31.9563C31.9509 33.4439 30.0828 34.3106 28.0587 34.397C27.9499 34.4015 27.841 34.4039 27.7326 34.4039ZM21.4357 27.1082C21.5839 30.5825 24.5373 33.3056 28.0055 33.1406C29.694 33.0686 31.2524 32.3459 32.3929 31.1051C33.5326 29.8656 34.1207 28.2548 34.0487 26.5704C34.0131 25.7368 33.8244 24.9437 33.4872 24.2141C33.4054 24.0361 33.4107 23.8306 33.5019 23.6575C33.5932 23.4844 33.7602 23.3637 33.9529 23.331C37.3328 22.7572 39.7714 19.7428 39.6249 16.3184C39.4931 13.2205 37.2894 10.6059 34.2656 9.95973C34.0978 9.92413 33.9521 9.82141 33.8621 9.67531C33.772 9.52963 33.7454 9.35325 33.7884 9.1871C33.9492 8.56793 34.0172 7.93485 33.9906 7.30627C33.842 3.82617 30.9021 1.10969 27.4093 1.26356C23.9411 1.41089 21.2401 4.36267 21.3883 7.8436C21.4525 9.35243 21.4312 13.0989 21.4087 17.0656C21.3858 21.1502 21.3617 25.3738 21.4357 27.1082Z" fill="white"/>
<path d="M24.4984 15.9564C24.1636 15.9564 23.8854 15.6924 23.8706 15.3548C23.8408 14.6485 23.5375 13.997 23.017 13.5202C22.4977 13.0443 21.8224 12.7992 21.1206 12.829C20.7547 12.8405 20.4806 12.5745 20.4654 12.2279C20.4507 11.8809 20.72 11.5878 21.0666 11.5727C22.0962 11.5277 23.0988 11.8907 23.8661 12.5933C24.6347 13.2972 25.0824 14.2589 25.127 15.3008C25.1417 15.6478 24.8724 15.9408 24.5258 15.956C24.5164 15.9564 24.5074 15.9564 24.4984 15.9564Z" fill="white"/>
<path d="M29.2607 25.7849C28.9526 25.7849 28.6837 25.5582 28.6391 25.2443C28.5904 24.9006 28.8298 24.5826 29.1736 24.5339C29.9527 24.4238 30.6411 24.0166 31.1113 23.3885C31.5819 22.7599 31.78 21.9831 31.6695 21.2015C31.6208 20.8578 31.8602 20.5398 32.2039 20.4911C32.5432 20.4424 32.8652 20.6818 32.9143 21.0255C33.0719 22.1387 32.7891 23.2452 32.118 24.1418C31.4456 25.0397 30.4622 25.6212 29.3495 25.7788C29.3197 25.7829 29.2902 25.7849 29.2607 25.7849Z" fill="white"/>
<path d="M31.0021 12.7399C30.9358 12.7399 30.8679 12.7293 30.8016 12.7072C30.4726 12.5963 30.2958 12.2399 30.4063 11.9108C30.6527 11.18 30.6007 10.3983 30.2602 9.70959C29.9209 9.02249 29.3353 8.51013 28.6118 8.26664C28.2828 8.15574 28.106 7.7993 28.2165 7.47028C28.327 7.14125 28.6838 6.96447 29.0129 7.07496C30.0556 7.42608 30.899 8.16392 31.3872 9.15263C31.8763 10.1417 31.9507 11.2639 31.598 12.3119C31.5096 12.5746 31.2645 12.7399 31.0021 12.7399Z" fill="white"/>
<path d="M32.8111 24.6807C32.3376 24.6807 31.8654 24.6394 31.4029 24.5571C31.0612 24.4966 30.8329 24.1704 30.8939 23.8287C30.9544 23.4866 31.2814 23.2599 31.6223 23.3196C32.1089 23.4056 32.6085 23.4408 33.1053 23.417C34.9268 23.3397 36.6076 22.5585 37.8381 21.217C39.0674 19.8768 39.7017 18.1371 39.624 16.3181C39.5467 14.4995 38.7667 12.82 37.4277 11.5894C36.0878 10.358 34.349 9.71514 32.5255 9.80026C32.0626 9.8195 31.6035 9.88579 31.1603 9.99669C30.8222 10.0802 30.4822 9.87638 30.3979 9.53958C30.3136 9.20279 30.5182 8.86149 30.855 8.77718C31.3808 8.64582 31.9247 8.56725 32.4723 8.54392C34.6224 8.45103 36.6914 9.20483 38.2784 10.6642C39.8646 12.1218 40.7887 14.1107 40.8803 16.2649C40.972 18.4187 40.2207 20.4792 38.7646 22.067C37.3069 23.6556 35.3164 24.5813 33.159 24.6734C33.0431 24.6783 32.9269 24.6807 32.8111 24.6807Z" fill="white"/>
<path d="M33.2707 37.6218H28.7913C28.0256 37.6218 27.4023 36.9985 27.4023 36.2324V33.7688C27.4023 33.4218 27.6839 33.1403 28.0309 33.1403C28.378 33.1403 28.6595 33.4218 28.6595 33.7688V36.2324C28.6595 36.3053 28.7184 36.3646 28.7913 36.3646H33.2707C33.6178 36.3646 33.8993 36.6461 33.8993 36.9932C33.8993 37.3402 33.6178 37.6218 33.2707 37.6218Z" fill="white"/>
<path d="M35.2843 39.6409C33.8266 39.6409 32.6406 38.4513 32.6406 36.9891C32.6406 35.5314 33.8266 34.3455 35.2843 34.3455C36.7464 34.3455 37.9361 35.5314 37.9361 36.9891C37.9361 38.4513 36.7464 39.6409 35.2843 39.6409ZM35.2843 35.6026C34.5198 35.6026 33.8978 36.2246 33.8978 36.9891C33.8978 37.758 34.5198 38.3838 35.2843 38.3838C36.0532 38.3838 36.6789 37.758 36.6789 36.9891C36.6789 36.2246 36.0532 35.6026 35.2843 35.6026Z" fill="white"/>
<path d="M12.9279 37.6218H8.44889C8.10186 37.6218 7.82031 37.3402 7.82031 36.9932C7.82031 36.6461 8.10186 36.3646 8.44889 36.3646H12.9279C13.0008 36.3646 13.0601 36.3053 13.0601 36.2324V33.7688C13.0601 33.4218 13.3417 33.1403 13.6887 33.1403C14.0357 33.1403 14.3173 33.4218 14.3173 33.7688V36.2324C14.3173 36.9985 13.694 37.6218 12.9279 37.6218Z" fill="white"/>
<path d="M6.43307 39.6409C4.97089 39.6409 3.78125 38.4513 3.78125 36.9891C3.78125 35.5314 4.97089 34.3455 6.43307 34.3455C7.89075 34.3455 9.0767 35.5314 9.0767 36.9891C9.0767 38.4513 7.89075 39.6409 6.43307 39.6409ZM6.43307 35.6026C5.66412 35.6026 5.03841 36.2246 5.03841 36.9891C5.03841 37.758 5.66412 38.3838 6.43307 38.3838C7.19751 38.3838 7.81955 37.758 7.81955 36.9891C7.81955 36.2246 7.19751 35.6026 6.43307 35.6026Z" fill="white"/>
<path d="M27.818 11.4066V22.5146C27.818 23.3516 27.1395 24.03 26.3026 24.03H15.2029C14.3659 24.03 13.6875 23.3516 13.6875 22.5146V11.4066C13.6875 10.5696 14.3659 9.89117 15.2029 9.89117H26.3026C27.1395 9.89117 27.818 10.5696 27.818 11.4066Z" fill="#1D1D1D"/>
<path d="M26.3021 24.6586H15.2026C14.0203 24.6586 13.0586 23.6969 13.0586 22.5147V11.4065C13.0586 10.2242 14.0203 9.26251 15.2026 9.26251H26.3021C27.4844 9.26251 28.4461 10.2242 28.4461 11.4065V22.5147C28.4461 23.6969 27.4844 24.6586 26.3021 24.6586ZM15.2026 10.5197C14.7135 10.5197 14.3158 10.9174 14.3158 11.4065V22.5147C14.3158 23.0037 14.7135 23.4015 15.2026 23.4015H26.3021C26.7912 23.4015 27.1889 23.0037 27.1889 22.5147V11.4065C27.1889 10.9174 26.7912 10.5197 26.3021 10.5197H15.2026Z" fill="white"/>
<path d="M20.3575 20.6358C20.0104 20.6358 19.7289 20.3543 19.7289 20.0073V15.9759C19.7289 15.1857 19.086 14.5428 18.2958 14.5428C17.5055 14.5428 16.8626 15.1857 16.8626 15.9759V20.0073C16.8626 20.3543 16.5811 20.6358 16.234 20.6358C15.887 20.6358 15.6055 20.3543 15.6055 20.0073V15.9759C15.6055 14.4925 16.8123 13.2856 18.2958 13.2856C19.7792 13.2856 20.986 14.4925 20.986 15.9759V20.0073C20.986 20.3543 20.7045 20.6358 20.3575 20.6358Z" fill="white"/>
<path d="M20.3576 17.8859H16.2301C15.8831 17.8859 15.6016 17.6043 15.6016 17.2573C15.6016 16.9103 15.8831 16.6287 16.2301 16.6287H20.3576C20.7047 16.6287 20.9862 16.9103 20.9862 17.2573C20.9862 17.6043 20.7047 17.8859 20.3576 17.8859Z" fill="white"/>
<path d="M23.9489 20.3988C23.6019 20.3988 23.3203 20.1173 23.3203 19.7702V14.4109C23.3203 14.0639 23.6019 13.7823 23.9489 13.7823C24.2959 13.7823 24.5775 14.0639 24.5775 14.4109V19.7702C24.5775 20.1173 24.2959 20.3988 23.9489 20.3988Z" fill="white"/>
<path d="M25.2785 15.0395H22.6169C22.2698 15.0395 21.9883 14.758 21.9883 14.4109C21.9883 14.0639 22.2698 13.7823 22.6169 13.7823H25.2785C25.6255 13.7823 25.9071 14.0639 25.9071 14.4109C25.9071 14.758 25.6255 15.0395 25.2785 15.0395Z" fill="white"/>
<path d="M25.2785 20.3989H22.6169C22.2698 20.3989 21.9883 20.1173 21.9883 19.7703C21.9883 19.4233 22.2698 19.1417 22.6169 19.1417H25.2785C25.6255 19.1417 25.9071 19.4233 25.9071 19.7703C25.9071 20.1173 25.6255 20.3989 25.2785 20.3989Z" fill="white"/>
<path d="M22.6101 40.7681C21.2461 40.7681 20.1367 39.6554 20.1367 38.2873C20.1367 36.9233 21.2461 35.8139 22.6101 35.8139C23.9782 35.8139 25.0909 36.9233 25.0909 38.2873C25.0909 39.6554 23.9782 40.7681 22.6101 40.7681ZM22.6101 37.0711C21.9394 37.0711 21.3939 37.6166 21.3939 38.2873C21.3939 38.9621 21.9394 39.5109 22.6101 39.5109C23.2849 39.5109 23.8337 38.9621 23.8337 38.2873C23.8337 37.6166 23.2849 37.0711 22.6101 37.0711Z" fill="white"/>
<path d="M22.613 37.0712C22.2659 37.0712 21.9844 36.7897 21.9844 36.4426V31.5184C21.9844 31.1713 22.2659 30.8898 22.613 30.8898C22.96 30.8898 23.2415 31.1713 23.2415 31.5184V36.4426C23.2415 36.7897 22.96 37.0712 22.613 37.0712Z" fill="white"/>
<path d="M2.48035 32.5584C1.1127 32.5584 0 31.4457 0 30.0776C0 28.7137 1.1127 27.6042 2.48035 27.6042C3.84432 27.6042 4.95375 28.7137 4.95375 30.0776C4.95375 31.4457 3.84432 32.5584 2.48035 32.5584ZM2.48035 28.8614C1.80594 28.8614 1.25716 29.4069 1.25716 30.0776C1.25716 30.7525 1.80594 31.3012 2.48035 31.3012C3.15108 31.3012 3.69659 30.7525 3.69659 30.0776C3.69659 29.4069 3.15108 28.8614 2.48035 28.8614Z" fill="white"/>
<path d="M7.58178 30.7092H4.32389C3.97686 30.7092 3.69531 30.4277 3.69531 30.0807C3.69531 29.7336 3.97686 29.4521 4.32389 29.4521H7.58178C7.92881 29.4521 8.21036 29.7336 8.21036 30.0807C8.21036 30.4277 7.92881 30.7092 7.58178 30.7092Z" fill="white"/>
<path d="M38.9339 32.5584C37.5704 32.5584 36.4609 31.4457 36.4609 30.0776C36.4609 28.7137 37.5704 27.6042 38.9339 27.6042C40.302 27.6042 41.4147 28.7137 41.4147 30.0776C41.4147 31.4457 40.302 32.5584 38.9339 32.5584ZM38.9339 28.8614C38.2636 28.8614 37.7181 29.4069 37.7181 30.0776C37.7181 30.7525 38.2636 31.3012 38.9339 31.3012C39.6087 31.3012 40.1575 30.7525 40.1575 30.0776C40.1575 29.4069 39.6087 28.8614 38.9339 28.8614Z" fill="white"/>
<path d="M37.09 30.7094H33.8317C33.4847 30.7094 33.2031 30.4278 33.2031 30.0808C33.2031 29.7338 33.4847 29.4522 33.8317 29.4522H37.09C37.437 29.4522 37.7186 29.7338 37.7186 30.0808C37.7186 30.4278 37.437 30.7094 37.09 30.7094Z" fill="white"/>
</svg>
