<svg width="22" height="22" viewBox="0 0 22 22" fill="none" xmlns="http://www.w3.org/2000/svg">
<path d="M9.05205 10.3635H1.31145C0.586565 10.3635 0 9.7744 0 9.05208V1.31148C0 0.586595 0.589126 3.05176e-05 1.31145 3.05176e-05H9.05205C9.77693 3.05176e-05 10.3635 0.589157 10.3635 1.31148V9.05208C10.3661 9.7744 9.77693 10.3635 9.05205 10.3635ZM1.53685 8.82668H8.82921V1.53432H1.53685V8.82668Z" fill="#818181"/>
<path d="M20.6692 10.3635H12.9286C12.2038 10.3635 11.6172 9.7744 11.6172 9.05208V1.31148C11.6172 0.586595 12.2063 3.05176e-05 12.9286 3.05176e-05H20.6692C21.3941 3.05176e-05 21.9807 0.589157 21.9807 1.31148V9.05208C21.9807 9.7744 21.3916 10.3635 20.6692 10.3635ZM13.1515 8.82668H20.4438V1.53432H13.1515V8.82668Z" fill="#818181"/>
<path d="M9.05205 22H1.31145C0.586565 22 0 21.4109 0 20.6886V12.9454C0 12.2205 0.589126 11.634 1.31145 11.634H9.05205C9.77693 11.634 10.3635 12.2231 10.3635 12.9454V20.686C10.3661 21.4109 9.77693 22 9.05205 22ZM1.53685 20.4632H8.82921V13.1708H1.53685V20.4632Z" fill="#818181"/>
<path d="M20.6692 22H12.9286C12.2038 22 11.6172 21.4109 11.6172 20.6886V12.9454C11.6172 12.2205 12.2063 11.634 12.9286 11.634H20.6692C21.3941 11.634 21.9807 12.2231 21.9807 12.9454V20.686C21.9807 21.4109 21.3916 22 20.6692 22ZM13.1515 20.4632H20.4438V13.1708H13.1515V20.4632Z" fill="#818181"/>
</svg>
