<svg width="32" height="32" viewBox="0 0 32 32" fill="none" xmlns="http://www.w3.org/2000/svg">
<path fill-rule="evenodd" clip-rule="evenodd" d="M15.9227 26.8442C23.5406 25.2103 24.6329 18.3912 24.8354 11.9093C24.8526 11.3602 25.3121 10.9287 25.8611 10.9457C26.4099 10.9629 26.8416 11.4226 26.8244 11.9713C26.5916 19.4214 25.0014 27.0596 16.1171 28.8363H15.7269C9.27555 27.546 6.66492 23.1871 5.6328 18.026C4.98325 14.7787 4.97656 11.2074 4.97656 7.96012C4.97656 7.55344 5.22444 7.18735 5.60223 7.03642L15.5523 3.05624C15.7902 2.9612 16.0552 2.96144 16.2929 3.05672L26.2009 7.0369C26.7105 7.24156 26.9579 7.82162 26.7533 8.33099C26.5486 8.8406 25.9686 9.08824 25.459 8.88359L15.921 5.05218L6.96725 8.63356C6.96892 11.5699 7.0045 14.7374 7.58408 17.6358C8.45191 21.9747 10.5768 25.6977 15.9227 26.8442ZM14.9269 16.5032L18.2033 13.2267C18.5916 12.8385 19.2223 12.8385 19.6106 13.2267C19.9989 13.615 19.9989 14.2457 19.6106 14.634L15.6304 18.614C15.2419 19.0025 14.6119 19.0025 14.2234 18.614L12.2332 16.624C11.8449 16.2357 11.8449 15.605 12.2332 15.2167C12.6215 14.8284 13.2521 14.8284 13.6404 15.2167L14.9269 16.5032Z" fill="#333333"/>
</svg>
