<svg width="26" height="26" viewBox="0 0 26 26" fill="none" xmlns="http://www.w3.org/2000/svg">
<path fill-rule="evenodd" clip-rule="evenodd" d="M12.1875 16.25C12.1875 15.6033 11.9308 14.9833 11.4733 14.5267C11.0167 14.0693 10.3968 13.8125 9.75 13.8125C8.13638 13.8125 5.67613 13.8125 4.0625 13.8125C3.41575 13.8125 2.79581 14.0693 2.33919 14.5267C1.88175 14.9833 1.625 15.6033 1.625 16.25V21.9375C1.625 22.5843 1.88175 23.2042 2.33919 23.6608C2.79581 24.1183 3.41575 24.375 4.0625 24.375H9.75C10.3968 24.375 11.0167 24.1183 11.4733 23.6608C11.9308 23.2042 12.1875 22.5843 12.1875 21.9375V16.25ZM24.375 16.25C24.375 15.6033 24.1183 14.9833 23.6608 14.5267C23.2042 14.0693 22.5843 13.8125 21.9375 13.8125C20.3239 13.8125 17.8636 13.8125 16.25 13.8125C15.6033 13.8125 14.9833 14.0693 14.5267 14.5267C14.0692 14.9833 13.8125 15.6033 13.8125 16.25V21.9375C13.8125 22.5843 14.0692 23.2042 14.5267 23.6608C14.9833 24.1183 15.6033 24.375 16.25 24.375H21.9375C22.5843 24.375 23.2042 24.1183 23.6608 23.6608C24.1183 23.2042 24.375 22.5843 24.375 21.9375V16.25ZM10.5625 16.25V21.9375C10.5625 22.1528 10.4772 22.36 10.3244 22.5119C10.1725 22.6647 9.96531 22.75 9.75 22.75H4.0625C3.84719 22.75 3.64 22.6647 3.48806 22.5119C3.33531 22.36 3.25 22.1528 3.25 21.9375V16.25C3.25 16.0347 3.33531 15.8275 3.48806 15.6756C3.64 15.5228 3.84719 15.4375 4.0625 15.4375H9.75C9.96531 15.4375 10.1725 15.5228 10.3244 15.6756C10.4772 15.8275 10.5625 16.0347 10.5625 16.25ZM22.75 16.25V21.9375C22.75 22.1528 22.6647 22.36 22.5119 22.5119C22.36 22.6647 22.1528 22.75 21.9375 22.75H16.25C16.0347 22.75 15.8275 22.6647 15.6756 22.5119C15.5228 22.36 15.4375 22.1528 15.4375 21.9375V16.25C15.4375 16.0347 15.5228 15.8275 15.6756 15.6756C15.8275 15.5228 16.0347 15.4375 16.25 15.4375H21.9375C22.1528 15.4375 22.36 15.5228 22.5119 15.6756C22.6647 15.8275 22.75 16.0347 22.75 16.25ZM20.8171 12.0193L24.2068 8.62958C25.1583 7.67814 25.1583 6.13438 24.2068 5.18295L20.8171 1.7932C19.8656 0.841761 18.3219 0.841761 17.3704 1.7932L13.9807 5.18295C13.0293 6.13438 13.0293 7.67814 13.9807 8.62958L17.3704 12.0193C18.3219 12.9708 19.8656 12.9708 20.8171 12.0193ZM12.1875 4.06251C12.1875 3.41576 11.9308 2.79582 11.4733 2.3392C11.0167 1.88176 10.3968 1.62501 9.75 1.62501C8.13638 1.62501 5.67613 1.62501 4.0625 1.62501C3.41575 1.62501 2.79581 1.88176 2.33919 2.3392C1.88175 2.79582 1.625 3.41576 1.625 4.06251V9.75001C1.625 10.3968 1.88175 11.0167 2.33919 11.4733C2.79581 11.9308 3.41575 12.1875 4.0625 12.1875H9.75C10.3968 12.1875 11.0167 11.9308 11.4733 11.4733C11.9308 11.0167 12.1875 10.3968 12.1875 9.75001V4.06251ZM23.0579 7.4807L19.6682 10.8704C19.3513 11.1873 18.8362 11.1873 18.5193 10.8704L15.1296 7.4807C14.8127 7.16382 14.8127 6.6487 15.1296 6.33182L18.5193 2.94207C18.8362 2.6252 19.3513 2.6252 19.6682 2.94207L23.0579 6.33182C23.3748 6.6487 23.3748 7.16382 23.0579 7.4807ZM10.5625 4.06251V9.75001C10.5625 9.96532 10.4772 10.1725 10.3244 10.3244C10.1725 10.4772 9.96531 10.5625 9.75 10.5625H4.0625C3.84719 10.5625 3.64 10.4772 3.48806 10.3244C3.33531 10.1725 3.25 9.96532 3.25 9.75001V4.06251C3.25 3.8472 3.33531 3.64001 3.48806 3.48807C3.64 3.33532 3.84719 3.25001 4.0625 3.25001H9.75C9.96531 3.25001 10.1725 3.33532 10.3244 3.48807C10.4772 3.64001 10.5625 3.8472 10.5625 4.06251Z" fill="white"/>
</svg>
