<svg width="24" height="24" viewBox="0 0 24 24" fill="none" xmlns="http://www.w3.org/2000/svg">
<rect width="24" height="24" rx="12" fill="#D3D3D3"/>
<path d="M11.1006 18.036C14.2932 18.8915 17.592 16.9869 18.4474 13.7943C18.7378 12.7108 18.719 11.5755 18.3965 10.5078C18.3014 10.1905 17.9639 10.0131 17.6466 10.1081C17.3292 10.2032 17.1518 10.5407 17.2469 10.8581C17.5032 11.7092 17.5199 12.6204 17.2886 13.4838C16.6039 16.0391 13.9664 17.5618 11.4111 16.8771C8.8558 16.1925 7.33302 13.5549 8.01771 10.9997C8.70239 8.44437 11.3399 6.9216 13.8952 7.60628C14.2139 7.69167 14.5445 7.5008 14.6299 7.18211C14.7153 6.86343 14.5244 6.53282 14.2057 6.44742C11.0131 5.59196 7.71432 7.49648 6.85885 10.6891C6.00338 13.8818 7.90791 17.1805 11.1006 18.036Z" fill="#333333"/>
</svg>
