<svg width="37" height="30" viewBox="0 0 37 30" fill="none" xmlns="http://www.w3.org/2000/svg">
<path fill-rule="evenodd" clip-rule="evenodd" d="M6.76068 13.5333C7.40983 13.5333 7.93812 14.0665 7.93812 14.721C7.93812 15.3755 7.40983 15.9084 6.76068 15.9084C6.11161 15.9084 5.5838 15.3756 5.5838 14.721C5.5838 14.0664 6.11161 13.5333 6.76068 13.5333ZM14.351 5.97721C15.0001 5.97721 15.528 6.50994 15.528 7.16447C15.528 7.81908 15.0001 8.3523 14.351 8.3523C13.7014 8.3523 13.1736 7.81908 13.1736 7.16447C13.1736 6.50994 13.7014 5.97721 14.351 5.97721ZM21.9503 13.5333C22.5994 13.5333 23.1277 14.0665 23.1277 14.721C23.1277 15.3755 22.5994 15.9084 21.9503 15.9084C21.3012 15.9084 20.7729 15.3756 20.7729 14.721C20.7729 14.0664 21.3012 13.5333 21.9503 13.5333ZM29.5397 5.97721C30.1887 5.97721 30.717 6.50994 30.717 7.16447C30.717 7.81908 30.1887 8.3523 29.5397 8.3523C28.8906 8.3523 28.3622 7.81908 28.3622 7.16447C28.3623 6.50994 28.8906 5.97721 29.5397 5.97721ZM6.76068 17.0056C8.52569 17.0056 9.59868 15.0571 8.70749 13.5536L13.1685 9.11199C13.8938 9.56206 14.8089 9.56246 15.5341 9.11151L20.0025 13.555C19.1133 15.0621 20.1886 17.0056 21.9503 17.0056C23.7099 17.0056 24.7902 15.0645 23.8966 13.5536L28.3571 9.11199C29.8556 10.0404 31.8047 8.9518 31.8047 7.16439C31.8047 5.90506 30.7885 4.88033 29.5397 4.88033C27.7805 4.88033 26.6996 6.8207 27.5933 8.33181L23.1324 12.7734C22.4071 12.3228 21.4915 12.3235 20.7663 12.7739L16.2979 8.33037C17.1889 6.82375 16.1126 4.88033 14.3511 4.88033C12.5926 4.88033 11.5113 6.81845 12.4043 8.33181L7.9433 12.7734C6.44837 11.8459 4.49574 12.931 4.49574 14.7209C4.49566 15.9803 5.51185 17.0056 6.76068 17.0056ZM27.7696 28.1097V12.9208H31.3393V28.1097H27.7696ZM20.1755 28.1097V19.9153H23.7448V28.1098L20.1755 28.1097ZM12.581 28.1097V14.2485H16.1512V28.1097H12.581ZM4.98731 28.1097V21.549H8.5566V28.1097H4.98731ZM9.64473 25.8646H11.4928V28.1097H9.64473V25.8646ZM17.2393 25.8646H19.0874V28.1097H17.2393V25.8646ZM24.8329 25.8646H26.6815V28.1097H24.8329V25.8646ZM3.07292 24.7674H3.89918V21.0007C3.89918 20.6978 4.14313 20.4518 4.443 20.4518H9.1009C9.40078 20.4518 9.64473 20.6978 9.64473 21.0007V24.7674H11.4928V13.7001C11.4928 13.3962 11.7368 13.1512 12.0371 13.1512H16.695C16.9954 13.1512 17.2393 13.3962 17.2393 13.7001V24.7673H19.0874V19.3663C19.0874 19.0635 19.3309 18.8179 19.6313 18.8179H24.2887C24.59 18.8179 24.833 19.0635 24.833 19.3663V24.7673H26.6816V12.3724C26.6816 12.0695 26.9255 11.824 27.2259 11.824H31.8833C32.1837 11.824 32.4276 12.0695 32.4276 12.3724V24.7673H33.2535C34.029 24.7673 34.6602 24.1312 34.6602 23.3487V2.72288C34.6602 1.94125 34.029 1.30423 33.2535 1.30423H3.07292C2.29781 1.30423 1.66571 1.94125 1.66571 2.72288V23.3487C1.66571 24.1312 2.29781 24.7674 3.07292 24.7674ZM35.5719 28.1097H32.4275V25.8646H33.2533C34.6286 25.8646 35.7482 24.736 35.7482 23.3487V2.72288C35.7482 1.33557 34.6286 0.207031 33.2533 0.207031H3.07292C1.69766 0.207031 0.578056 1.33557 0.578056 2.72288V23.3487C0.578056 24.736 1.69766 25.8646 3.07292 25.8646H3.89918V28.1097H0.754764C0.454409 28.1097 0.210938 28.3553 0.210938 28.6581C0.210938 28.9615 0.454409 29.207 0.754764 29.207H35.5719C35.8717 29.207 36.1157 28.9615 36.1157 28.6581C36.1158 28.3553 35.8717 28.1097 35.5719 28.1097Z" fill="#111111" stroke="#111111" stroke-width="0.414286"/>
</svg>
