<svg width="30" height="30" viewBox="0 0 30 30" fill="none" xmlns="http://www.w3.org/2000/svg">
<path d="M26.75 6.02501H22.6C21.6 6.02501 20.625 5.75001 19.8 5.22501C18.725 4.57501 17.475 4.22501 16.225 4.22501C15.775 4.22501 15.35 4.40001 15 4.65001C14.675 4.37501 14.25 4.22501 13.775 4.22501C12.5 4.22501 11.275 4.57501 10.2 5.22501C9.35 5.75001 8.375 6.02501 7.4 6.02501H3.25C2.85 6.02501 2.5 6.35001 2.5 6.77501V24C2.5 24.4 2.825 24.75 3.25 24.75H7.4H11.575C12.35 25.425 13.35 25.8 14.4 25.8H15.625C16.675 25.8 17.65 25.425 18.45 24.75H22.625H24.15H26.75C27.15 24.75 27.5 24.425 27.5 24V6.75001C27.5 6.35001 27.175 6.02501 26.75 6.02501ZM26.025 23.25H24.125H22.6C21.6 23.25 20.625 22.975 19.8 22.45C18.725 21.8 17.475 21.45 16.225 21.45H15.75V6.17501C15.75 5.92501 15.975 5.72501 16.225 5.72501C17.225 5.72501 18.2 6.00001 19.025 6.52501C20.1 7.17501 21.35 7.52501 22.6 7.52501H26.025V23.25ZM17.625 23.475C17.4 23.7 17.15 23.875 16.875 24C16.5 24.2 16.075 24.3 15.625 24.3H14.4C13.95 24.3 13.525 24.175 13.15 24C12.875 23.875 12.625 23.7 12.4 23.475C12.275 23.35 12.125 23.3 11.975 23.275C12.55 23.075 13.175 22.95 13.8 22.95H15H16.225C16.85 22.95 17.475 23.075 18.05 23.275C17.95 23.3 17.825 23.325 17.75 23.375C17.675 23.4 17.65 23.425 17.625 23.475ZM3.975 7.50001H7.4C8.675 7.50001 9.9 7.15001 10.975 6.50001C11.825 5.97501 12.8 5.70001 13.775 5.70001C14.025 5.70001 14.25 5.90001 14.25 6.15001V21.425H13.775C12.5 21.425 11.275 21.775 10.2 22.425C9.35 22.95 8.375 23.225 7.4 23.225H3.975V7.50001Z" fill="#333333"/>
</svg>
