<svg width="28" height="28" viewBox="0 0 28 28" fill="none" xmlns="http://www.w3.org/2000/svg">
<path d="M14.0026 2.33334C14.6469 2.33334 15.1693 2.85567 15.1693 3.5V4.66667C15.1693 5.311 14.6469 5.83334 14.0026 5.83334C13.3583 5.83334 12.8359 5.311 12.8359 4.66667V3.5C12.8359 2.85567 13.3583 2.33334 14.0026 2.33334ZM22.2522 5.75041C22.7079 6.20603 22.7079 6.94472 22.2522 7.40033L21.4273 8.22529C20.9717 8.6809 20.233 8.6809 19.7774 8.22529C19.3218 7.76968 19.3218 7.03098 19.7774 6.57537L20.6023 5.75042C21.0579 5.2948 21.7966 5.2948 22.2522 5.75041ZM5.75302 5.75042C6.20863 5.2948 6.94732 5.2948 7.40293 5.75042L8.22789 6.57537C8.6835 7.03099 8.6835 7.76968 8.22789 8.22529C7.77228 8.6809 7.03359 8.6809 6.57798 8.22529L5.75302 7.40033C5.29741 6.94472 5.29741 6.20603 5.75302 5.75042ZM14.0026 9.33333C11.4253 9.33333 9.33594 11.4227 9.33594 14C9.33594 16.5773 11.4253 18.6667 14.0026 18.6667C16.5799 18.6667 18.6693 16.5773 18.6693 14C18.6693 11.4227 16.5799 9.33333 14.0026 9.33333ZM7.0026 14C7.0026 10.134 10.1366 7 14.0026 7C17.8686 7 21.0026 10.134 21.0026 14C21.0026 17.866 17.8686 21 14.0026 21C10.1366 21 7.0026 17.866 7.0026 14ZM2.33594 14C2.33594 13.3557 2.85827 12.8333 3.5026 12.8333H4.66927C5.3136 12.8333 5.83594 13.3557 5.83594 14C5.83594 14.6443 5.3136 15.1667 4.66927 15.1667H3.5026C2.85827 15.1667 2.33594 14.6443 2.33594 14ZM22.1693 14C22.1693 13.3557 22.6916 12.8333 23.3359 12.8333H24.5026C25.1469 12.8333 25.6693 13.3557 25.6693 14C25.6693 14.6443 25.1469 15.1667 24.5026 15.1667H23.3359C22.6916 15.1667 22.1693 14.6443 22.1693 14ZM6.57798 19.7747C7.03359 19.3191 7.77228 19.3191 8.22789 19.7747C8.6835 20.2303 8.6835 20.969 8.22789 21.4246L7.40293 22.2496C6.94732 22.7052 6.20863 22.7052 5.75302 22.2496C5.29741 21.794 5.29741 21.0553 5.75302 20.5997L6.57798 19.7747ZM19.7774 21.4246C19.3218 20.969 19.3218 20.2303 19.7774 19.7747C20.233 19.3191 20.9717 19.3191 21.4273 19.7747L22.2522 20.5997C22.7079 21.0553 22.7079 21.794 22.2522 22.2496C21.7966 22.7052 21.0579 22.7052 20.6023 22.2496L19.7774 21.4246ZM14.0026 22.1667C14.6469 22.1667 15.1693 22.689 15.1693 23.3333V24.5C15.1693 25.1443 14.6469 25.6667 14.0026 25.6667C13.3583 25.6667 12.8359 25.1443 12.8359 24.5V23.3333C12.8359 22.689 13.3583 22.1667 14.0026 22.1667Z" fill="#333333"/>
</svg>
