<svg width="24" height="9" viewBox="0 0 24 9" fill="none" xmlns="http://www.w3.org/2000/svg">
<path d="M23.1429 3.43287H11.9143C11.7176 2.46405 11.1919 1.59303 10.4265 0.967401C9.66107 0.34177 8.70288 0 7.71429 0C6.7257 0 5.7675 0.34177 5.00206 0.967401C4.23663 1.59303 3.71101 2.46405 3.51429 3.43287H0.857143C0.629814 3.43287 0.411797 3.52317 0.251051 3.68392C0.0903058 3.84467 0 4.06268 0 4.29001C0 4.51734 0.0903058 4.73536 0.251051 4.8961C0.411797 5.05685 0.629814 5.14715 0.857143 5.14715H3.51429C3.71101 6.11597 4.23663 6.98699 5.00206 7.61262C5.7675 8.23825 6.7257 8.58002 7.71429 8.58002C8.70288 8.58002 9.66107 8.23825 10.4265 7.61262C11.1919 6.98699 11.7176 6.11597 11.9143 5.14715H23.1429C23.3702 5.14715 23.5882 5.05685 23.7489 4.8961C23.9097 4.73536 24 4.51734 24 4.29001C24 4.06268 23.9097 3.84467 23.7489 3.68392C23.5882 3.52317 23.3702 3.43287 23.1429 3.43287ZM7.71429 6.86144C7.20571 6.86144 6.70855 6.71063 6.28568 6.42808C5.86281 6.14552 5.53322 5.74392 5.3386 5.27405C5.14397 4.80419 5.09305 4.28716 5.19227 3.78835C5.29149 3.28954 5.53639 2.83136 5.89601 2.47174C6.25563 2.11212 6.71382 1.86721 7.21263 1.76799C7.71143 1.66877 8.22846 1.7197 8.69833 1.91432C9.1682 2.10895 9.5698 2.43853 9.85235 2.8614C10.1349 3.28427 10.2857 3.78143 10.2857 4.29001C10.2857 4.972 10.0148 5.62605 9.53256 6.10829C9.05032 6.59052 8.39627 6.86144 7.71429 6.86144Z" fill="#111111"/>
</svg>
