<svg width="24" height="24" viewBox="0 0 24 24" fill="none" xmlns="http://www.w3.org/2000/svg">
<g clip-path="url(#clip0_1_15639)">
<path d="M18.7318 23.3333H4.63461C3.15972 23.3333 1.96094 22.1345 1.96094 20.6596V2.67367C1.96094 1.19878 3.15972 0 4.63461 0H15.8345C16.4898 0 17.1209 0.23908 17.6108 0.674692L20.508 3.2492C21.0788 3.75763 21.4054 4.4859 21.4054 5.248V20.6596C21.4054 22.1345 20.2066 23.3333 18.7318 23.3333ZM4.63461 1.45833C3.96472 1.45833 3.41927 2.00378 3.41927 2.67367V20.6596C3.41927 21.3295 3.96472 21.875 4.63461 21.875H18.7318C19.4016 21.875 19.9471 21.3295 19.9471 20.6596V5.248C19.9471 4.90193 19.7983 4.57046 19.5387 4.33904L16.6415 1.76452C16.4188 1.56728 16.132 1.45833 15.8345 1.45833H4.63461Z" fill="#333333"/>
<path d="M5.60417 5.83332C5.20166 5.83332 4.875 5.50666 4.875 5.10415V3.64582C4.875 3.24332 5.20166 2.91666 5.60417 2.91666C6.00667 2.91666 6.33333 3.24332 6.33333 3.64582V5.10415C6.33333 5.50666 6.00667 5.83332 5.60417 5.83332Z" fill="#333333"/>
<path d="M8.51823 5.83332C8.11573 5.83332 7.78906 5.50666 7.78906 5.10415V3.64582C7.78906 3.24332 8.11573 2.91666 8.51823 2.91666C8.92073 2.91666 9.24739 3.24332 9.24739 3.64582V5.10415C9.24739 5.50666 8.92073 5.83332 8.51823 5.83332Z" fill="#333333"/>
<path d="M11.4401 5.83332C11.0376 5.83332 10.7109 5.50666 10.7109 5.10415V3.64582C10.7109 3.24332 11.0376 2.91666 11.4401 2.91666C11.8426 2.91666 12.1693 3.24332 12.1693 3.64582V5.10415C12.1693 5.50666 11.8426 5.83332 11.4401 5.83332Z" fill="#333333"/>
<path d="M14.3542 5.83332C13.9517 5.83332 13.625 5.50666 13.625 5.10415V3.64582C13.625 3.24332 13.9517 2.91666 14.3542 2.91666C14.7567 2.91666 15.0833 3.24332 15.0833 3.64582V5.10415C15.0833 5.50666 14.7567 5.83332 14.3542 5.83332Z" fill="#333333"/>
<path d="M17.757 20.4166H5.60417C5.20166 20.4166 4.875 20.09 4.875 19.6875V12.3958C4.875 11.9933 5.20166 11.6666 5.60417 11.6666H17.757C18.1595 11.6666 18.4862 11.9933 18.4862 12.3958V19.6875C18.4862 20.09 18.1595 20.4166 17.757 20.4166ZM6.33333 18.9583H17.0278V13.125H6.33333V18.9583Z" fill="#333333"/>
</g>
<defs>
<clipPath id="clip0_1_15639">
<rect width="23.3333" height="23.3333" fill="white"/>
</clipPath>
</defs>
</svg>
