<svg width="27" height="24" viewBox="0 0 27 24" fill="none" xmlns="http://www.w3.org/2000/svg">
<path d="M10.3081 16.7695C10.2094 16.7695 10.11 16.7356 10.0289 16.6665L7.23759 14.2897C7.1413 14.2076 7.08594 14.0877 7.08594 13.9611C7.08594 13.8347 7.14154 13.7148 7.23759 13.6328L10.0289 11.256C10.2102 11.1014 10.4824 11.1233 10.6369 11.3046C10.7912 11.4861 10.7696 11.7583 10.5881 11.9126L8.18263 13.9611L10.5881 16.0096C10.7696 16.1641 10.7912 16.4364 10.6369 16.6176C10.5515 16.718 10.4302 16.7695 10.3081 16.7695Z" fill="#333333"/>
<path d="M15.8144 16.7695C15.6923 16.7695 15.571 16.718 15.4858 16.6176C15.3313 16.4364 15.3532 16.1641 15.5344 16.0096L17.9399 13.9611L15.5344 11.9126C15.3532 11.7583 15.3313 11.4861 15.4858 11.3046C15.6401 11.1233 15.9126 11.1014 16.0936 11.256L18.8849 13.6328C18.9812 13.7148 19.0366 13.8347 19.0366 13.9611C19.0366 14.0877 18.9812 14.2076 18.8849 14.2897L16.0936 16.6665C16.0125 16.7356 15.9131 16.7695 15.8144 16.7695Z" fill="#333333"/>
<path d="M12.0727 18.5522C12.0431 18.5522 12.0132 18.5491 11.9831 18.5428C11.7501 18.4937 11.6009 18.2648 11.65 18.0318L13.3896 9.77218C13.4387 9.53917 13.6674 9.38993 13.9006 9.43904C14.1337 9.48814 14.2829 9.71682 14.2338 9.95007L12.4942 18.2097C12.4513 18.4128 12.2722 18.5522 12.0727 18.5522Z" fill="#333333"/>
<path d="M23.2318 23.0522H2.89627C1.29937 23.0522 0 21.7531 0 20.1559V2.89627C0 1.29937 1.29937 0 2.89627 0H23.2318C24.8287 0 26.128 1.29937 26.128 2.89627V20.1559C26.128 21.7531 24.8287 23.0522 23.2318 23.0522ZM2.89627 0.862718C1.77502 0.862718 0.862718 1.77502 0.862718 2.89627V20.1559C0.862718 21.2772 1.77502 22.1895 2.89627 22.1895H23.2318C24.353 22.1895 25.2653 21.2772 25.2653 20.1559V2.89627C25.2653 1.77502 24.353 0.862718 23.2318 0.862718H2.89627Z" fill="#333333"/>
<path d="M25.6967 6.90715H0.431359C0.193052 6.90715 0 6.7141 0 6.47579C0 6.23773 0.193052 6.04443 0.431359 6.04443H25.6967C25.935 6.04443 26.128 6.23773 26.128 6.47579C26.128 6.7141 25.935 6.90715 25.6967 6.90715Z" fill="#333333"/>
<path d="M7.36509 4.84309C6.61262 4.84309 6 4.23047 6 3.478C6 2.72529 6.61262 2.11292 7.36509 2.11292C8.1178 2.11292 8.73018 2.72529 8.73018 3.478C8.73018 4.23047 8.1178 4.84309 7.36509 4.84309ZM7.36509 2.97563C7.08827 2.97563 6.86272 3.20094 6.86272 3.478C6.86272 3.75506 7.08827 3.98037 7.36509 3.98037C7.64215 3.98037 7.86746 3.75506 7.86746 3.478C7.86746 3.20094 7.64215 2.97563 7.36509 2.97563Z" fill="#333333"/>
<path d="M3.16978 4.82991C2.41706 4.82991 1.80469 4.21753 1.80469 3.46482C1.80469 2.71211 2.41706 2.09973 3.16978 2.09973C3.92249 2.09973 4.53486 2.71211 4.53486 3.46482C4.53486 4.21753 3.92249 4.82991 3.16978 4.82991ZM3.16978 2.96245C2.89295 2.96245 2.66741 3.188 2.66741 3.46482C2.66741 3.74188 2.89295 3.96719 3.16978 3.96719C3.44684 3.96719 3.67215 3.74188 3.67215 3.46482C3.67215 3.188 3.44684 2.96245 3.16978 2.96245Z" fill="#333333"/>
<path d="M11.568 4.85616C10.8155 4.85616 10.2031 4.24378 10.2031 3.49107C10.2031 2.7386 10.8155 2.12622 11.568 2.12622C12.3207 2.12622 12.9331 2.7386 12.9331 3.49107C12.9331 4.24378 12.3207 4.85616 11.568 4.85616ZM11.568 2.9887C11.2912 2.9887 11.0658 3.21401 11.0658 3.49107C11.0658 3.76813 11.2912 3.99344 11.568 3.99344C11.845 3.99344 12.0703 3.76813 12.0703 3.49107C12.0703 3.21401 11.845 2.9887 11.568 2.9887Z" fill="#333333"/>
</svg>
