<svg width="36" height="36" viewBox="0 0 36 36" fill="none" xmlns="http://www.w3.org/2000/svg">
<path d="M2.65695 2.6889C2.6186 2.69449 2.58611 2.70541 2.55309 2.71633C2.52059 2.73258 2.48757 2.74883 2.4604 2.77067C2.42791 2.78718 2.40021 2.81434 2.3789 2.83618C2.27503 2.93446 2.21484 3.07615 2.21484 3.22343C2.21484 3.29427 2.23136 3.36538 2.25852 3.43064C2.28569 3.49615 2.32937 3.55608 2.3789 3.60535C2.40021 3.63252 2.42791 3.65436 2.4604 3.67619C2.48757 3.69244 2.52059 3.71428 2.55309 3.7252C2.58611 3.74171 2.6186 3.75263 2.65695 3.75796C2.68945 3.76355 2.7278 3.76888 2.76029 3.76888C2.90784 3.76888 3.0442 3.70895 3.14754 3.60535C3.19708 3.55608 3.24022 3.49615 3.26792 3.43064C3.29509 3.36538 3.30574 3.29427 3.30574 3.22343C3.30574 3.07615 3.25141 2.93446 3.14754 2.83618C3.02236 2.71074 2.83114 2.65082 2.65695 2.6889Z" fill="white"/>
<path d="M5.21838 2.77068C5.18536 2.74885 5.15287 2.7326 5.11984 2.71635C5.08735 2.70543 5.05432 2.69451 5.02183 2.68892C4.91264 2.66708 4.80344 2.678 4.70543 2.71635C4.63991 2.74352 4.57972 2.7872 4.52539 2.8362C4.42738 2.93981 4.36719 3.07617 4.36719 3.22345C4.36719 3.3654 4.42738 3.50709 4.52539 3.6107C4.62926 3.70897 4.77095 3.7689 4.91264 3.7689C4.95099 3.7689 4.98348 3.76357 5.02183 3.75798C5.05432 3.75265 5.08735 3.74173 5.11984 3.72522C5.15287 3.7143 5.18536 3.69246 5.21838 3.67621C5.24555 3.65437 5.27272 3.63253 5.29988 3.6107C5.34889 3.5561 5.38724 3.49617 5.4144 3.43066C5.44743 3.3654 5.45808 3.29429 5.45808 3.22345C5.45808 3.07617 5.39789 2.93981 5.29988 2.8362C5.27272 2.80904 5.24555 2.7872 5.21838 2.77068Z" fill="white"/>
<path d="M7.45081 2.8361C7.25425 2.63422 6.88352 2.63422 6.68164 2.8361C6.63263 2.88511 6.59428 2.9453 6.56179 3.01055C6.53409 3.08166 6.52344 3.1525 6.52344 3.22335C6.52344 3.3653 6.57777 3.50699 6.68164 3.60527C6.78498 3.70887 6.9272 3.7688 7.06889 3.7688C7.21057 3.7688 7.35226 3.70887 7.45081 3.60527C7.55414 3.50699 7.61433 3.3653 7.61433 3.22335C7.61433 3.1525 7.59782 3.08166 7.57065 3.01055C7.54349 2.9453 7.50514 2.88511 7.45081 2.8361Z" fill="white"/>
<path d="M34.3632 0H20.727C19.8247 0 19.0907 0.734011 19.0907 1.63634V10.2363C19.0707 10.2355 19.0517 10.2309 19.0316 10.2309H16.9606C16.9429 10.2309 16.9264 10.2349 16.9089 10.2355V1.63634C16.9089 0.734011 16.1749 0 15.2725 0H1.63634C0.734011 0 0 0.734011 0 1.63634V24.7199C0 25.6222 0.734011 26.3562 1.63634 26.3562H8.40973C8.61284 26.9538 8.86669 27.5276 9.17301 28.0698L8.0134 29.6412C7.84188 29.8814 7.74547 30.1562 7.73268 30.4417C7.72043 30.8365 7.87011 31.2109 8.15562 31.4959L9.62311 32.9565C10.1137 33.4588 10.9138 33.5189 11.4784 33.0981L13.0577 31.9481C13.7401 32.3343 14.4762 32.6401 15.2544 32.8606L15.5405 34.8005C15.6625 35.4951 16.2596 35.9996 16.9606 35.9996H19.0316C19.7411 35.9996 20.3499 35.476 20.4458 34.7894L20.743 32.8611C21.5068 32.6443 22.2446 32.3402 22.944 31.954L24.5244 33.1152C25.0975 33.5269 25.8928 33.4566 26.3626 32.9628L27.8514 31.489C28.2381 31.0905 28.3628 30.5174 28.1753 30.0161C28.13 29.8505 28.0432 29.7141 27.9808 29.6337L26.8255 28.0682C27.1333 27.5186 27.3874 26.9458 27.5891 26.3562H34.3632C35.2656 26.3562 35.9996 25.6222 35.9996 24.7199V1.63634C35.9996 0.734011 35.2656 0 34.3632 0ZM20.1816 1.63634C20.1816 1.33566 20.4261 1.0909 20.727 1.0909H34.3632C34.6642 1.0909 34.9087 1.33566 34.9087 1.63634V5.35327H20.1816V1.63634ZM1.0909 1.63634C1.0909 1.33566 1.33539 1.0909 1.63634 1.0909H15.2725C15.5735 1.0909 15.818 1.33566 15.818 1.63634V5.35327H1.0909V1.63634ZM1.0909 24.7199V6.44417H15.818V10.8087C15.6804 10.9922 15.5801 11.2086 15.5383 11.4517L15.2544 13.3747C14.9178 13.4695 14.5993 13.5803 14.2887 13.7113C14.203 13.7395 14.122 13.7726 14.0011 13.8237C13.6857 13.9531 13.3709 14.1065 13.0465 14.2892L11.4773 13.1318C10.8972 12.7115 10.1174 12.7743 9.62737 13.2772L8.16414 14.7409C7.65278 15.2273 7.59099 16.0289 8.01872 16.6042L9.17301 18.1681C8.7815 18.8606 8.47362 19.5994 8.25363 20.3723L6.33231 20.669C5.63878 20.7771 5.11571 21.3817 5.11571 22.0757V24.1622C5.11571 24.6056 5.31818 25.0035 5.64338 25.2653H1.63634C1.33539 25.2653 1.0909 25.0208 1.0909 24.7199ZM27.1201 30.2926C27.127 30.3256 27.1371 30.3587 27.1504 30.3901C27.1946 30.4971 27.1616 30.6335 27.0764 30.7214L25.5844 32.1985C25.4784 32.3109 25.292 32.3237 25.1652 32.2326L23.303 30.8642C23.1267 30.7342 22.8891 30.723 22.7 30.8354C21.8957 31.3169 21.0306 31.6738 20.1278 31.8959C19.9142 31.9481 19.7528 32.1244 19.7192 32.3423L19.3666 34.6306C19.3442 34.7894 19.2004 34.9087 19.0316 34.9087H16.9606C16.7933 34.9087 16.6447 34.7814 16.6175 34.6264L16.2809 32.3455C16.2484 32.1266 16.087 31.9487 15.8718 31.8959C14.9476 31.6685 14.0874 31.3105 13.3139 30.8322C13.2255 30.7779 13.1259 30.7507 13.0268 30.7507C12.9139 30.7507 12.801 30.7859 12.7056 30.8551L10.8312 32.2198C10.6959 32.3205 10.5159 32.3098 10.3976 32.1884L8.92585 30.7235C8.85607 30.6537 8.82038 30.568 8.82305 30.4822C8.82624 30.4135 8.85287 30.3432 8.89655 30.2814L10.265 28.4272C10.3971 28.2482 10.4072 28.0069 10.2905 27.8173C9.91248 27.2031 9.61212 26.5383 9.38864 25.8376C9.3891 25.8282 9.39406 25.8203 9.39406 25.8108C9.39406 25.6997 9.35278 25.6023 9.29585 25.5161C9.27085 25.4269 9.24125 25.3397 9.21882 25.2493C9.16555 25.0363 8.98977 24.8754 8.77298 24.8419L6.49957 24.4903C6.32965 24.4642 6.2066 24.3262 6.2066 24.1622V22.0757C6.2066 21.917 6.33551 21.7726 6.49957 21.7471L8.77244 21.396C8.9903 21.3625 9.16608 21.2011 9.21882 20.9875C9.44413 20.0734 9.80475 19.21 10.2905 18.4206C10.4072 18.231 10.3971 17.9897 10.265 17.8107L8.89549 15.9549C8.79641 15.8223 8.806 15.6364 8.92585 15.5218L10.4035 14.0437C10.5164 13.9276 10.6991 13.9148 10.8333 14.0123L12.6881 15.3807C12.8665 15.5122 13.1067 15.5234 13.2958 15.4078C13.6857 15.1703 14.0517 14.9822 14.4171 14.832L14.4719 14.8091C14.5257 14.7862 14.5774 14.7638 14.6376 14.7452C14.6557 14.7399 14.6738 14.733 14.6914 14.7255C15.0611 14.5678 15.4457 14.4432 15.867 14.343C16.0843 14.2919 16.2484 14.1129 16.2809 13.8924L16.6154 11.6243C16.6295 11.5428 16.6714 11.4722 16.7279 11.4189C16.7362 11.4112 16.7459 11.4058 16.7538 11.3977C16.8128 11.3515 16.8839 11.3218 16.9606 11.3218H19.0316C19.1999 11.3218 19.3442 11.4438 19.3677 11.6147L19.7192 13.8956C19.7528 14.1151 19.9168 14.2924 20.1326 14.343C21.0232 14.554 21.8882 14.9119 22.7043 15.4078C22.8934 15.5234 23.1336 15.5128 23.3115 15.3807L25.1668 14.0117C25.2957 13.9164 25.4784 13.9281 25.5945 14.0495L27.079 15.5266C27.1909 15.6358 27.2021 15.8238 27.103 15.9565L25.7346 17.8107C25.603 17.9891 25.5924 18.2299 25.7085 18.4195C26.1969 19.2169 26.5576 20.0809 26.7807 20.9875C26.833 21.2011 27.0093 21.3625 27.2271 21.396L29.5064 21.7471C29.6673 21.7726 29.7935 21.917 29.7935 22.0757V24.1622C29.7935 24.3236 29.6699 24.4647 29.508 24.4903L27.2271 24.8419C27.0098 24.8754 26.8335 25.0363 26.7807 25.2499C26.5576 26.1495 26.1964 27.0146 25.7074 27.8205C25.5924 28.0096 25.603 28.2493 25.7346 28.4272L27.1201 30.2926ZM34.9087 24.7199C34.9087 25.0208 34.6642 25.2653 34.3632 25.2653H30.3589C30.6827 25.0032 30.8844 24.6053 30.8844 24.1622V22.0757C30.8844 21.3833 30.365 20.7787 29.6768 20.6695C29.6758 20.669 29.6747 20.669 29.6742 20.669L27.7459 20.3723C27.5275 19.6042 27.2191 18.8654 26.826 18.1686L27.9798 16.6058C28.4032 16.0364 28.3436 15.2363 27.8445 14.7495L26.3738 13.2868C25.8875 12.7759 25.089 12.711 24.5185 13.1344L22.9525 14.2898C22.2435 13.8924 21.5031 13.5851 20.7425 13.3741L20.4468 11.4571C20.414 11.2181 20.3178 11.0019 20.1816 10.8172V6.44417H34.9087V24.7199Z" fill="white"/>
<path d="M22.3578 3.01055C22.3413 2.97806 22.3247 2.95062 22.3082 2.91787C22.2869 2.8907 22.2651 2.86327 22.2374 2.8361C22.2155 2.80894 22.1831 2.7871 22.1559 2.77058C22.1229 2.74875 22.0957 2.7325 22.0632 2.71625C22.0302 2.70533 21.9924 2.69441 21.9593 2.68882C21.8885 2.67257 21.8176 2.67257 21.7468 2.68882C21.7138 2.69441 21.676 2.70533 21.6429 2.71625C21.6104 2.7325 21.5774 2.74875 21.5502 2.77058C21.5178 2.7871 21.4901 2.80894 21.4687 2.8361C21.441 2.86327 21.4192 2.8907 21.3974 2.91787C21.3814 2.95062 21.3649 2.97806 21.3484 3.01055C21.3324 3.04331 21.3265 3.08166 21.3159 3.11442C21.3105 3.1525 21.3047 3.18526 21.3047 3.22335C21.3047 3.25611 21.3105 3.29419 21.3159 3.32695C21.3265 3.3653 21.3324 3.39806 21.3484 3.43056C21.3649 3.46331 21.3814 3.49607 21.3974 3.52351C21.4192 3.556 21.441 3.58343 21.4687 3.60527C21.4901 3.63243 21.5178 3.65427 21.5502 3.67611C21.5774 3.69236 21.6104 3.7142 21.6429 3.72512C21.676 3.74163 21.7138 3.75255 21.7468 3.75788C21.7793 3.76347 21.8176 3.7688 21.8501 3.7688C21.8885 3.7688 21.921 3.76347 21.9593 3.75788C21.9924 3.75255 22.0302 3.74163 22.0632 3.72512C22.0957 3.7142 22.1229 3.69236 22.1559 3.67611C22.1831 3.65427 22.2155 3.63243 22.2374 3.60527C22.2651 3.58343 22.2869 3.556 22.3082 3.52351C22.3247 3.49607 22.3413 3.46331 22.3578 3.43056C22.3684 3.39806 22.3796 3.3653 22.3849 3.32695C22.3956 3.29419 22.3956 3.25611 22.3956 3.22335C22.3956 3.18526 22.3956 3.1525 22.3849 3.11442C22.3796 3.08166 22.3684 3.04331 22.3578 3.01055Z" fill="white"/>
<path d="M24.2136 2.71635C24.1156 2.678 24.0064 2.66708 23.903 2.68892C23.8647 2.69451 23.8317 2.70543 23.7992 2.71635C23.7667 2.7326 23.7337 2.74885 23.7065 2.77068C23.6735 2.7872 23.6463 2.80904 23.6191 2.8362C23.5973 2.86337 23.5755 2.8908 23.5536 2.91797C23.5318 2.95073 23.5158 2.97816 23.5046 3.01065C23.4881 3.049 23.4775 3.08176 23.4721 3.11452C23.4663 3.1526 23.4609 3.18536 23.4609 3.22345C23.4609 3.29429 23.4775 3.3654 23.5046 3.43066C23.5318 3.49617 23.5701 3.5561 23.6191 3.6107C23.6463 3.63253 23.6735 3.65437 23.7065 3.67621C23.7337 3.69246 23.7667 3.7143 23.7992 3.72522C23.8317 3.74173 23.8647 3.74706 23.903 3.75798C23.9355 3.76357 23.9739 3.7689 24.0064 3.7689C24.0772 3.7689 24.1481 3.75265 24.2136 3.72522C24.2844 3.69805 24.3446 3.65997 24.3936 3.6107C24.4426 3.5561 24.481 3.49617 24.5082 3.43066C24.5353 3.3654 24.5518 3.29429 24.5518 3.22345C24.5518 3.07617 24.4916 2.93448 24.3936 2.8362C24.3446 2.7872 24.2844 2.74352 24.2136 2.71635Z" fill="white"/>
<path d="M26.6605 3.01065C26.6498 2.97816 26.6333 2.95073 26.6115 2.91797C26.5897 2.8908 26.5678 2.86337 26.5407 2.8362C26.5188 2.80904 26.4916 2.7872 26.4586 2.77068C26.4315 2.74885 26.3984 2.7326 26.3659 2.71635C26.3334 2.70543 26.3004 2.69451 26.2621 2.68892C26.1587 2.66708 26.0495 2.678 25.9515 2.71635C25.8807 2.74352 25.8205 2.7872 25.7715 2.8362C25.7496 2.86337 25.7225 2.8908 25.706 2.91797C25.6841 2.95073 25.6676 2.97816 25.6516 3.01065C25.6404 3.049 25.6298 3.08176 25.6239 3.11452C25.6133 3.1526 25.6133 3.18536 25.6133 3.22345C25.6133 3.3654 25.6676 3.50709 25.7715 3.60537C25.8205 3.65997 25.8807 3.69805 25.9515 3.72522C26.017 3.75265 26.0879 3.7689 26.1587 3.7689C26.1912 3.7689 26.2296 3.76357 26.2621 3.75798C26.3004 3.75265 26.3334 3.74173 26.3659 3.72522C26.3984 3.7143 26.4315 3.69246 26.4586 3.67621C26.4916 3.65437 26.5188 3.63253 26.5407 3.60537C26.644 3.50709 26.7042 3.3654 26.7042 3.22345C26.7042 3.18536 26.6989 3.1526 26.693 3.11452C26.6877 3.08176 26.677 3.049 26.6605 3.01065Z" fill="white"/>
<path d="M18.0281 15.8541C14.0001 15.8541 10.7227 19.1316 10.7227 23.1601C10.7227 27.1881 14.0001 30.4656 18.0281 30.4656C22.0567 30.4656 25.3342 27.1881 25.3342 23.1601C25.3342 19.1316 22.0567 15.8541 18.0281 15.8541ZM18.0281 29.3747C14.6015 29.3747 11.8136 26.5868 11.8136 23.1601C11.8136 19.733 14.6015 16.945 18.0281 16.945C21.4553 16.945 24.2433 19.733 24.2433 23.1601C24.2433 26.5868 21.4553 29.3747 18.0281 29.3747Z" fill="white"/>
<path d="M15.0888 20.7255C14.0943 20.7255 13.2852 21.5346 13.2852 22.5296V24.9596C13.2852 25.2611 13.5291 25.5051 13.8306 25.5051C14.1321 25.5051 14.3761 25.2611 14.3761 24.9596V24.1084H15.802V24.9596C15.802 25.2611 16.046 25.5051 16.3474 25.5051C16.6489 25.5051 16.8929 25.2611 16.8929 24.9596V22.5296C16.8929 21.5346 16.0838 20.7255 15.0888 20.7255ZM14.3761 23.0175V22.5296C14.3761 22.1365 14.6956 21.8164 15.0888 21.8164C15.4819 21.8164 15.802 22.1365 15.802 22.5296V23.0175H14.3761Z" fill="white"/>
<path d="M19.4499 20.7255H18.1119C17.8104 20.7255 17.5664 20.9694 17.5664 21.2709V24.9596C17.5664 25.2611 17.8104 25.5051 18.1119 25.5051C18.4133 25.5051 18.6573 25.2611 18.6573 24.9596V23.8767H19.4499C20.3187 23.8767 21.0255 23.1699 21.0255 22.3011C21.0255 21.4323 20.3187 20.7255 19.4499 20.7255ZM19.4499 22.7858H18.6573V21.8164H19.4499C19.7173 21.8164 19.9346 22.0337 19.9346 22.3011C19.9346 22.5685 19.7173 22.7858 19.4499 22.7858Z" fill="white"/>
<path d="M21.8203 21.2709V24.9596C21.8203 25.2611 22.0643 25.5051 22.3658 25.5051C22.6672 25.5051 22.9112 25.2611 22.9112 24.9596V21.2709C22.9112 20.9694 22.6672 20.7255 22.3658 20.7255C22.0643 20.7255 21.8203 20.9694 21.8203 21.2709Z" fill="white"/>
<path d="M2.76029 9.43562H7.06635C7.36784 9.43562 7.6118 9.1914 7.6118 8.89017C7.6118 8.58895 7.36784 8.34473 7.06635 8.34473H2.76029C2.4588 8.34473 2.21484 8.58895 2.21484 8.89017C2.21484 9.1914 2.4588 9.43562 2.76029 9.43562Z" fill="white"/>
<path d="M7.6118 11.3363C7.6118 11.0348 7.36784 10.7908 7.06635 10.7908H2.76029C2.4588 10.7908 2.21484 11.0348 2.21484 11.3363C2.21484 11.6378 2.4588 11.8817 2.76029 11.8817H7.06635C7.36784 11.8817 7.6118 11.6378 7.6118 11.3363Z" fill="white"/>
<path d="M28.5298 9.43562H32.8359C33.1374 9.43562 33.3813 9.1914 33.3813 8.89017C33.3813 8.58895 33.1374 8.34473 32.8359 8.34473H28.5298C28.2283 8.34473 27.9844 8.58895 27.9844 8.89017C27.9844 9.1914 28.2283 9.43562 28.5298 9.43562Z" fill="white"/>
<path d="M28.5298 11.8817H32.8359C33.1374 11.8817 33.3813 11.6378 33.3813 11.3363C33.3813 11.0348 33.1374 10.7908 32.8359 10.7908H28.5298C28.2283 10.7908 27.9844 11.0348 27.9844 11.3363C27.9844 11.6378 28.2283 11.8817 28.5298 11.8817Z" fill="white"/>
</svg>
