<svg width="32" height="32" viewBox="0 0 32 32" fill="none" xmlns="http://www.w3.org/2000/svg">
<path d="M28.0839 0H2.9562C2.17217 0 1.42024 0.311456 0.86585 0.86585C0.311456 1.42024 0 2.17217 0 2.9562V22.1715C0 22.9555 0.311456 23.7074 0.86585 24.2618C1.42024 24.8162 2.17217 25.1277 2.9562 25.1277H28.0839C28.8679 25.1277 29.6198 24.8162 30.1742 24.2618C30.7286 23.7074 31.0401 22.9555 31.0401 22.1715V2.9562C31.0401 2.17217 30.7286 1.42024 30.1742 0.86585C29.6198 0.311456 28.8679 0 28.0839 0ZM29.562 22.1715C29.562 22.5635 29.4062 22.9395 29.1291 23.2167C28.8519 23.4939 28.4759 23.6496 28.0839 23.6496H2.9562C2.56418 23.6496 2.18822 23.4939 1.91102 23.2167C1.63383 22.9395 1.4781 22.5635 1.4781 22.1715V2.9562C1.4781 2.56418 1.63383 2.18822 1.91102 1.91102C2.18822 1.63383 2.56418 1.4781 2.9562 1.4781H28.0839C28.4759 1.4781 28.8519 1.63383 29.1291 1.91102C29.4062 2.18822 29.562 2.56418 29.562 2.9562V22.1715ZM25.1277 12.5638C25.1277 12.7598 25.0498 12.9478 24.9112 13.0864C24.7726 13.225 24.5846 13.3029 24.3886 13.3029H19.2153L17.0129 17.7372C16.9506 17.8605 16.8556 17.9643 16.7383 18.0373C16.621 18.1103 16.4859 18.1496 16.3478 18.1511C16.1977 18.132 16.0568 18.0683 15.9435 17.9681C15.8301 17.8679 15.7495 17.736 15.7122 17.5894L13.7168 9.60764L11.337 12.9777C11.2676 13.0781 11.1748 13.1602 11.0667 13.2168C10.9586 13.2735 10.8383 13.303 10.7162 13.3029H6.65144C6.45544 13.3029 6.26746 13.225 6.12886 13.0864C5.99026 12.9478 5.9124 12.7598 5.9124 12.5638C5.9124 12.3678 5.99026 12.1799 6.12886 12.0413C6.26746 11.9027 6.45544 11.8248 6.65144 11.8248H10.3467L13.3029 7.39049C13.3829 7.2719 13.4956 7.17907 13.6273 7.12327C13.759 7.06747 13.9041 7.05109 14.0449 7.07613C14.1858 7.10117 14.3163 7.16655 14.4208 7.26433C14.5252 7.36211 14.599 7.48809 14.6332 7.62699L16.5547 15.2983L18.0328 12.3421C18.0938 12.2177 18.1884 12.113 18.306 12.0398C18.4236 11.9666 18.5594 11.928 18.698 11.9283H24.3886C24.568 11.9265 24.7418 11.99 24.8778 12.1069C25.0138 12.2239 25.1026 12.3863 25.1277 12.5638ZM25.1277 30.301C25.1277 30.497 25.0498 30.685 24.9112 30.8236C24.7726 30.9622 24.5846 31.0401 24.3886 31.0401H6.65144C6.45544 31.0401 6.26746 30.9622 6.12886 30.8236C5.99026 30.685 5.9124 30.497 5.9124 30.301C5.9124 30.105 5.99026 29.917 6.12886 29.7784C6.26746 29.6398 6.45544 29.562 6.65144 29.562H24.3886C24.5846 29.562 24.7726 29.6398 24.9112 29.7784C25.0498 29.917 25.1277 30.105 25.1277 30.301ZM13.3029 28.0839C13.1069 28.0839 12.9189 28.006 12.7803 27.8674C12.6417 27.7288 12.5638 27.5408 12.5638 27.3448C12.5638 27.1488 12.6417 26.9608 12.7803 26.8222C12.9189 26.6836 13.1069 26.6058 13.3029 26.6058H17.7372C17.9332 26.6058 18.1212 26.6836 18.2598 26.8222C18.3984 26.9608 18.4762 27.1488 18.4762 27.3448C18.4762 27.5408 18.3984 27.7288 18.2598 27.8674C18.1212 28.006 17.9332 28.0839 17.7372 28.0839H13.3029Z" fill="#111111"/>
</svg>
