<svg width="22" height="22" viewBox="0 0 22 22" fill="none" xmlns="http://www.w3.org/2000/svg">
<path d="M21.7844 13.7275C21.6863 13.6296 21.5624 13.5616 21.4272 13.5312C21.292 13.5008 21.1509 13.5094 21.0204 13.5559C19.2659 14.1815 17.37 14.2963 15.5529 13.8872C13.7357 13.478 12.072 12.5617 10.755 11.2446C9.43794 9.92748 8.52167 8.26372 8.11262 6.44659C7.70358 4.62947 7.81854 2.73357 8.44417 0.979187C8.49065 0.848611 8.49918 0.707535 8.46876 0.572311C8.43834 0.437087 8.37021 0.313255 8.27228 0.215171C8.17435 0.117087 8.05062 0.0487677 7.91544 0.0181338C7.78026 -0.0125002 7.63917 -0.00419418 7.50852 0.0420889C5.9268 0.600635 4.49139 1.50868 3.30913 2.69867C1.18972 4.81965 -0.00056664 7.69552 2.02365e-07 10.6939C0.000567045 13.6923 1.19194 16.5677 3.31215 18.6879C5.43236 20.8081 8.30782 21.9994 11.3062 22C14.3047 22.0006 17.1806 20.8103 19.3016 18.6909C20.4917 17.5085 21.3998 16.0728 21.9582 14.4908C22.0043 14.3602 22.0125 14.2191 21.9817 14.0841C21.9509 13.949 21.8825 13.8253 21.7844 13.7275ZM18.2648 17.6541C17.2649 18.6511 16.0622 19.4213 14.7384 19.9124C13.4145 20.4035 12.0005 20.604 10.5923 20.5003C9.18406 20.3965 7.81466 19.991 6.57706 19.3112C5.33946 18.6314 4.26262 17.6933 3.41967 16.5605C2.57672 15.4277 1.98739 14.1268 1.69169 12.7461C1.396 11.3654 1.40086 9.93729 1.70596 8.55865C2.01105 7.18 2.60923 5.88315 3.45988 4.75614C4.31053 3.62913 5.39373 2.69835 6.63594 2.02701C6.2682 3.85774 6.35679 5.75086 6.89389 7.53926C7.43099 9.32765 8.40009 10.9563 9.71564 12.2816C11.0407 13.5973 12.6694 14.5665 14.4579 15.1036C16.2464 15.6408 18.1396 15.7292 19.9703 15.3612C19.517 16.2048 18.9423 16.9773 18.2648 17.6541Z" fill="#111111"/>
</svg>
