<svg width="34" height="43" viewBox="0 0 34 43" fill="none" xmlns="http://www.w3.org/2000/svg">
<path d="M0 15.0795C0 19.1903 3.34493 22.5353 7.45582 22.5353C7.8517 22.5353 8.173 22.214 8.173 21.8181C8.173 21.4222 7.8517 21.1009 7.45582 21.1009C4.13599 21.1009 1.43436 18.4 1.43436 15.0795C1.43436 11.7589 4.13599 9.05155 7.51463 9.05155C7.72189 9.05155 7.9184 8.9619 8.05467 8.80555C8.19093 8.64992 8.25261 8.44194 8.22464 8.23683C8.19021 7.98582 8.173 7.72261 8.173 7.4551C8.173 4.13527 10.8768 1.43365 14.2002 1.43365C16.2255 1.43365 18.1052 2.44774 19.2269 4.14603C19.4421 4.47091 19.8774 4.56558 20.2059 4.35831C20.8671 3.9445 21.6266 3.72576 22.4033 3.72576C24.6969 3.72576 26.5622 5.59186 26.5622 7.88469C26.5622 8.0188 26.5572 8.14718 26.5415 8.28058C26.5185 8.47135 26.573 8.66355 26.6921 8.81344C26.8118 8.96333 26.9868 9.05943 27.1776 9.08023C30.2529 9.40512 32.5715 11.9841 32.5715 15.0795C32.5715 18.3993 29.867 21.1009 26.5436 21.1009C26.1477 21.1009 25.8264 21.4222 25.8264 21.8181C25.8264 22.214 26.1477 22.5353 26.5436 22.5353C30.6581 22.5353 34.0059 19.1903 34.0059 15.0795C34.0059 11.4756 31.4656 8.4362 27.9952 7.75417C27.9256 4.72981 25.4434 2.29139 22.4033 2.29139C21.5821 2.29139 20.7746 2.47284 20.0359 2.82067C18.6245 1.0435 16.488 0 14.2002 0C10.0857 0 6.73864 3.34493 6.73864 7.45582C6.73864 7.52108 6.73864 7.58635 6.74079 7.65161C2.96411 8.01307 0 11.2067 0 15.0795Z" fill="#111111"/>
<path d="M17.2987 5.82137C17.3983 6.12331 17.6788 6.31479 17.98 6.31479C18.0546 6.31479 18.1291 6.3026 18.2037 6.27893C18.5803 6.15486 18.7854 5.74965 18.6613 5.37385C17.6522 2.30431 14.1108 2.39468 13.9638 2.3997C13.5686 2.41404 13.2609 2.74395 13.2738 3.13911C13.2867 3.53428 13.6374 3.84912 14.0118 3.83335C14.123 3.82617 16.6274 3.78171 17.2987 5.82137Z" fill="#111111"/>
<path d="M12.2703 14.7115C11.3158 14.7115 10.5391 15.4883 10.5391 16.4428C10.5391 17.3974 11.3158 18.1748 12.2703 18.1748C13.2249 18.1748 14.0023 17.3981 14.0023 16.4428C14.0023 15.4875 13.2256 14.7115 12.2703 14.7115ZM12.2703 16.7405C12.1061 16.7405 11.9734 16.6071 11.9734 16.4428C11.9734 16.2786 12.1068 16.1459 12.2703 16.1459C12.4339 16.1459 12.568 16.2793 12.568 16.4428C12.568 16.6063 12.4346 16.7405 12.2703 16.7405Z" fill="#111111"/>
<path d="M17.4594 17.1837H22.9558C23.3517 17.1837 23.673 16.8624 23.673 16.4665C23.673 16.0706 23.3517 15.7493 22.9558 15.7493H17.4594C17.0635 15.7493 16.7422 16.0706 16.7422 16.4665C16.7422 16.8624 17.0635 17.1837 17.4594 17.1837Z" fill="#111111"/>
<path d="M12.2703 25.9792C11.3158 25.9792 10.5391 26.7559 10.5391 27.7105C10.5391 28.665 11.3158 29.4425 12.2703 29.4425C13.2249 29.4425 14.0023 28.6657 14.0023 27.7105C14.0023 26.7552 13.2256 25.9792 12.2703 25.9792ZM12.2703 28.0081C12.1061 28.0081 11.9734 27.8747 11.9734 27.7105C11.9734 27.5462 12.1068 27.4135 12.2703 27.4135C12.4339 27.4135 12.568 27.5469 12.568 27.7105C12.568 27.874 12.4346 28.0081 12.2703 28.0081Z" fill="#111111"/>
<path d="M24.1795 31.6801C25.6231 31.6801 26.7972 30.506 26.7972 29.0631V26.3593C26.7972 24.9156 25.6231 23.7416 24.1795 23.7416H17.7212V20.4131H24.1795C25.6231 20.4131 26.7972 19.2391 26.7972 17.7954V15.0917C26.7972 13.648 25.6231 12.4739 24.1795 12.4739H9.82865C8.38496 12.4739 7.21094 13.648 7.21094 15.0917V17.7954C7.21094 19.2391 8.38496 20.4131 9.82865 20.4131H16.2869V23.7416H9.82865C8.38496 23.7416 7.21094 24.9156 7.21094 26.3593V29.0631C7.21094 30.506 8.38496 31.6801 9.82865 31.6801H16.2869V35.0085H9.82865C8.38496 35.0085 7.21094 36.1825 7.21094 37.6255V40.3293C7.21094 41.7729 8.38496 42.947 9.82865 42.947H24.1802C25.6239 42.947 26.7979 41.7729 26.7979 40.3293V37.6255C26.7979 36.1825 25.6239 35.0085 24.1802 35.0085H17.7219V31.6801H24.1795ZM8.6453 17.7954V15.0917C8.6453 14.439 9.17602 13.9083 9.82865 13.9083H24.1802C24.8328 13.9083 25.3635 14.439 25.3635 15.0917V17.7954C25.3635 18.4481 24.8328 18.9788 24.1802 18.9788H9.82865C9.17602 18.9788 8.6453 18.4481 8.6453 17.7954ZM25.3635 37.6255V40.3293C25.3635 40.9819 24.8328 41.5126 24.1802 41.5126H9.82865C9.17602 41.5126 8.6453 40.9819 8.6453 40.3293V37.6255C8.6453 36.9729 9.17602 36.4429 9.82865 36.4429H24.1802C24.8328 36.4429 25.3635 36.9736 25.3635 37.6255ZM8.6453 29.0623V26.3586C8.6453 25.7059 9.17602 25.1752 9.82865 25.1752H24.1802C24.8328 25.1752 25.3635 25.7059 25.3635 26.3586V29.0623C25.3635 29.715 24.8328 30.245 24.1802 30.245H9.82865C9.17602 30.245 8.6453 29.7143 8.6453 29.0623Z" fill="#111111"/>
<path d="M17.4594 28.4506H22.9558C23.3517 28.4506 23.673 28.1293 23.673 27.7334C23.673 27.3375 23.3517 27.0162 22.9558 27.0162H17.4594C17.0635 27.0162 16.7422 27.3375 16.7422 27.7334C16.7422 28.1293 17.0635 28.4506 17.4594 28.4506Z" fill="#111111"/>
<path d="M12.2703 37.2461C11.3158 37.2461 10.5391 38.0228 10.5391 38.9781C10.5391 39.9334 11.3158 40.7094 12.2703 40.7094C13.2249 40.7094 14.0023 39.9327 14.0023 38.9781C14.0023 38.0235 13.2256 37.2461 12.2703 37.2461ZM12.2703 39.275C12.1061 39.275 11.9734 39.1416 11.9734 38.9781C11.9734 38.8146 12.1068 38.6805 12.2703 38.6805C12.4339 38.6805 12.568 38.8139 12.568 38.9781C12.568 39.1423 12.4346 39.275 12.2703 39.275Z" fill="#111111"/>
<path d="M17.4594 39.7175H22.9558C23.3517 39.7175 23.673 39.3962 23.673 39.0003C23.673 38.6044 23.3517 38.2831 22.9558 38.2831H17.4594C17.0635 38.2831 16.7422 38.6044 16.7422 39.0003C16.7422 39.3962 17.0635 39.7175 17.4594 39.7175Z" fill="#111111"/>
</svg>
