<svg width="26" height="29" viewBox="0 0 26 29" fill="none" xmlns="http://www.w3.org/2000/svg">
<path d="M25.2857 5.49326C25.2857 5.45132 25.2857 5.45132 25.2857 5.40939C25.2857 5.36746 25.2857 5.36746 25.2857 5.32552C25.2857 5.28359 25.2857 5.28359 25.2438 5.24166C25.2438 5.19972 25.2438 5.19972 25.2019 5.15779C25.2019 5.15779 25.2019 5.11586 25.16 5.11586C25.16 5.07392 25.118 5.07392 25.118 5.03199L21.5537 0.293533C21.4279 0.0838668 21.1763 0 20.9247 0H4.36106C4.10946 0 3.89979 0.1258 3.73206 0.293533L0.167734 5.03199C0.167734 5.07392 0.1258 5.07392 0.1258 5.11586L0.0838668 5.15779C0.0838668 5.19972 0.0838667 5.19972 0.0419334 5.24166C0.0419334 5.28359 0.0419332 5.28359 0 5.32552V5.40939V5.49326V22.6859C0 25.7051 2.47406 28.1791 5.49326 28.1791H19.7506C22.7698 28.1791 25.2438 25.7051 25.2438 22.6859L25.2857 5.49326ZM1.59346 15.683V6.24805H8.13505C8.51245 8.42858 10.3994 10.064 12.6638 10.064C14.9282 10.064 16.8152 8.42858 17.1926 6.24805H23.7762V15.683H1.59346ZM15.5992 17.2346C15.2637 18.5345 14.0896 19.499 12.6638 19.499C11.2381 19.499 10.064 18.5345 9.72851 17.2346H15.5992ZM9.72851 6.24805H15.5992C15.2637 7.54798 14.0896 8.51245 12.6638 8.51245C11.2381 8.51245 10.064 7.54798 9.72851 6.24805ZM4.78039 1.5096H20.5892L22.9794 4.69652H2.34826L4.78039 1.5096ZM19.7925 26.6695H5.53519C3.35466 26.6695 1.59346 24.9083 1.59346 22.7278V17.2346H8.13505C8.51245 19.4151 10.3994 21.0505 12.6638 21.0505C14.9282 21.0505 16.8152 19.4151 17.1926 17.2346H23.7762V22.7278C23.7342 24.8664 21.973 26.6695 19.7925 26.6695Z" fill="#111111"/>
</svg>
