<svg width="28" height="28" viewBox="0 0 28 28" fill="none" xmlns="http://www.w3.org/2000/svg">
<path d="M24.5 2.22075H3.5C2.05275 2.22075 0.875 3.3985 0.875 4.84575V19.3287C0.875 20.776 2.05275 21.9537 3.5 21.9537H10.0931L12.6341 25.1239C12.9684 25.5404 13.4654 25.7792 14 25.7792C14.5346 25.7792 15.0316 25.5404 15.3659 25.1239L17.9069 21.9546H24.5C25.9473 21.9546 27.125 20.7769 27.125 19.3296V4.84575C27.125 3.3985 25.9473 2.22075 24.5 2.22075ZM25.375 19.3296C25.375 19.8117 24.983 20.2046 24.5 20.2046H17.4869C17.2209 20.2046 16.9706 20.3254 16.8044 20.5327L14 24.0292L11.1956 20.5319C11.0294 20.3245 10.7783 20.2037 10.5131 20.2037H3.5C3.017 20.2037 2.625 19.8109 2.625 19.3287V4.84575C2.625 4.36362 3.017 3.97075 3.5 3.97075H24.5C24.983 3.97075 25.375 4.36362 25.375 4.84575V19.3296Z" fill="#333333"/>
<path d="M13.5476 11.4319L9.77544 8.09462C9.41407 7.77612 8.86019 7.80762 8.53994 8.16987C8.21969 8.53212 8.25382 9.08425 8.61519 9.40537L11.6471 12.0872L8.61607 14.77C8.25469 15.0902 8.22057 15.6432 8.54082 16.0055C8.71407 16.2015 8.95469 16.3004 9.19619 16.3004C9.40269 16.3004 9.61007 16.2277 9.77632 16.0807L13.5484 12.7426C13.7357 12.5764 13.8433 12.3375 13.8433 12.0872C13.8424 11.837 13.7348 11.5981 13.5476 11.4319Z" fill="#333333"/>
<path d="M18.8107 14.5504H14.5469C14.063 14.5504 13.6719 14.9424 13.6719 15.4254C13.6719 15.9084 14.063 16.3004 14.5469 16.3004H18.8107C19.2946 16.3004 19.6857 15.9084 19.6857 15.4254C19.6857 14.9424 19.2946 14.5504 18.8107 14.5504Z" fill="#333333"/>
</svg>
