<svg width="23" height="28" viewBox="0 0 23 28" fill="none" xmlns="http://www.w3.org/2000/svg">
<path d="M16.9417 14.7022C17.3849 14.5438 17.6825 14.1207 17.6825 13.6502C17.6825 13.1797 17.3849 12.7566 16.9436 12.5982L14.9142 11.8666C12.9104 11.1449 11.347 9.58062 10.6244 7.57677L9.89277 5.54743C9.73352 5.10608 9.31127 4.8085 8.84261 4.8085C8.37304 4.8085 7.94989 5.10517 7.78973 5.54743L7.05898 7.57677C6.33643 9.58153 4.77303 11.1449 2.76827 11.8666L0.740752 12.5982C0.297575 12.7575 0 13.1797 0 13.6502C0 14.1207 0.297575 14.5429 0.738932 14.7022L2.76827 15.4338C4.77212 16.1555 6.33552 17.7189 7.05807 19.7236L7.78973 21.7539C7.94898 22.1952 8.37214 22.4919 8.8417 22.4919C9.31127 22.4919 9.73443 22.1943 9.89277 21.753L10.6244 19.7236C11.3461 17.7198 12.9104 16.1564 14.9142 15.4338L16.9417 14.7022ZM14.2972 13.7212C11.781 14.6276 9.81815 16.5905 8.91177 19.1067L8.84079 19.3032L8.76981 19.1067C7.86253 16.5905 5.89962 14.6276 3.38434 13.7212L3.18869 13.6502L3.38525 13.5792C5.90145 12.6728 7.86435 10.7099 8.77072 8.19376L8.8417 7.99719L8.91268 8.19376C9.81906 10.7099 11.782 12.6728 14.2972 13.5792L14.4938 13.6502L14.2972 13.7212Z" fill="#F76809"/>
<path d="M13.82 5.88142L14.8474 6.2518C15.7365 6.57213 16.429 7.26556 16.7494 8.15373L17.1188 9.18023C17.2635 9.58245 17.6476 9.85273 18.0743 9.85273C18.5011 9.85273 18.8861 9.58245 19.0299 9.18114L19.4002 8.15373C19.7206 7.26465 20.414 6.57122 21.3022 6.2518L22.3305 5.88142C22.73 5.73673 23.0003 5.35362 23.0012 4.92864C23.0021 4.50366 22.7345 4.11873 22.3305 3.9713L21.3022 3.60093C20.414 3.2806 19.7206 2.58717 19.4002 1.699L19.0299 0.671591C18.8852 0.269364 18.5021 0 18.0753 0C17.6476 0 17.2635 0.270274 17.1197 0.671591L16.7494 1.699C16.429 2.58808 15.7356 3.2806 14.8474 3.60093L13.8173 3.97221C13.4169 4.11782 13.1475 4.50275 13.1484 4.92864C13.1493 5.35453 13.4196 5.73764 13.82 5.88142ZM18.0753 3.1441C18.5066 3.88303 19.119 4.49547 19.8571 4.92591C19.1181 5.35726 18.5057 5.9697 18.0753 6.70772C17.6439 5.9697 17.0315 5.35635 16.2935 4.92591C17.0315 4.49456 17.6439 3.88212 18.0753 3.1441Z" fill="#F76809"/>
<path d="M22.3305 21.419L21.3031 21.0486C20.4149 20.7283 19.7215 20.0349 19.4012 19.1467L19.0308 18.1193C18.8861 17.718 18.5021 17.4477 18.0753 17.4477C17.6476 17.4477 17.2635 17.718 17.1197 18.1193L16.7494 19.1467C16.429 20.0358 15.7356 20.7292 14.8474 21.0486L13.8209 21.4181C13.4196 21.5619 13.1493 21.9459 13.1484 22.3718C13.1475 22.7977 13.416 23.1826 13.82 23.3291L14.8474 23.6995C15.7365 24.0198 16.43 24.7123 16.7494 25.6014L17.1188 26.6279C17.2644 27.0301 17.6485 27.3004 18.0762 27.3004C18.5039 27.3004 18.8879 27.0301 19.0317 26.6288L19.4021 25.6014C19.7224 24.7132 20.4158 24.0198 21.304 23.6995L22.3359 23.3282C22.7354 23.1817 23.0039 22.7977 23.003 22.3718C23.0021 21.9459 22.7309 21.5637 22.3305 21.419ZM18.0762 24.1563C17.6448 23.4174 17.0324 22.8049 16.2944 22.3745C17.0324 21.9432 17.6457 21.3307 18.0762 20.5927C18.5075 21.3307 19.12 21.9441 19.858 22.3745C19.12 22.8059 18.5066 23.4183 18.0762 24.1563Z" fill="#F76809"/>
</svg>
