<svg width="38" height="43" viewBox="0 0 38 43" fill="none" xmlns="http://www.w3.org/2000/svg">
<path d="M19.0925 13.6965L19.8069 15.6779C20.5995 17.878 22.3309 19.6094 24.531 20.402L26.5124 21.1164C26.6914 21.1803 26.6914 21.4346 26.5124 21.4985L24.531 22.2129C22.3309 23.0055 20.5995 24.7369 19.8069 26.937L19.0925 28.9184C19.0286 29.0974 18.7743 29.0974 18.7104 28.9184L17.996 26.937C17.2034 24.7369 15.472 23.0055 13.2719 22.2129L11.2905 21.4985C11.1115 21.4346 11.1115 21.1803 11.2905 21.1164L13.2719 20.402C15.472 19.6094 17.2034 17.878 17.996 15.6779L18.7104 13.6965C18.7743 13.5175 19.0271 13.5175 19.0925 13.6965Z" fill="white"/>
<path d="M35.107 11.5518C34.7008 10.8814 33.8287 10.6712 33.1554 11.0731C32.485 11.4794 32.2705 12.3529 32.6768 13.0247C34.1852 15.5132 34.982 18.378 34.982 21.3082C34.982 30.1669 27.7737 37.3766 18.9135 37.3766C17.3952 37.3766 15.9152 37.1551 14.4849 36.7446L15.8953 36.0671C16.6012 35.7276 16.8995 34.8782 16.56 34.1709C16.222 33.465 15.3698 33.1667 14.6639 33.5062L10.2252 35.641C9.87016 35.8128 9.60171 36.1239 9.48525 36.5003C9.36878 36.8767 9.41423 37.2843 9.61024 37.6266L12.0646 41.899C12.326 42.3564 12.8046 42.6121 13.2975 42.6121C13.5375 42.6121 13.7804 42.551 14.0034 42.4231C14.6837 42.0326 14.9195 41.1633 14.5275 40.4844L13.9878 39.5441C15.5828 39.9759 17.229 40.2159 18.915 40.2159C29.3418 40.2159 37.8241 31.7336 37.8241 21.3068C37.8227 17.8582 36.8838 14.4834 35.107 11.5518Z" fill="white"/>
<path d="M18.9106 5.23831C20.4289 5.23831 21.9104 5.45988 23.3392 5.87037L21.9288 6.54787C21.2229 6.88734 20.9246 7.73671 21.2641 8.44405C21.5084 8.95111 22.0155 9.24796 22.5453 9.24796C22.7526 9.24796 22.9614 9.20393 23.1603 9.10735L27.5989 6.97256C27.954 6.8007 28.2224 6.48964 28.3389 6.11325C28.4553 5.73685 28.4113 5.32779 28.2139 4.98549L25.7595 0.713067C25.3703 0.0327184 24.5025 -0.20164 23.8207 0.188957C23.1404 0.579554 22.9046 1.44881 23.2966 2.12774L23.8364 3.06801C22.2413 2.63622 20.5951 2.39618 18.9092 2.39618C8.48234 2.39618 0 10.8785 0 21.3053C0 24.7554 0.938853 28.1301 2.71571 31.0617C2.98274 31.502 3.45288 31.7449 3.93154 31.7449C4.18294 31.7449 4.43576 31.6782 4.66728 31.539C5.33769 31.1328 5.55216 30.2592 5.14594 29.5874C3.63752 27.099 2.8407 24.2341 2.8407 21.3039C2.84355 12.4466 10.0518 5.23831 18.9106 5.23831Z" fill="white"/>
</svg>
