<svg width="35" height="36" viewBox="0 0 35 36" fill="none" xmlns="http://www.w3.org/2000/svg">
<path d="M13.5612 27.3006C13.5612 29.2659 15.1584 30.8631 17.1237 30.8631C19.0891 30.8631 20.6862 29.2659 20.6862 27.3006C20.6862 25.3353 19.0891 23.7381 17.1237 23.7381C15.1584 23.7381 13.5612 25.3353 13.5612 27.3006ZM17.1237 24.9256C18.4359 24.9256 19.4987 25.9884 19.4987 27.3006C19.4987 28.6128 18.4359 29.6756 17.1237 29.6756C15.8116 29.6756 14.7487 28.6128 14.7487 27.3006C14.7487 25.9884 15.8116 24.9256 17.1237 24.9256ZM1.78125 14.1847C0.801562 14.1847 0 14.9862 0 15.9659V19.6353C0 20.615 0.801562 21.4166 1.78125 21.4166H5.45062C6.43031 21.4166 7.23187 20.615 7.23187 19.6353V15.9659C7.23187 14.9862 6.43031 14.1847 5.45062 14.1847H4.05531V12.6053H14.0778C14.1669 12.8547 14.3034 13.0803 14.4934 13.2703L15.8591 14.6359C16.0491 14.8259 16.2806 14.9625 16.5241 15.0516V19.1187H16.1737C15.2 19.1187 14.4044 19.9144 14.4044 20.9237C14.4044 21.1375 14.2856 21.3394 14.1075 21.4284C13.9116 21.5294 13.7275 21.6363 13.5434 21.7491C13.3772 21.8559 13.1456 21.8559 12.9319 21.7312C12.5222 21.4937 12.0472 21.4344 11.59 21.5531C11.1328 21.6778 10.7528 21.9688 10.5153 22.3784L9.56531 24.0291C9.32781 24.4388 9.26844 24.9137 9.38719 25.3709C9.51187 25.8281 9.80281 26.2081 10.2362 26.4634C10.4262 26.5703 10.5391 26.7841 10.5272 27.0216C10.5272 27.1106 10.5212 27.2056 10.5212 27.2947C10.5212 27.3838 10.5212 27.4788 10.5272 27.5678C10.5391 27.8053 10.4262 28.0191 10.2125 28.1437C9.80281 28.3812 9.51187 28.7612 9.38719 29.2184C9.2625 29.6756 9.32781 30.1506 9.56531 30.5603L10.5153 32.2109C10.7528 32.6206 11.1328 32.9116 11.59 33.0363C12.0472 33.1609 12.5222 33.0956 12.9616 32.8403C13.1456 32.7334 13.3772 32.7334 13.5434 32.8403C13.7275 32.9591 13.9116 33.0659 14.1075 33.1609C14.2856 33.25 14.4044 33.4519 14.4044 33.7012C14.4044 34.675 15.2 35.4706 16.1737 35.4706H18.0797C19.0534 35.4706 19.8491 34.675 19.8491 33.6656C19.8491 33.4519 19.9678 33.25 20.1459 33.1609C20.3419 33.06 20.5259 32.9531 20.71 32.8403C20.8762 32.7334 21.1078 32.7334 21.3216 32.8581C21.7312 33.0956 22.2062 33.1609 22.6634 33.0363C23.1206 32.9116 23.5006 32.6206 23.7381 32.2109L24.6881 30.5603C24.9256 30.1506 24.985 29.6756 24.8662 29.2184C24.7416 28.7612 24.4506 28.3812 24.0172 28.1259C23.8272 28.0191 23.7144 27.8053 23.7262 27.5678C23.7262 27.4788 23.7322 27.3838 23.7322 27.2947C23.7322 27.2056 23.7322 27.1106 23.7262 27.0216C23.7144 26.7841 23.8272 26.5703 24.0409 26.4456C24.4506 26.2081 24.7416 25.8281 24.8662 25.3709C24.9909 24.9137 24.9256 24.4388 24.6881 24.0291L23.7381 22.3784C23.5006 21.9688 23.1206 21.6778 22.6634 21.5531C22.2062 21.4284 21.7312 21.4938 21.2919 21.7491C21.1078 21.8559 20.8762 21.8559 20.71 21.7491C20.5259 21.6303 20.3419 21.5234 20.1459 21.4284C19.9678 21.3394 19.8491 21.1375 19.8491 20.8881C19.8491 19.9144 19.0534 19.1187 18.0797 19.1187H17.7116V15.0516C17.9609 14.9625 18.1866 14.8259 18.3766 14.6359L19.7422 13.2703C19.9322 13.0803 20.0687 12.8488 20.1578 12.6053H30.5841V14.1847H28.9394C27.9597 14.1847 27.1581 14.9862 27.1581 15.9659V19.6353C27.1581 20.615 27.9597 21.4166 28.9394 21.4166H32.6087C33.5884 21.4166 34.39 20.615 34.39 19.6353V15.9659C34.39 14.9862 33.5884 14.1847 32.6087 14.1847H31.7716V4.94C31.7716 3.20031 30.3525 1.78125 28.6128 1.78125H24.6347C24.6347 0.801562 23.8331 0 22.8534 0H11.5781C10.5984 0 9.79687 0.801562 9.79687 1.78125H6.02062C4.28094 1.78125 2.86187 3.20031 2.86187 4.94V12.0056V14.1906H1.78125V14.1847ZM18.0737 20.3062C18.3944 20.3062 18.6556 20.5675 18.6556 20.9237C18.6556 21.5887 19.0178 22.1884 19.5997 22.4913C19.76 22.5684 19.9084 22.6575 20.0569 22.7525C20.6031 23.1028 21.2978 23.1147 21.9034 22.7644C22.04 22.6872 22.1944 22.6634 22.3487 22.705C22.4972 22.7466 22.6219 22.8416 22.705 22.9781L23.655 24.6287C23.7322 24.7653 23.7559 24.9197 23.7144 25.0741C23.6728 25.2225 23.5778 25.3472 23.4175 25.4422C22.8416 25.7747 22.5031 26.4041 22.5328 27.0869V27.3006C22.5328 27.3006 22.5328 27.4431 22.5328 27.5203C22.5031 28.2031 22.8356 28.8325 23.4412 29.1828C23.5778 29.26 23.6728 29.3847 23.7144 29.5391C23.7559 29.6875 23.7322 29.8478 23.655 29.9844L22.705 31.635C22.6278 31.7716 22.5031 31.8666 22.3487 31.9081C22.2003 31.9497 22.04 31.9259 21.8797 31.8309C21.3037 31.4984 20.6091 31.5103 20.0628 31.8606C19.9144 31.9556 19.76 32.0447 19.5997 32.1278C19.0178 32.4247 18.6556 33.0244 18.6556 33.725C18.6556 34.0456 18.3944 34.3069 18.0737 34.3069H16.1678C15.8472 34.3069 15.5859 34.0456 15.5859 33.6894C15.5859 33.0244 15.2237 32.4247 14.6419 32.1219C14.4816 32.0447 14.3331 31.9556 14.1847 31.8606C13.9056 31.6825 13.5909 31.5934 13.2644 31.5934C12.9378 31.5934 12.635 31.6766 12.3381 31.8487C12.2016 31.9259 12.0472 31.9497 11.8928 31.9081C11.7444 31.8666 11.6197 31.7716 11.5366 31.635L10.5866 29.9844C10.5094 29.8478 10.4856 29.6934 10.5272 29.5391C10.5687 29.3906 10.6637 29.2659 10.8241 29.1709C11.4 28.8384 11.7384 28.2091 11.7087 27.5263C11.7087 27.455 11.7087 27.3838 11.7087 27.3125C11.7087 27.2412 11.7087 27.17 11.7087 27.0928C11.7384 26.41 11.4059 25.7806 10.8003 25.4303C10.6637 25.3531 10.5687 25.2284 10.5272 25.0741C10.4856 24.9256 10.5094 24.7653 10.5866 24.6287L11.5366 22.9781C11.6137 22.8416 11.7384 22.7466 11.8928 22.705C12.0412 22.6634 12.2016 22.6872 12.3619 22.7822C12.9378 23.1147 13.6325 23.1028 14.1787 22.7525C14.3272 22.6575 14.4816 22.5684 14.6419 22.4853C15.2237 22.1884 15.5859 21.5888 15.5859 20.8881C15.5859 20.5675 15.8472 20.3062 16.1678 20.3062H18.0737ZM19.0712 12.0116C19.0712 12.1719 19.0119 12.3203 18.8991 12.4272L17.5334 13.7928C17.3078 14.0184 16.9159 14.0184 16.6962 13.7928L15.3306 12.4272C15.2178 12.3144 15.1584 12.1659 15.1584 12.0056C15.1584 11.8453 15.2178 11.6969 15.3306 11.5841L16.6962 10.2184C16.8091 10.1056 16.9575 10.0463 17.1178 10.0463C17.2781 10.0463 17.4266 10.1056 17.5394 10.2184L18.905 11.5841C19.0178 11.6969 19.0772 11.8453 19.0772 11.9997L19.0712 12.0116ZM32.6028 15.3722C32.9294 15.3722 33.1966 15.6394 33.1966 15.9659V19.6353C33.1966 19.9619 32.9294 20.2291 32.6028 20.2291H28.9334C28.6069 20.2291 28.3397 19.9619 28.3397 19.6353V15.9659C28.3397 15.6394 28.6069 15.3722 28.9334 15.3722H32.6028ZM24.6287 4.03156V2.96281H28.6069C29.6934 2.96281 30.5781 3.8475 30.5781 4.93406V11.4119H20.1519C20.0628 11.1625 19.9262 10.9369 19.7362 10.7469L18.3706 9.38125C18.1984 9.20906 17.9847 9.07844 17.765 8.99531V5.80688H22.8475C23.8272 5.80688 24.6287 5.00531 24.6287 4.02563V4.03156ZM10.9844 1.77531C10.9844 1.44875 11.2516 1.18156 11.5781 1.18156H22.8475C23.1741 1.18156 23.4412 1.44875 23.4412 1.77531V4.03156C23.4412 4.35813 23.1741 4.62531 22.8475 4.62531H11.5781C11.2516 4.62531 10.9844 4.35813 10.9844 4.03156V1.77531ZM4.04937 4.93406C4.04937 3.8475 4.93406 2.96281 6.02062 2.96281H9.79687V4.03156C9.79687 5.01125 10.5984 5.81281 11.5781 5.81281H16.5775V8.96562C16.3103 9.04875 16.055 9.17937 15.8531 9.38125L14.4875 10.7469C14.2975 10.9369 14.1609 11.1684 14.0719 11.4119H4.04937V4.94V4.93406ZM5.44469 15.3662C5.77125 15.3662 6.03844 15.6334 6.03844 15.96V19.6294C6.03844 19.9559 5.77125 20.2231 5.44469 20.2231H1.78125C1.45469 20.2231 1.1875 19.9559 1.1875 19.6294V15.96C1.1875 15.6334 1.45469 15.3662 1.78125 15.3662H5.45062H5.44469Z" fill="#111111"/>
</svg>
