<svg width="37" height="35" viewBox="0 0 37 35" fill="none" xmlns="http://www.w3.org/2000/svg">
<path d="M25.5783 19.4343C25.9581 19.4343 26.266 19.1265 26.266 18.7466C26.266 18.3669 25.9581 18.059 25.5783 18.059C25.1985 18.059 24.8906 18.3669 24.8906 18.7466C24.8906 19.1265 25.1985 19.4343 25.5783 19.4343Z" fill="#111111"/>
<path fill-rule="evenodd" clip-rule="evenodd" d="M17.3573 3.97283e-09C17.5655 -2.09301e-05 17.7652 0.0826899 17.9125 0.22993L20.1143 2.43172C20.4208 2.73829 20.4208 3.23535 20.1143 3.54192C19.8077 3.84849 19.3107 3.84849 19.0041 3.54192L18.1429 2.68072V6.41772C18.1429 6.4218 18.1429 6.42588 18.1428 6.42986C24.2846 6.61324 29.1412 8.93284 29.1412 11.7673L29.1411 11.7931V25.7972C29.1408 25.7972 29.1414 25.7972 29.1411 25.7972H33.4303L32.5724 24.9397C32.2657 24.6331 32.2656 24.136 32.5722 23.8294C32.8787 23.5227 33.3758 23.5227 33.6824 23.8292L35.8842 26.0302C36.0315 26.1775 36.1142 26.3771 36.1143 26.5854C36.1143 26.7936 36.0316 26.9933 35.8843 27.1406L33.6825 29.3423C33.3759 29.6489 32.8789 29.6489 32.5723 29.3423C32.2657 29.0357 32.2657 28.5386 32.5723 28.2322L33.4371 27.3673H29.142C29.1417 27.3673 29.1423 27.3673 29.142 27.3673L29.1411 29.4275C29.1402 32.3814 23.8649 34.7758 17.3577 34.7758C12.1889 34.7758 7.79738 33.2646 6.20903 31.1626L2.94506 32.6351L3.99539 32.9164C4.4142 33.0285 4.6628 33.4589 4.55067 33.8777C4.43852 34.2965 4.00811 34.5452 3.5893 34.4329L0.581985 33.6277C0.380851 33.5739 0.209338 33.4423 0.105212 33.262C0.00108571 33.0816 -0.0271439 32.8674 0.0267509 32.6662L0.832671 29.6585C0.944877 29.2397 1.37533 28.9912 1.79412 29.1034C2.21291 29.2156 2.46144 29.6461 2.34922 30.0648L2.00889 31.335L5.59152 29.7188C5.58002 29.6221 5.57418 29.5247 5.57415 29.4268L5.57425 20.1724L5.57403 20.1394L5.57433 11.7523C5.59142 8.92468 10.4419 6.61293 16.5729 6.42986C16.5728 6.42588 16.5728 6.4218 16.5728 6.41772V2.68025L15.7116 3.54182C15.405 3.84845 14.9081 3.84853 14.6014 3.54201C14.2948 3.2355 14.2947 2.73845 14.6012 2.43182L16.8022 0.230023C16.9494 0.0827628 17.1492 2.0938e-05 17.3573 3.97283e-09ZM7.14424 29.4262V22.8091C9.18018 24.4107 12.9915 25.4886 17.3576 25.4886C18.8321 25.4886 20.2436 25.3656 21.5447 25.141L24.9614 27.5714C25.0617 27.7796 25.2638 27.9295 25.5031 27.9566L27.5711 29.4275C27.5705 29.9095 27.0675 30.8596 25.0404 31.7797C23.1549 32.6354 20.4402 33.2058 17.3577 33.2058C14.2751 33.2058 11.5605 32.6353 9.67506 31.7793C7.64791 30.8591 7.14476 29.9084 7.14424 29.4262ZM25.5814 27.961C25.5551 27.961 25.5285 27.9595 25.5031 27.9566L27.5711 29.4275V22.809C26.2229 23.8696 24.0956 24.7007 21.5447 25.141L24.9614 27.5714C24.9182 27.4814 24.8937 27.3798 24.8937 27.2733C24.8937 26.8935 25.2015 26.5857 25.5814 26.5857C25.9611 26.5857 26.2691 26.8935 26.2691 27.2733C26.2691 27.6531 25.9611 27.961 25.5814 27.961ZM27.5709 20.1394L27.5711 14.8985C26.9752 15.4022 26.2497 15.8345 25.4647 16.1908C23.3495 17.151 20.4826 17.7243 17.3579 17.7243C14.2331 17.7243 11.3662 17.151 9.25104 16.1908C8.86847 16.0171 8.50003 15.8255 8.15389 15.6163L7.14434 14.8982V20.1572C7.15638 20.6442 7.67084 21.5828 9.67433 22.4923C11.5598 23.3481 14.2747 23.9185 17.3576 23.9185C18.1562 23.9185 18.9302 23.8803 19.6715 23.8086C21.7913 23.6037 23.6438 23.1263 25.0407 22.4923C27.0686 21.5717 27.5709 20.6211 27.5709 20.1394ZM7.14434 14.8982C7.44988 15.1564 7.78964 15.3961 8.15389 15.6163L7.14434 14.8982ZM7.14434 11.7584C7.14968 11.2739 7.66173 10.326 9.68406 9.41024C11.5692 8.55676 14.2802 7.98829 17.3578 7.98829C20.4406 7.98829 23.1556 8.55864 25.041 9.41453C27.0689 10.3351 27.5712 11.2856 27.5712 11.7673V11.7766L27.5711 11.7849V12.0916C27.4839 12.9417 26.6476 13.9296 24.8157 14.7612C22.9475 15.6092 20.3116 16.1543 17.3579 16.1543C14.4043 16.1543 11.7683 15.6092 9.9001 14.7612C8.06586 13.9285 7.22965 12.9392 7.14434 12.0882V11.7618V11.7584Z" fill="#111111"/>
</svg>
