<svg width="20" height="20" viewBox="0 0 20 20" fill="none" xmlns="http://www.w3.org/2000/svg">
<g clip-path="url(#clip0_1_15744)">
<path d="M19.7556 18.5775L14.0682 12.8901C15.1699 11.5293 15.8332 9.80013 15.8332 7.91683C15.8332 3.55187 12.2815 0.000228882 7.91656 0.000228882C3.55161 0.000228882 0 3.55183 0 7.91679C0 12.2817 3.55165 15.8334 7.9166 15.8334C9.7999 15.8334 11.5291 15.1701 12.8899 14.0684L18.5773 19.7559C18.7398 19.9184 18.9531 20 19.1665 20C19.3799 20 19.5932 19.9184 19.7557 19.7559C20.0815 19.43 20.0815 18.9034 19.7556 18.5775ZM7.9166 14.1667C4.46996 14.1667 1.66666 11.3634 1.66666 7.91679C1.66666 4.47015 4.46996 1.66685 7.9166 1.66685C11.3632 1.66685 14.1665 4.47015 14.1665 7.91679C14.1665 11.3634 11.3632 14.1667 7.9166 14.1667Z" fill="#333333"/>
</g>
<defs>
<clipPath id="clip0_1_15744">
<rect width="20" height="20" fill="white"/>
</clipPath>
</defs>
</svg>
