<svg width="36" height="40" viewBox="0 0 36 40" fill="none" xmlns="http://www.w3.org/2000/svg">
<path d="M34.7053 26.6665C33.6382 26.0497 32.3107 26.2835 31.5088 27.1556L26.0966 24.0265V15.9736L31.5083 12.8448C31.8371 13.2038 32.2609 13.4632 32.7422 13.5923C32.965 13.6521 33.1913 13.6817 33.416 13.6817C33.8643 13.6817 34.3067 13.564 34.7053 13.3335C35.3037 12.9876 35.7318 12.4289 35.9107 11.7604C36.0896 11.092 35.9978 10.3939 35.6523 9.79451C35.3068 9.19524 34.7489 8.7665 34.0814 8.58739C33.4139 8.40828 32.7166 8.50026 32.1182 8.84617C31.5197 9.19216 31.0916 9.75087 30.9128 10.4193C30.7838 10.9012 30.7963 11.3984 30.9423 11.8631L26.0966 14.6646V12.6836C26.0966 10.8271 22.3965 9.81435 18.566 9.72342V5.11896C19.7214 4.85969 20.5875 3.82511 20.5875 2.5911C20.5875 1.16235 19.4268 0 18 0C16.5732 0 15.4125 1.16235 15.4125 2.5911C15.4125 3.82511 16.2786 4.85969 17.434 5.11896V9.72334C13.6035 9.81427 9.90344 10.8271 9.90344 12.6835V14.6646L5.05771 11.863C5.20374 11.3984 5.21628 10.9012 5.0873 10.4192C4.90844 9.75079 4.48036 9.19208 3.88192 8.84609C3.28347 8.5001 2.58629 8.40803 1.9187 8.58722C1.2512 8.76633 0.693262 9.195 0.347665 9.79435C-0.365525 11.0315 0.0592349 12.6191 1.2947 13.3334C1.69343 13.5639 2.13573 13.6816 2.58402 13.6816C2.80873 13.6816 3.03498 13.652 3.25783 13.5922C3.73912 13.463 4.16283 13.2036 4.49168 12.8446L9.90344 15.9734V24.0264L4.49168 27.1551C4.16291 26.7962 3.73912 26.5367 3.25792 26.4076C2.59025 26.2286 1.89315 26.3205 1.2947 26.6664C0.696254 27.0124 0.268179 27.5711 0.0893152 28.2396C-0.0896291 28.908 0.00222846 29.6062 0.347665 30.2055C0.693182 30.8048 1.2512 31.2335 1.9187 31.4126C2.14164 31.4725 2.3678 31.502 2.59251 31.502C3.04089 31.502 3.48335 31.3843 3.88192 31.1538C4.48036 30.8078 4.90844 30.2491 5.0873 29.5807C5.21628 29.0988 5.20374 28.6016 5.05771 28.1369L9.90344 25.3354V27.3164C9.90344 29.1729 13.6035 30.1857 17.434 30.2767V34.881C16.2786 35.1403 15.4125 36.1749 15.4125 37.4089C15.4125 38.8376 16.5732 40 18 40C19.4268 40 20.5875 38.8376 20.5875 37.4089C20.5875 36.1749 19.7214 35.1403 18.566 34.881V30.2767C22.3965 30.1857 26.0966 29.1729 26.0966 27.3164V25.3354L30.9423 28.1369C30.7963 28.6015 30.7837 29.0987 30.9127 29.5806C31.0916 30.249 31.5196 30.8078 32.1181 31.1537C32.5168 31.3843 32.9591 31.5019 33.4074 31.5019C33.6321 31.5019 33.8584 31.4724 34.0813 31.4125C34.7489 31.2334 35.3067 30.8048 35.6523 30.2054C36.3655 28.9685 35.9408 27.3809 34.7053 26.6665ZM32.6842 9.82796C32.9084 9.69832 33.1572 9.63216 33.4094 9.63216C33.5357 9.63216 33.6631 9.64885 33.7884 9.68245C34.1639 9.78318 34.4776 10.0243 34.672 10.3614C35.0732 11.0572 34.8343 11.9501 34.1394 12.3519C33.8028 12.5465 33.4107 12.5983 33.0352 12.4974C32.6598 12.3967 32.346 12.1556 32.1516 11.8186C31.7503 11.1226 31.9893 10.2297 32.6842 9.82796ZM3.84844 11.8184C3.65413 12.1555 3.34031 12.3966 2.96488 12.4973C2.5892 12.5981 2.19727 12.5463 1.86073 12.3518C1.16581 11.95 0.926868 11.057 1.3281 10.3612C1.59728 9.89427 2.08746 9.63297 2.59073 9.63297C2.83744 9.63297 3.08738 9.69573 3.31589 9.82787C3.65251 10.0224 3.89332 10.3367 3.99383 10.7127C4.09442 11.0886 4.04283 11.4813 3.84844 11.8184ZM3.99383 29.2874C3.89332 29.6634 3.65251 29.9776 3.31589 30.1722C2.97919 30.3668 2.58718 30.4185 2.21166 30.3178C1.83623 30.2171 1.52249 29.9759 1.3281 29.6388C0.926868 28.9431 1.16581 28.0501 1.86073 27.6483C2.08495 27.5187 2.33376 27.4525 2.58596 27.4525C2.71227 27.4525 2.83962 27.4692 2.96496 27.5028C3.34047 27.6035 3.65421 27.8446 3.84852 28.1817C4.04283 28.5188 4.09442 28.9114 3.99383 29.2874ZM16.5445 2.5911C16.5445 1.78745 17.1975 1.13361 18 1.13361C18.8025 1.13361 19.4555 1.78745 19.4555 2.5911C19.4555 3.39474 18.8025 4.04859 18 4.04859C17.1975 4.04859 16.5445 3.39474 16.5445 2.5911ZM18 10.8502C22.5063 10.8502 24.9645 12.0613 24.9645 12.6835C24.9645 13.3057 22.5063 14.5169 18 14.5169C13.4937 14.5169 11.0355 13.3058 11.0355 12.6835C11.0355 12.0612 13.4937 10.8502 18 10.8502ZM11.0355 14.2744C12.5247 15.1823 15.2735 15.6505 18 15.6505C20.7265 15.6505 23.4753 15.1823 24.9645 14.2744V17.5612C24.9645 18.1834 22.5063 19.3945 18 19.3945C13.4937 19.3945 11.0355 18.1834 11.0355 17.5612V14.2744ZM11.0355 19.1521C12.5247 20.06 15.2735 20.5281 18 20.5281C20.7265 20.5281 23.4753 20.06 24.9645 19.1521V22.4389C24.9645 23.0612 22.5063 24.2722 18 24.2722C13.4937 24.2722 11.0355 23.0611 11.0355 22.4389V19.1521ZM19.4555 37.409C19.4555 38.2126 18.8025 38.8665 18 38.8665C17.1975 38.8665 16.5445 38.2126 16.5445 37.409C16.5445 36.6053 17.1975 35.9515 18 35.9515C18.8025 35.9515 19.4555 36.6053 19.4555 37.409ZM18 29.1499C13.4937 29.1499 11.0355 27.9388 11.0355 27.3165V24.0298C12.5247 24.9376 15.2735 25.4058 18 25.4058C20.7265 25.4058 23.4753 24.9376 24.9645 24.0298V27.3165C24.9645 27.9388 22.5063 29.1499 18 29.1499ZM34.6719 29.6388C34.4776 29.9758 34.1638 30.217 33.7883 30.3177C33.4128 30.4185 33.0206 30.3668 32.6841 30.1722C32.3475 29.9776 32.1067 29.6634 32.0062 29.2874C31.9056 28.9115 31.9573 28.5188 32.1516 28.1817C32.4207 27.7147 32.9108 27.4533 33.4142 27.4533C33.6608 27.4533 33.9108 27.5162 34.1393 27.6482C34.8342 28.05 35.0731 28.943 34.6719 29.6388ZM12.3314 16.7198C12.4201 16.4196 12.7347 16.2484 13.0347 16.3371C13.497 16.474 14.0148 16.5915 14.5738 16.6859C14.882 16.7379 15.0898 17.0303 15.0378 17.339C14.9912 17.6157 14.7515 17.8116 14.4803 17.8116C14.449 17.8116 14.4174 17.809 14.3855 17.8036C13.7817 17.7017 13.2191 17.574 12.7133 17.4241C12.4137 17.3353 12.2426 17.02 12.3314 16.7198ZM12.3314 21.5975C12.4201 21.2974 12.7347 21.1261 13.0347 21.2149C13.497 21.3519 14.0149 21.4692 14.5738 21.5635C14.882 21.6156 15.0897 21.908 15.0378 22.2166C14.9912 22.4934 14.7516 22.6893 14.4803 22.6893C14.449 22.6893 14.4174 22.6867 14.3855 22.6813C13.7818 22.5794 13.2192 22.4518 12.7133 22.3018C12.4137 22.213 12.2426 21.8977 12.3314 21.5975ZM15.0378 27.0944C14.9912 27.3711 14.7515 27.567 14.4803 27.567C14.449 27.567 14.4174 27.5644 14.3855 27.559C13.7817 27.4571 13.2191 27.3294 12.7133 27.1795C12.4136 27.0907 12.2425 26.7754 12.3312 26.4751C12.4199 26.175 12.7345 26.0038 13.0345 26.0924C13.4968 26.2294 14.0146 26.3468 14.5736 26.4412C14.882 26.4933 15.0898 26.7857 15.0378 27.0944Z" fill="#111111"/>
</svg>
