<svg width="30" height="30" viewBox="0 0 30 30" fill="none" xmlns="http://www.w3.org/2000/svg">
<path d="M12.0889 5.17007C12.1578 4.44549 12.4943 3.77262 13.0328 3.28292C13.5712 2.79321 14.2729 2.52185 15.0008 2.52185C15.7286 2.52185 16.4303 2.79321 16.9688 3.28292C17.5072 3.77262 17.8438 4.44549 17.9126 5.17007C17.954 5.63814 18.1076 6.08934 18.3603 6.48549C18.613 6.88164 18.9575 7.21108 19.3645 7.44591C19.7715 7.68075 20.2291 7.81407 20.6985 7.83459C21.168 7.85512 21.6354 7.76224 22.0614 7.56382C22.7228 7.26354 23.4722 7.22009 24.1639 7.44192C24.8555 7.66376 25.4399 8.13501 25.8033 8.76395C26.1666 9.39289 26.283 10.1345 26.1297 10.8445C25.9764 11.5545 25.5644 12.1821 24.9739 12.6051C24.5894 12.8749 24.2755 13.2333 24.0588 13.6501C23.8421 14.0669 23.7289 14.5297 23.7289 14.9994C23.7289 15.4692 23.8421 15.932 24.0588 16.3488C24.2755 16.7656 24.5894 17.124 24.9739 17.3938C25.5644 17.8168 25.9764 18.4444 26.1297 19.1544C26.283 19.8644 26.1666 20.606 25.8033 21.2349C25.4399 21.8639 24.8555 22.3351 24.1639 22.557C23.4722 22.7788 22.7228 22.7353 22.0614 22.4351C21.6354 22.2366 21.168 22.1438 20.6985 22.1643C20.2291 22.1848 19.7715 22.3181 19.3645 22.553C18.9575 22.7878 18.613 23.1172 18.3603 23.5134C18.1076 23.9095 17.954 24.3607 17.9126 24.8288C17.8438 25.5534 17.5072 26.2263 16.9688 26.716C16.4303 27.2057 15.7286 27.477 15.0008 27.477C14.2729 27.477 13.5712 27.2057 13.0328 26.716C12.4943 26.2263 12.1578 25.5534 12.0889 24.8288C12.0476 24.3606 11.894 23.9092 11.6412 23.5129C11.3884 23.1166 11.0439 22.7871 10.6367 22.5522C10.2295 22.3174 9.77172 22.1841 9.30211 22.1637C8.8325 22.1433 8.36489 22.2364 7.93889 22.4351C7.2775 22.7353 6.52804 22.7788 5.83639 22.557C5.14473 22.3351 4.56035 21.8639 4.19699 21.2349C3.83363 20.606 3.71728 19.8644 3.87059 19.1544C4.02389 18.4444 4.43589 17.8168 5.02639 17.3938C5.41091 17.124 5.7248 16.7656 5.9415 16.3488C6.1582 15.932 6.27133 15.4692 6.27133 14.9994C6.27133 14.5297 6.1582 14.0669 5.9415 13.6501C5.7248 13.2333 5.41091 12.8749 5.02639 12.6051C4.43672 12.1819 4.02545 11.5546 3.87251 10.845C3.71958 10.1355 3.8359 9.39449 4.19887 8.76596C4.56184 8.13742 5.14553 7.66629 5.8365 7.44412C6.52747 7.22195 7.27637 7.26461 7.93764 7.56382C8.36358 7.76224 8.83107 7.85512 9.30051 7.83459C9.76996 7.81407 10.2276 7.68075 10.6346 7.44591C11.0416 7.21108 11.386 6.88164 11.6387 6.48549C11.8914 6.08934 12.045 5.63814 12.0864 5.17007" stroke="#333333" stroke-width="2" stroke-linecap="round" stroke-linejoin="round"/>
<path d="M15 18.75C17.0711 18.75 18.75 17.0711 18.75 15C18.75 12.9289 17.0711 11.25 15 11.25C12.9289 11.25 11.25 12.9289 11.25 15C11.25 17.0711 12.9289 18.75 15 18.75Z" stroke="#333333" stroke-width="2" stroke-linecap="round" stroke-linejoin="round"/>
</svg>
