<svg width="26" height="26" viewBox="0 0 26 26" fill="none" xmlns="http://www.w3.org/2000/svg">
<path d="M16.8043 17.6509L17.1866 17.8625C17.4705 18.0179 17.803 18.0588 18.116 17.9769C18.4291 17.8949 18.6989 17.6962 18.8701 17.4217L19.9172 15.6891C20.001 15.5519 20.0558 15.3991 20.0785 15.24C20.1011 15.0809 20.0911 14.9189 20.049 14.7638C20.0067 14.605 19.9324 14.4565 19.8309 14.3274C19.7293 14.1983 19.6024 14.0912 19.4581 14.0127L19.0574 13.7988C19.0956 13.5342 19.1148 13.2672 19.1148 12.9999C19.1148 12.7352 19.0953 12.4681 19.0793 12.1957L19.4581 11.9865C19.6024 11.9082 19.7293 11.8012 19.8309 11.6722C19.9325 11.5431 20.0067 11.3947 20.049 11.2361C20.091 11.081 20.101 10.9191 20.0784 10.7601C20.0557 10.6011 20.0009 10.4484 19.9172 10.3113L18.8701 8.57756C18.6986 8.30331 18.4288 8.10497 18.1158 8.02313C17.8028 7.9413 17.4705 7.98215 17.1866 8.13734L16.8049 8.34829C16.7864 8.35483 16.7666 8.35641 16.7473 8.35289C16.728 8.34936 16.71 8.34085 16.695 8.3282C16.2777 8.02242 15.8237 7.77029 15.3436 7.57775C15.3231 7.57043 15.3046 7.55827 15.2898 7.5423V7.12452C15.2856 6.79854 15.1523 6.48752 14.9191 6.25967C14.686 6.03181 14.3719 5.90572 14.0459 5.90903H11.9518C11.6258 5.90572 11.3118 6.03181 11.0786 6.25967C10.8454 6.48752 10.7121 6.79854 10.7079 7.12452V7.53816C10.6942 7.55716 10.6747 7.57125 10.6524 7.57834C10.1721 7.77067 9.71807 8.02281 9.30095 8.32879C9.28619 8.3414 9.26836 8.34989 9.24928 8.35342C9.23019 8.35694 9.21051 8.35538 9.19222 8.34888L8.8099 8.13734C8.52604 7.98206 8.19355 7.94122 7.88054 8.02317C7.56754 8.10513 7.29773 8.30369 7.1264 8.57816L6.07931 10.3107C5.99558 10.4479 5.94071 10.6007 5.91805 10.7598C5.8954 10.9189 5.90543 11.081 5.94754 11.2361C5.98986 11.3948 6.06408 11.5433 6.16568 11.6724C6.26727 11.8015 6.39411 11.9086 6.53845 11.9871L6.93908 12.201C6.90131 12.4656 6.88255 12.7326 6.88295 12.9999C6.88295 13.2646 6.90245 13.5317 6.9184 13.8041L6.53963 14.0133C6.39529 14.0917 6.26844 14.1986 6.16684 14.3276C6.06524 14.4567 5.99102 14.6051 5.94872 14.7638C5.90669 14.9188 5.8967 15.0807 5.91936 15.2397C5.94202 15.3987 5.99684 15.5514 6.08049 15.6885L7.12758 17.4223C7.29901 17.6966 7.56886 17.8951 7.88185 17.9769C8.19485 18.0587 8.52729 18.0178 8.81108 17.8625L9.19281 17.6515C9.21123 17.6446 9.23119 17.6428 9.25054 17.6464C9.2699 17.6499 9.28793 17.6586 9.30272 17.6716C9.71997 17.9774 10.174 18.2295 10.6541 18.4221C10.6746 18.4294 10.6931 18.4415 10.7079 18.4575V18.8753C10.7121 19.2013 10.8454 19.5123 11.0786 19.7402C11.3118 19.968 11.6258 20.0941 11.9518 20.0908H14.0459C14.3719 20.0941 14.686 19.968 14.9191 19.7402C15.1523 19.5123 15.2856 19.2013 15.2898 18.8753V18.4617C15.3035 18.4427 15.323 18.4286 15.3454 18.4215C15.8256 18.2291 16.2796 17.977 16.6968 17.671C16.7114 17.6586 16.729 17.6503 16.7479 17.6467C16.7667 17.6432 16.7862 17.6447 16.8043 17.6509ZM15.9971 16.7185C15.6601 16.9652 15.2934 17.1687 14.9057 17.3242C14.6743 17.4111 14.4744 17.5657 14.3321 17.7678C14.1898 17.97 14.1117 18.2103 14.108 18.4575V18.8753C14.108 18.8853 14.0861 18.909 14.0459 18.909H11.9518C11.9116 18.909 11.8897 18.8853 11.8897 18.8753V18.4575C11.8861 18.2106 11.8081 17.9704 11.6661 17.7684C11.524 17.5663 11.3244 17.4117 11.0932 17.3248C10.7053 17.1692 10.3385 16.9657 10.0012 16.7191C9.7764 16.5533 9.50458 16.4637 9.22531 16.4632C9.01442 16.4623 8.80678 16.5152 8.62199 16.6168L8.23967 16.8284C8.22342 16.8372 8.2047 16.8402 8.1865 16.8371C8.16829 16.834 8.15165 16.8249 8.13922 16.8113L7.11045 15.048L7.4904 14.8388C7.70497 14.7249 7.87943 14.5479 7.99027 14.3317C8.10111 14.1155 8.14299 13.8705 8.11027 13.6298C8.0496 13.2119 8.0496 12.7874 8.11027 12.3694C8.14292 12.1285 8.10082 11.8833 7.98964 11.6671C7.87846 11.4509 7.70358 11.274 7.48863 11.1604L7.09213 10.9241L8.13922 9.19152C8.15132 9.17739 8.16796 9.1679 8.18627 9.16467C8.20459 9.16144 8.22347 9.16466 8.23967 9.17379L8.62258 9.38592C8.83836 9.50118 9.08245 9.55276 9.32641 9.53466C9.57037 9.51657 9.80417 9.42953 10.0006 9.2837C10.3376 9.03698 10.7043 8.8335 11.092 8.67802C11.3234 8.59113 11.5233 8.43652 11.6656 8.23436C11.8079 8.0322 11.886 7.79185 11.8897 7.54466V7.12689C11.8897 7.11684 11.9116 7.09321 11.9518 7.09321H14.0459C14.0861 7.09321 14.108 7.11684 14.108 7.12689V7.54466C14.1116 7.79163 14.1896 8.03178 14.3317 8.23383C14.4737 8.43587 14.6734 8.59045 14.9045 8.67743C15.2924 8.83298 15.6592 9.03646 15.9965 9.28311C16.1927 9.42991 16.4268 9.51753 16.6712 9.53565C16.9156 9.55376 17.16 9.5016 17.3757 9.38533L17.758 9.17379C17.7743 9.16513 17.793 9.16211 17.8112 9.16521C17.8294 9.16831 17.846 9.17735 17.8585 9.19093L18.8873 10.9542L18.5073 11.1634C18.2927 11.2773 18.1183 11.4543 18.0074 11.6705C17.8966 11.8867 17.8547 12.1316 17.8874 12.3724C17.9481 12.7903 17.9481 13.2148 17.8874 13.6328C17.8548 13.8737 17.8969 14.1188 18.0081 14.3351C18.1193 14.5513 18.2941 14.7282 18.5091 14.8418L18.9056 15.0781L17.8585 16.8107C17.8463 16.8247 17.8297 16.8341 17.8114 16.8373C17.7931 16.8406 17.7743 16.8374 17.758 16.8284L17.3751 16.6163C17.1595 16.5006 16.9153 16.4488 16.6713 16.4669C16.4272 16.485 16.1934 16.5723 15.9971 16.7185Z" fill="#00BA00"/>
<path d="M13 9.74997C12.3572 9.74997 11.7289 9.94058 11.1944 10.2977C10.6599 10.6548 10.2434 11.1624 9.99739 11.7562C9.75141 12.3501 9.68705 13.0036 9.81245 13.634C9.93785 14.2644 10.2474 14.8435 10.7019 15.298C11.1564 15.7526 11.7355 16.0621 12.366 16.1875C12.9964 16.3129 13.6499 16.2485 14.2437 16.0026C14.8376 15.7566 15.3452 15.34 15.7023 14.8056C16.0594 14.2711 16.25 13.6427 16.25 13C16.2491 12.1383 15.9064 11.3122 15.2971 10.7029C14.6878 10.0936 13.8617 9.75091 13 9.74997ZM13 15.0681C12.591 15.0681 12.1911 14.9468 11.851 14.7196C11.5109 14.4923 11.2458 14.1693 11.0893 13.7914C10.9327 13.4135 10.8918 12.9977 10.9716 12.5965C11.0514 12.1953 11.2483 11.8268 11.5376 11.5375C11.8268 11.2483 12.1953 11.0513 12.5965 10.9715C12.9977 10.8917 13.4136 10.9327 13.7915 11.0892C14.1694 11.2457 14.4924 11.5108 14.7196 11.8509C14.9469 12.191 15.0682 12.5909 15.0682 13C15.0682 13.5485 14.8503 14.0745 14.4624 14.4624C14.0746 14.8502 13.5485 15.0681 13 15.0681Z" fill="#00BA00"/>
<path d="M13.0008 1.63852e-06C11.9582 -0.000520743 10.9193 0.123865 9.90625 0.3705L10.1863 1.51863C11.9263 1.09432 13.74 1.07063 15.4905 1.44933C17.241 1.82803 18.8826 2.59925 20.2917 3.70482C21.7007 4.8104 22.8403 6.22146 23.6246 7.83161C24.4088 9.44176 24.8172 11.209 24.819 12.9999C24.8252 15.4298 24.0728 17.8011 22.6669 19.783C22.3297 19.6 21.9527 19.5027 21.569 19.4999C21.0402 19.4973 20.5256 19.6712 20.1068 19.9941C19.6881 20.317 19.389 20.7704 19.257 21.2825C19.125 21.7946 19.1677 22.3361 19.3783 22.8212C19.5888 23.3063 19.9553 23.7072 20.4195 23.9605C20.8837 24.2138 21.4191 24.305 21.941 24.2196C22.4629 24.1342 22.9413 23.8771 23.3006 23.489C23.6598 23.1009 23.8793 22.604 23.9242 22.0771C23.9691 21.5502 23.8369 21.0234 23.5486 20.5801C25.1489 18.3772 26.0076 15.7227 26.0008 12.9999C25.9969 9.55335 24.626 6.24903 22.1889 3.81192C19.7518 1.3748 16.4475 0.00391157 13.0008 1.63852e-06ZM21.569 23.0454C21.3353 23.0454 21.1068 22.9761 20.9124 22.8462C20.7181 22.7163 20.5666 22.5318 20.4772 22.3158C20.3877 22.0999 20.3643 21.8622 20.4099 21.633C20.4555 21.4037 20.5681 21.1932 20.7334 21.0279C20.8986 20.8626 21.1092 20.75 21.3385 20.7044C21.5677 20.6588 21.8053 20.6822 22.0213 20.7717C22.2372 20.8611 22.4218 21.0126 22.5517 21.207C22.6815 21.4013 22.7508 21.6298 22.7508 21.8636C22.7508 22.177 22.6263 22.4776 22.4047 22.6992C22.1831 22.9209 21.8825 23.0454 21.569 23.0454Z" fill="#00BA00"/>
<path d="M13 25.9999C14.0427 26.0005 15.0816 25.8761 16.0946 25.6294L15.8145 24.4813C14.0745 24.9056 12.2609 24.9293 10.5104 24.5506C8.75991 24.1719 7.11824 23.4007 5.70922 22.2951C4.30019 21.1895 3.16058 19.7785 2.37633 18.1683C1.59207 16.5582 1.18365 14.791 1.18186 13C1.17573 10.5701 1.92806 8.19886 3.33395 6.21697C3.67115 6.39998 4.04821 6.49719 4.43186 6.50001C4.96067 6.50262 5.47524 6.3287 5.89403 6.0058C6.31283 5.6829 6.6119 5.22949 6.74387 4.7174C6.87584 4.20532 6.83317 3.66383 6.6226 3.17874C6.41204 2.69365 6.04562 2.2927 5.58142 2.03939C5.11721 1.78609 4.58175 1.69492 4.05987 1.78034C3.538 1.86576 3.05954 2.12288 2.70032 2.51096C2.34109 2.89904 2.12163 3.39589 2.07671 3.9228C2.03178 4.44971 2.16397 4.97654 2.45231 5.41983C0.852019 7.62271 -0.00673995 10.2772 3.98372e-05 13C0.00394978 16.4466 1.37484 19.7509 3.81197 22.188C6.2491 24.6251 9.55343 25.996 13 25.9999ZM4.43186 2.95457C4.6656 2.95457 4.89409 3.02388 5.08844 3.15374C5.28279 3.2836 5.43427 3.46817 5.52372 3.68412C5.61317 3.90007 5.63657 4.13769 5.59097 4.36694C5.54537 4.59619 5.43281 4.80677 5.26753 4.97205C5.10225 5.13733 4.89167 5.24989 4.66242 5.29549C4.43317 5.34109 4.19555 5.31768 3.9796 5.22824C3.76365 5.13879 3.57907 4.98731 3.44921 4.79296C3.31935 4.59862 3.25004 4.37012 3.25004 4.13638C3.25004 3.82295 3.37455 3.52235 3.59619 3.30071C3.81782 3.07908 4.11842 2.95457 4.43186 2.95457Z" fill="#00BA00"/>
</svg>
