<svg width="20" height="20" viewBox="0 0 20 20" fill="none" xmlns="http://www.w3.org/2000/svg">
<path d="M12.7909 20.0003H7.20941C2.15817 20.0003 0 17.8421 0 12.7909V7.20941C0 2.15817 2.15817 0 7.20941 0H12.7909C17.8421 0 20.0003 2.15817 20.0003 7.20941V12.7909C20.0003 17.8421 17.8421 20.0003 12.7909 20.0003ZM7.20941 1.39537C2.92097 1.39537 1.39537 2.92097 1.39537 7.20941V12.7909C1.39537 17.0793 2.92097 18.6049 7.20941 18.6049H12.7909C17.0793 18.6049 18.6049 17.0793 18.6049 12.7909V7.20941C18.6049 2.92097 17.0793 1.39537 12.7909 1.39537H7.20941Z" fill="#333333"/>
<path d="M7.21331 20.0003C6.83191 20.0003 6.51562 19.684 6.51562 19.3026V0.697685C6.51562 0.316284 6.83191 0 7.21331 0C7.59471 0 7.91099 0.316284 7.91099 0.697685V19.3026C7.91099 19.684 7.59471 20.0003 7.21331 20.0003Z" fill="#333333"/>
</svg>
