<svg width="39" height="36" viewBox="0 0 39 36" fill="none" xmlns="http://www.w3.org/2000/svg">
<path d="M33.1172 17.0005H34.1172V19.0005H33.1172V17.0005Z" fill="#111111"/>
<path d="M33.1172 24.0005H34.1172V25.0005H33.1172V24.0005Z" fill="#111111"/>
<path d="M3.48397 29.0331C1.56198 29.0331 0 30.595 0 32.517C0 34.439 1.56198 36.001 3.48397 36.001C5.40595 36.001 6.96793 34.439 6.96793 32.517C6.96793 30.595 5.40595 29.0331 3.48397 29.0331ZM3.48397 34.8397C2.20071 34.8397 1.16132 33.8003 1.16132 32.517C1.16132 31.2338 2.20071 30.1944 3.48397 30.1944C4.76723 30.1944 5.80661 31.2338 5.80661 32.517C5.80661 33.8003 4.76723 34.8397 3.48397 34.8397Z" fill="#111111"/>
<path d="M3.48397 14.5165C1.56198 14.5165 0 16.0785 0 18.0005C0 19.9225 1.56198 21.4844 3.48397 21.4844C5.40595 21.4844 6.96793 19.9225 6.96793 18.0005C6.96793 16.0785 5.40595 14.5165 3.48397 14.5165ZM3.48397 20.3231C2.20071 20.3231 1.16132 19.2837 1.16132 18.0005C1.16132 16.7172 2.20071 15.6778 3.48397 15.6778C4.76723 15.6778 5.80661 16.7172 5.80661 18.0005C5.80661 19.2837 4.76723 20.3231 3.48397 20.3231Z" fill="#111111"/>
<path d="M3.48397 0C1.56198 0 0 1.56198 0 3.48397C0 5.40595 1.56198 6.96793 3.48397 6.96793C5.40595 6.96793 6.96793 5.40595 6.96793 3.48397C6.96793 1.56198 5.40595 0 3.48397 0ZM3.48397 5.80661C2.20071 5.80661 1.16132 4.76723 1.16132 3.48397C1.16132 2.20071 2.20071 1.16132 3.48397 1.16132C4.76723 1.16132 5.80661 2.20071 5.80661 3.48397C5.80661 4.76723 4.76723 5.80661 3.48397 5.80661Z" fill="#111111"/>
<path d="M21.2338 17.5243L18.3305 15.492L17.6627 16.4443L19.0563 17.4198H13.9291V5.80659C13.9291 4.20397 12.6284 2.90329 11.0258 2.90329H8.70312V4.06461H11.0258C11.9839 4.06461 12.7678 4.8485 12.7678 5.80659V17.4198H8.70312V18.5811H12.7678V30.1944C12.7678 31.1524 11.9839 31.9363 11.0258 31.9363H8.70312V33.0977H11.0258C12.6284 33.0977 13.9291 31.797 13.9291 30.1944V18.5811H19.0563L17.6627 19.5566L18.3305 20.5089L21.2338 18.4766C21.3906 18.3663 21.4835 18.1921 21.4835 18.0005C21.4835 17.8089 21.3906 17.6347 21.2338 17.5243Z" fill="#111111"/>
<path d="M30.6172 8.00046C26.4104 8.00046 23.1172 9.88617 23.1172 12.2862V23.7147C23.1172 26.1147 26.4104 28.0005 30.6172 28.0005C34.824 28.0005 38.1172 26.1147 38.1172 23.7147V12.2862C38.1172 9.88617 34.824 8.00046 30.6172 8.00046ZM36.7536 23.7147C36.7536 25.0647 34.2308 26.5719 30.6172 26.5719C27.0036 26.5719 24.4808 25.0647 24.4808 23.7147V20.4862C25.824 21.579 28.0467 22.2862 30.6172 22.2862C33.1876 22.2862 35.4104 21.579 36.7536 20.4862V23.7147ZM36.7536 18.0005C36.7536 19.3505 34.2308 20.8576 30.6172 20.8576C27.0036 20.8576 24.4808 19.3505 24.4808 18.0005V14.7719C25.824 15.8647 28.0467 16.5719 30.6172 16.5719C33.1876 16.5719 35.4104 15.8647 36.7536 14.7719V18.0005ZM30.6172 15.1433C27.0036 15.1433 24.4808 13.6362 24.4808 12.2862C24.4808 10.9362 27.0036 9.42903 30.6172 9.42903C34.2308 9.42903 36.7536 10.9362 36.7536 12.2862C36.7536 13.6362 34.2308 15.1433 30.6172 15.1433Z" fill="#111111"/>
</svg>
