<svg width="24" height="24" viewBox="0 0 24 24" fill="none" xmlns="http://www.w3.org/2000/svg">
<path d="M11.6667 0C12.311 0 12.8333 0.522334 12.8333 1.16667V2.33333C12.8333 2.97767 12.311 3.5 11.6667 3.5C11.0223 3.5 10.5 2.97767 10.5 2.33333V1.16667C10.5 0.522334 11.0223 0 11.6667 0ZM19.9163 3.41708C20.3719 3.87269 20.3719 4.61138 19.9163 5.06699L19.0913 5.89195C18.6357 6.34756 17.897 6.34756 17.4414 5.89195C16.9858 5.43634 16.9858 4.69765 17.4414 4.24204L18.2664 3.41708C18.722 2.96147 19.4607 2.96147 19.9163 3.41708ZM3.41708 3.41708C3.87269 2.96147 4.61138 2.96147 5.067 3.41708L5.89195 4.24204C6.34756 4.69765 6.34756 5.43634 5.89195 5.89195C5.43634 6.34756 4.69765 6.34756 4.24204 5.89195L3.41708 5.067C2.96147 4.61138 2.96147 3.87269 3.41708 3.41708ZM11.6667 7C9.08934 7 7 9.08934 7 11.6667C7 14.244 9.08934 16.3333 11.6667 16.3333C14.244 16.3333 16.3333 14.244 16.3333 11.6667C16.3333 9.08934 14.244 7 11.6667 7ZM4.66667 11.6667C4.66667 7.80067 7.80067 4.66667 11.6667 4.66667C15.5327 4.66667 18.6667 7.80067 18.6667 11.6667C18.6667 15.5327 15.5327 18.6667 11.6667 18.6667C7.80067 18.6667 4.66667 15.5327 4.66667 11.6667ZM0 11.6667C0 11.0223 0.522334 10.5 1.16667 10.5H2.33333C2.97767 10.5 3.5 11.0223 3.5 11.6667C3.5 12.311 2.97767 12.8333 2.33333 12.8333H1.16667C0.522334 12.8333 0 12.311 0 11.6667ZM19.8333 11.6667C19.8333 11.0223 20.3557 10.5 21 10.5H22.1667C22.811 10.5 23.3333 11.0223 23.3333 11.6667C23.3333 12.311 22.811 12.8333 22.1667 12.8333H21C20.3557 12.8333 19.8333 12.311 19.8333 11.6667ZM4.24204 17.4414C4.69765 16.9857 5.43634 16.9857 5.89195 17.4414C6.34756 17.897 6.34756 18.6357 5.89195 19.0913L5.067 19.9162C4.61138 20.3718 3.87269 20.3718 3.41708 19.9162C2.96147 19.4606 2.96147 18.7219 3.41708 18.2663L4.24204 17.4414ZM17.4414 19.0913C16.9858 18.6357 16.9858 17.897 17.4414 17.4414C17.897 16.9857 18.6357 16.9857 19.0913 17.4414L19.9163 18.2663C20.3719 18.7219 20.3719 19.4606 19.9163 19.9162C19.4607 20.3718 18.722 20.3718 18.2664 19.9162L17.4414 19.0913ZM11.6667 19.8333C12.311 19.8333 12.8333 20.3557 12.8333 21V22.1667C12.8333 22.811 12.311 23.3333 11.6667 23.3333C11.0223 23.3333 10.5 22.811 10.5 22.1667V21C10.5 20.3557 11.0223 19.8333 11.6667 19.8333Z" fill="white"/>
</svg>
