<svg width="27" height="27" viewBox="0 0 27 27" fill="none" xmlns="http://www.w3.org/2000/svg">
<path fill-rule="evenodd" clip-rule="evenodd" d="M10.5049 2.89286C9.64505 2.89286 8.90812 3.50743 8.75371 4.35327L6.82203 14.9346C6.36198 17.4547 4.1664 19.2857 1.60468 19.2857H1.44643C0.647588 19.2857 0 18.6381 0 17.8393C0 17.0404 0.647588 16.3929 1.44643 16.3929H1.60468C2.7691 16.3929 3.76709 15.5606 3.9762 14.4151L5.90789 3.83375C6.31324 1.61333 8.24775 0 10.5049 0C12.951 0 14.9832 1.88647 15.1649 4.32585L16.5456 22.8628C16.5978 23.5645 17.1824 24.1071 17.886 24.1071C18.5431 24.1071 19.1039 23.6321 19.2119 22.984L20.2147 16.9674C20.6409 14.4101 22.8535 12.5357 25.4461 12.5357H25.5536C26.3524 12.5357 27 13.1833 27 13.9821C27 14.781 26.3524 15.4286 25.5536 15.4286H25.4461C24.2676 15.4286 23.2619 16.2806 23.0681 17.443L22.0654 23.4596C21.7249 25.5026 19.9572 27 17.886 27C15.6681 27 13.8255 25.2895 13.6607 23.0777L12.28 4.54073C12.2108 3.61148 11.4367 2.89286 10.5049 2.89286Z" fill="#111111"/>
</svg>
