<svg width="22" height="25" viewBox="0 0 22 25" fill="none" xmlns="http://www.w3.org/2000/svg">
<path d="M0.648438 14.0391L8.65369 19.0479C9.88365 19.8175 11.4132 19.8175 12.6432 19.0479L20.6484 14.0391" stroke="#2563FB" stroke-width="1.3" stroke-miterlimit="10" stroke-linecap="round" stroke-linejoin="round"/>
<path d="M0.648438 10.1375L8.65369 15.1463C9.88365 15.9159 11.4132 15.9159 12.6432 15.1463L20.6484 10.1375" stroke="#2563FB" stroke-width="1.3" stroke-miterlimit="10" stroke-linecap="round" stroke-linejoin="round"/>
<path d="M0.90625 6.39465L8.65799 11.2448C9.88795 12.0144 11.4175 12.0144 12.6475 11.2448L20.3992 6.39465" stroke="#2563FB" stroke-width="1.3" stroke-miterlimit="10" stroke-linecap="round" stroke-linejoin="round"/>
<path d="M0.648438 7.40988C0.648438 6.68221 1.01199 6.00851 1.60487 5.63756L8.65364 1.22723C9.8836 0.457624 11.4132 0.457624 12.6431 1.22723L19.692 5.63756C20.2848 6.00851 20.6484 6.68221 20.6484 7.40988V16.7668C20.6484 17.4945 20.2848 18.1682 19.692 18.5391L12.6431 22.9495C11.4132 23.7191 9.8836 23.7191 8.65364 22.9495L1.60487 18.5391C1.01199 18.1682 0.648438 17.4945 0.648438 16.7668V7.40988Z" stroke="#2563FB" stroke-width="1.3" stroke-miterlimit="10" stroke-linecap="round" stroke-linejoin="round"/>
</svg>
