<svg width="40" height="38" viewBox="0 0 40 38" fill="none" xmlns="http://www.w3.org/2000/svg">
<path fill-rule="evenodd" clip-rule="evenodd" d="M1.29032 6.3048V24.9572C1.29032 25.3758 1.63548 25.719 2.05669 25.719H20.3673C20.7235 25.719 21.0125 26.0071 21.0125 26.3619C21.0125 26.7167 20.7235 27.0048 20.3673 27.0048H2.05669C0.925564 27.0048 0 26.0817 0 24.9572V2.0495C0 0.922568 0.925725 0 2.05669 0H31.6485C32.7796 0 33.7033 0.922327 33.7033 2.0495V10.2049C33.7033 10.5598 33.4142 10.8478 33.0581 10.8478C32.7021 10.8478 32.413 10.5598 32.413 10.2049V6.3048H1.29032ZM32.413 5.019V2.0495C32.413 1.62984 32.0697 1.28581 31.6485 1.28581H2.05669C1.63524 1.28581 1.29032 1.6296 1.29032 2.0495V5.019H32.413ZM7.64532 3.97291C7.19145 3.97291 6.82096 3.60557 6.82096 3.15337C6.82096 2.70108 7.19145 2.3319 7.64532 2.3319C8.09911 2.3319 8.46774 2.70108 8.46774 3.15337C8.46774 3.60557 8.09911 3.97291 7.64532 3.97291ZM10.8073 3.97291C10.3535 3.97291 9.98298 3.60557 9.98298 3.15337C9.98298 2.70108 10.3535 2.3319 10.8073 2.3319C11.2611 2.3319 11.6316 2.70108 11.6316 3.15337C11.6316 3.60557 11.2611 3.97291 10.8073 3.97291ZM4.48145 3.97291C4.02758 3.97291 3.65709 3.60557 3.65709 3.15337C3.65709 2.70108 4.02758 2.3319 4.48145 2.3319C4.93524 2.3319 5.30572 2.70108 5.30572 3.15337C5.30572 3.60557 4.93524 3.97291 4.48145 3.97291ZM26.1856 29.9141L23.7061 32.4811C23.5368 32.6565 23.2827 32.7215 23.0496 32.6492C22.8164 32.5769 22.6443 32.3797 22.6047 32.1397L21.3486 24.5271C21.3061 24.2692 21.4243 24.0115 21.6476 23.8748L24.9099 21.8788C25.4073 16.6314 27.4476 12.1894 30.2423 9.72361C30.4864 9.50824 30.8534 9.50816 31.0976 9.72345C33.8928 12.1883 35.9332 16.631 36.4304 21.8776L39.6926 23.875C39.9158 24.0116 40.0339 24.2693 39.9914 24.527L38.7363 32.1388C38.6967 32.3788 38.5245 32.5761 38.2914 32.6484C38.0584 32.7207 37.8043 32.6557 37.6349 32.4805L35.1539 29.9133L34.2835 29.9134L34.2828 32.4143C34.2827 32.7692 33.9939 33.057 33.6376 33.057H27.7024C27.5313 33.057 27.3671 32.9893 27.2461 32.8687C27.1251 32.748 27.0572 32.5845 27.0572 32.414L27.0579 29.914L26.1856 29.9141ZM24.8086 23.4495L22.6922 24.7446L23.669 30.6653L25.2149 29.0648C24.9413 27.5763 24.7935 26.0005 24.7926 24.3703V24.3699C24.7927 24.0611 24.7981 23.7542 24.8086 23.4495ZM36.5315 23.4487C36.5421 23.7536 36.5474 24.0609 36.5474 24.37C36.5474 26.0016 36.4002 27.5773 36.1259 29.0655L37.6717 30.6649L38.648 24.7445L36.5315 23.4487ZM32.9932 29.9135L28.3482 29.9139L28.3477 31.7712H32.9926L32.9932 29.9135ZM26.4474 28.6283L34.8938 28.6275C35.1308 27.2738 35.2571 25.8459 35.2571 24.37C35.2571 18.7646 33.4414 13.8377 30.6701 11.0869C27.8996 13.8384 26.0839 18.7637 26.083 24.3699C26.0838 25.8452 26.2108 27.2737 26.4474 28.6283ZM27.9938 18.7902C29.4725 17.3166 31.8686 17.3177 33.3463 18.7902C34.824 20.2627 34.825 22.6504 33.3463 24.124C31.8685 25.5966 29.4723 25.5957 27.9946 24.1231C26.5168 22.6506 26.516 20.2627 27.9938 18.7902ZM28.9062 19.6994C27.9322 20.6699 27.9331 22.2435 28.907 23.214C29.8809 24.1845 31.46 24.1853 32.4339 23.2148C33.4085 22.2436 33.4078 20.6699 32.4339 19.6994C31.46 18.7289 29.8808 18.7282 28.9062 19.6994ZM28.268 34.0303C28.268 33.6754 28.557 33.3874 28.9131 33.3874C29.2692 33.3874 29.5583 33.6754 29.5583 34.0303V35.7927C29.5583 36.1476 29.2692 36.4357 28.9131 36.4357C28.557 36.4357 28.268 36.1476 28.268 35.7927V34.0303ZM31.7835 34.0303C31.7835 33.6754 32.0726 33.3874 32.4286 33.3874C32.7847 33.3874 33.0738 33.6754 33.0738 34.0303V35.7927C33.0738 36.1476 32.7847 36.4357 32.4286 36.4357C32.0726 36.4357 31.7835 36.1476 31.7835 35.7927V34.0303ZM30.0249 34.0305C30.0247 33.6756 30.3138 33.3875 30.6699 33.3874C31.026 33.3872 31.3151 33.6753 31.3152 34.0301L31.316 37.3569C31.3161 37.7117 31.0271 37.9999 30.671 38C30.315 38.0001 30.0258 37.7121 30.0257 37.3573L30.0249 34.0305ZM10.832 18.1383C11.0838 18.3892 11.0838 18.7965 10.832 19.0474C10.5802 19.2983 10.1714 19.2983 9.91967 19.0474L7.21266 16.3499C6.96072 16.0989 6.96072 15.6919 7.21266 15.4407L9.91967 12.7433C10.1714 12.4924 10.5802 12.4924 10.832 12.7433C11.0838 12.9941 11.0838 13.4016 10.832 13.6525L8.58129 15.8953L10.832 18.1383ZM17.7492 19.0474C17.4974 19.2983 17.0886 19.2983 16.8368 19.0474C16.5851 18.7965 16.5851 18.3892 16.8368 18.1383L19.0876 15.8953L16.8368 13.6525C16.5851 13.4016 16.5851 12.9941 16.8368 12.7433C17.0886 12.4924 17.4974 12.4924 17.7492 12.7433L20.4562 15.4407C20.7081 15.6919 20.7081 16.0989 20.4562 16.3499L17.7492 19.0474ZM14.6839 12.8991C14.8493 12.5849 15.2397 12.4637 15.5549 12.6286C15.8702 12.7935 15.9918 13.1824 15.8264 13.4967L12.985 18.8916C12.8195 19.2058 12.4292 19.327 12.1139 19.1621C11.7986 18.9972 11.677 18.6082 11.8425 18.2941L14.6839 12.8991Z" fill="#111111"/>
</svg>
