<svg width="24" height="20" viewBox="0 0 24 20" fill="none" xmlns="http://www.w3.org/2000/svg">
<path d="M0.748354 3.86469H12.9331C13.2692 5.22267 14.4976 6.23262 15.958 6.23262C17.4184 6.23262 18.6468 5.22267 18.9829 3.86469H23.199C23.6122 3.86469 23.9473 3.52961 23.9473 3.11633C23.9473 2.70305 23.6122 2.36798 23.199 2.36798H18.9828C18.6468 1.01 17.4184 0 15.9579 0C14.4975 0 13.2691 1.01 12.9331 2.36798H0.748354C0.335075 2.36798 0 2.70305 0 3.11633C0 3.52961 0.335075 3.86469 0.748354 3.86469ZM15.958 1.49671C16.8511 1.49671 17.5776 2.22327 17.5776 3.11629C17.5776 4.00935 16.8511 4.73591 15.958 4.73591C15.0649 4.73591 14.3384 4.00935 14.3384 3.11629C14.3384 2.22327 15.0649 1.49671 15.958 1.49671ZM0.748354 10.3374H4.96449C5.30059 11.6954 6.52897 12.7053 7.98938 12.7053C9.44979 12.7053 10.6782 11.6954 11.0143 10.3374H23.199C23.6122 10.3374 23.9473 10.0023 23.9473 9.58903C23.9473 9.17575 23.6122 8.84068 23.199 8.84068H11.0142C10.6781 7.4827 9.44974 6.4727 7.98933 6.4727C6.52892 6.4727 5.30054 7.4827 4.96444 8.84068H0.748354C0.335075 8.84068 0 9.17575 0 9.58903C0 10.0023 0.335029 10.3374 0.748354 10.3374ZM7.98933 7.96941C8.8824 7.96941 9.60896 8.69596 9.60896 9.58903C9.60896 10.4821 8.8824 11.2086 7.98933 11.2086C7.09626 11.2086 6.36971 10.4821 6.36971 9.58903C6.36971 8.69596 7.09626 7.96941 7.98933 7.96941ZM23.199 15.3134H18.9828C18.6467 13.9554 17.4184 12.9454 15.9579 12.9454C14.4975 12.9454 13.2692 13.9554 12.9331 15.3134H0.748354C0.335075 15.3134 0 15.6485 0 16.0617C0 16.475 0.335075 16.8101 0.748354 16.8101H12.9331C13.2692 18.1681 14.4976 19.1781 15.958 19.1781C17.4184 19.1781 18.6468 18.1681 18.9829 16.8101H23.199C23.6122 16.8101 23.9473 16.475 23.9473 16.0617C23.9473 15.6485 23.6123 15.3134 23.199 15.3134ZM15.958 17.6814C15.0649 17.6814 14.3384 16.9548 14.3384 16.0617C14.3384 15.1687 15.0649 14.4421 15.958 14.4421C16.8511 14.4421 17.5776 15.1687 17.5776 16.0617C17.5776 16.9548 16.8511 17.6814 15.958 17.6814Z" fill="#333333"/>
</svg>
