<svg width="23" height="22" viewBox="0 0 23 22" fill="none" xmlns="http://www.w3.org/2000/svg">
<path d="M21.7569 13.2882C21.5414 13.2882 21.3347 13.3738 21.1824 13.5262C21.03 13.6785 20.9444 13.8852 20.9444 14.1007V16.8754C20.9444 17.5294 20.6846 18.1566 20.2221 18.6191C19.7597 19.0815 19.1324 19.3413 18.4784 19.3413H4.34094C3.68693 19.3413 3.05971 19.0815 2.59726 18.6191C2.1348 18.1566 1.875 17.5294 1.875 16.8754V14.1007C1.875 13.8852 1.7894 13.6785 1.63702 13.5262C1.48465 13.3738 1.27799 13.2882 1.0625 13.2882C0.847012 13.2882 0.640349 13.3738 0.487976 13.5262C0.335602 13.6785 0.25 13.8852 0.25 14.1007V16.8754C0.251076 17.96 0.682429 19 1.4494 19.7669C2.21636 20.5339 3.25628 20.9652 4.34094 20.9663H18.4784C19.5631 20.9652 20.603 20.5339 21.37 19.7669C22.1369 19 22.5683 17.96 22.5694 16.8754V14.1007C22.5694 13.8852 22.4838 13.6785 22.3314 13.5262C22.179 13.3738 21.9724 13.2882 21.7569 13.2882Z" fill="white" stroke="white" stroke-width="0.5"/>
<path d="M7.34856 6.26008L10.5986 3.01008V15.0757C10.5986 15.2912 10.6842 15.4979 10.8365 15.6502C10.9889 15.8026 11.1956 15.8882 11.4111 15.8882C11.6265 15.8882 11.8332 15.8026 11.9856 15.6502C12.138 15.4979 12.2236 15.2912 12.2236 15.0757V3.02227L15.4736 6.27227C15.549 6.34776 15.6387 6.40764 15.7373 6.44849C15.8359 6.48935 15.9416 6.51037 16.0484 6.51037C16.1552 6.51037 16.2609 6.48935 16.3595 6.44849C16.4581 6.40764 16.5478 6.34776 16.6232 6.27227C16.6987 6.19678 16.7586 6.10716 16.7995 6.00853C16.8403 5.90989 16.8614 5.80418 16.8614 5.69742C16.8614 5.59066 16.8403 5.48495 16.7995 5.38632C16.7586 5.28769 16.6987 5.19807 16.6232 5.12258L11.9879 0.487266C11.875 0.377712 11.7347 0.300539 11.5817 0.263829C11.4502 0.239622 11.3148 0.247277 11.1869 0.286152C11.0589 0.325027 10.9422 0.39399 10.8464 0.487266L6.21106 5.11039C6.08207 5.26561 6.01546 5.46327 6.0242 5.6649C6.03294 5.86653 6.11642 6.05769 6.25836 6.20116C6.40031 6.34462 6.59056 6.43013 6.79209 6.44102C6.99361 6.45191 7.19198 6.38741 7.34856 6.26008Z" fill="white" stroke="white" stroke-width="0.5"/>
</svg>
