<svg width="40" height="26" viewBox="0 0 40 26" fill="none" xmlns="http://www.w3.org/2000/svg">
<path d="M13.4022 11.0124C14.6367 9.99296 15.4247 8.45124 15.4247 6.72878C15.4247 3.66594 12.9331 1.17468 9.87026 1.17468C6.80742 1.17468 4.31578 3.66594 4.31578 6.72878C4.31578 8.45124 5.10383 9.99296 6.33834 11.0124C2.69294 12.0017 0 15.3304 0 19.2852V21.9043C0 22.3403 0.353197 22.6931 0.78882 22.6931H5.47745H14.2631H18.9517C19.3873 22.6931 19.7405 22.3403 19.7405 21.9043V19.2852C19.7405 15.3304 17.0476 12.0017 13.4022 11.0124ZM5.89342 6.72878C5.89342 4.53641 7.67751 2.75232 9.87026 2.75232C12.063 2.75232 13.8471 4.53641 13.8471 6.72878C13.8471 8.92114 12.063 10.7052 9.87026 10.7052C7.67751 10.7052 5.89342 8.92114 5.89342 6.72878ZM18.1629 21.1155H15.0519V18.1158C15.0519 17.6798 14.6987 17.327 14.2631 17.327C13.8275 17.327 13.4743 17.6798 13.4743 18.1158V21.1155H6.26627V18.1158C6.26627 17.6798 5.91307 17.327 5.47745 17.327C5.04182 17.327 4.68863 17.6798 4.68863 18.1158V21.1155H1.57764V19.2852C1.57764 15.4243 4.71867 12.2829 8.57957 12.2829H11.161C15.0219 12.2829 18.1629 15.4243 18.1629 19.2852V21.1155Z" fill="#111111"/>
<path d="M39.2126 0H30.1716C29.736 0 29.3828 0.352812 29.3828 0.78882V5.54254C29.3828 5.97855 29.736 6.33136 30.1716 6.33136H39.2126C39.6483 6.33136 40.0015 5.97855 40.0015 5.54254V0.78882C40.0015 0.352812 39.6483 0 39.2126 0ZM38.4238 4.75372H30.9605V1.57764H38.4238V4.75372Z" fill="#111111"/>
<path d="M39.2126 9.36938H30.1716C29.736 9.36938 29.3828 9.7222 29.3828 10.1582V14.9112C29.3828 15.3472 29.736 15.7 30.1716 15.7H39.2126C39.6483 15.7 40.0015 15.3472 40.0015 14.9112V10.1582C40.0015 9.7222 39.6483 9.36938 39.2126 9.36938ZM38.4238 14.1223H30.9605V10.947H38.4238V14.1223Z" fill="#111111"/>
<path d="M39.2126 18.7383H30.1716C29.736 18.7383 29.3828 19.0911 29.3828 19.5271V24.2808C29.3828 24.7168 29.736 25.0696 30.1716 25.0696H39.2126C39.6483 25.0696 40.0015 24.7168 40.0015 24.2808V19.5271C40.0015 19.0911 39.6483 18.7383 39.2126 18.7383ZM38.4238 23.492H30.9605V20.3159H38.4238V23.492Z" fill="#111111"/>
<path d="M25.0267 3.9541H28.1905C28.6261 3.9541 28.9793 3.60129 28.9793 3.16528C28.9793 2.72928 28.6261 2.37646 28.1905 2.37646H24.2379C23.8023 2.37646 23.4491 2.72928 23.4491 3.16528V10.8547V11.746H20.0388C19.6032 11.746 19.25 12.0988 19.25 12.5348C19.25 12.9708 19.6032 13.3237 20.0388 13.3237H23.4491V21.9044C23.4491 22.3404 23.8023 22.6932 24.2379 22.6932H28.1905C28.6261 22.6932 28.9793 22.3404 28.9793 21.9044C28.9793 21.4684 28.6261 21.1156 28.1905 21.1156H25.0267V13.3237H25.72H28.1905C28.6261 13.3237 28.9793 12.9708 28.9793 12.5348C28.9793 12.0988 28.6261 11.746 28.1905 11.746H25.72H25.0267V10.8547V3.9541Z" fill="#111111"/>
</svg>
