<svg width="20" height="21" viewBox="0 0 20 21" fill="none" xmlns="http://www.w3.org/2000/svg">
<path d="M4.25 10.25H11.75C13.527 10.25 14.9947 8.9257 15.22 7.21014C13.5385 6.95472 12.25 5.50283 12.25 3.75C12.25 1.817 13.817 0.25 15.75 0.25C17.683 0.25 19.25 1.817 19.25 3.75C19.25 5.52155 17.9338 6.9857 16.226 7.21791C15.9919 9.4833 14.0773 11.25 11.75 11.25H4.25V13.2854C5.94615 13.5281 7.25 14.9868 7.25 16.75C7.25 18.683 5.683 20.25 3.75 20.25C1.817 20.25 0.25 18.683 0.25 16.75C0.25 14.9868 1.55385 13.5281 3.25 13.2854V7.21456C1.55385 6.97194 0.25 5.51324 0.25 3.75C0.25 1.817 1.817 0.25 3.75 0.25C5.683 0.25 7.25 1.817 7.25 3.75C7.25 5.51324 5.94615 6.97194 4.25 7.21456V10.25ZM1.25 16.75C1.25 18.1307 2.36929 19.25 3.75 19.25C5.13071 19.25 6.25 18.1307 6.25 16.75C6.25 15.3693 5.13071 14.25 3.75 14.25C2.36929 14.25 1.25 15.3693 1.25 16.75ZM1.25 3.75C1.25 5.13071 2.36929 6.25 3.75 6.25C5.13071 6.25 6.25 5.13071 6.25 3.75C6.25 2.36929 5.13071 1.25 3.75 1.25C2.36929 1.25 1.25 2.36929 1.25 3.75ZM15.75 1.25C14.3693 1.25 13.25 2.36929 13.25 3.75C13.25 5.13071 14.3693 6.25 15.75 6.25C17.1307 6.25 18.25 5.13071 18.25 3.75C18.25 2.36929 17.1307 1.25 15.75 1.25Z" fill="#2563FB" stroke="#2563FB" stroke-width="0.5"/>
</svg>
