<svg width="28" height="28" viewBox="0 0 28 28" fill="none" xmlns="http://www.w3.org/2000/svg">
<path d="M10.5 3.5H5.83333C4.54467 3.5 3.5 4.54467 3.5 5.83333V10.5C3.5 11.7887 4.54467 12.8333 5.83333 12.8333H10.5C11.7887 12.8333 12.8333 11.7887 12.8333 10.5V5.83333C12.8333 4.54467 11.7887 3.5 10.5 3.5Z" stroke="#333333" stroke-width="2" stroke-linecap="round" stroke-linejoin="round"/>
<path d="M8.17188 12.8333V17.5C8.17188 18.1188 8.41771 18.7123 8.85529 19.1499C9.29288 19.5875 9.88637 19.8333 10.5052 19.8333H15.1719" stroke="#333333" stroke-width="2" stroke-linecap="round" stroke-linejoin="round"/>
<path d="M22.1719 15.1667H17.5052C16.2165 15.1667 15.1719 16.2114 15.1719 17.5V22.1667C15.1719 23.4554 16.2165 24.5 17.5052 24.5H22.1719C23.4605 24.5 24.5052 23.4554 24.5052 22.1667V17.5C24.5052 16.2114 23.4605 15.1667 22.1719 15.1667Z" stroke="#333333" stroke-width="2" stroke-linecap="round" stroke-linejoin="round"/>
</svg>
